<svg xmlns="http://www.w3.org/2000/svg" viewBox="0 0 174.67 165.94"><defs><style>.cls-1{fill:#f5f5f5;}.cls-2{fill:#e0e0e0;}.cls-3{fill:#9b9b9b;}.cls-4{fill:#888;}</style></defs><g id="레이어_2" data-name="레이어 2"><g id="레이어_1-2" data-name="레이어 1"><polygon class="cls-1" points="169.11 157.21 52.4 157.21 52.4 8.73 144.1 11.66 147.15 26.98 169.11 33.22 169.11 157.21"/><polygon class="cls-2" points="136.23 4.93 135.11 28.62 139.74 34.93 165.94 38.13 169.79 30.96 165.94 26.2 157.21 17.47 148.47 8.73 143.15 4.93 136.23 4.93"/><rect class="cls-2" x="8.73" y="43.67" width="104.8" height="34.93"/><rect class="cls-3" x="165.94" y="43.67" width="8.73" height="8.73" transform="translate(122.27 218.34) rotate(-90)"/><rect class="cls-3" x="165.94" y="52.4" width="8.73" height="8.73" transform="translate(113.54 227.07) rotate(-90)"/><rect class="cls-3" x="165.94" y="61.14" width="8.73" height="8.73" transform="translate(104.8 235.81) rotate(-90)"/><rect class="cls-3" x="165.94" y="69.87" width="8.73" height="8.73" transform="translate(96.07 244.54) rotate(-90)"/><rect class="cls-3" x="165.94" y="78.6" width="8.73" height="8.73" transform="translate(87.34 253.27) rotate(-90)"/><rect class="cls-3" x="165.94" y="87.34" width="8.73" height="8.73" transform="translate(78.6 262.01) rotate(-90)"/><rect class="cls-3" x="165.94" y="96.07" width="8.73" height="8.73" transform="translate(69.87 270.74) rotate(-90)"/><rect class="cls-3" x="165.94" y="104.8" width="8.73" height="8.73" transform="translate(61.14 279.48) rotate(-90)"/><rect class="cls-3" x="165.94" y="113.54" width="8.73" height="8.73" transform="translate(52.4 288.21) rotate(-90)"/><rect class="cls-3" x="165.94" y="122.27" width="8.73" height="8.73" transform="translate(43.67 296.94) rotate(-90)"/><rect class="cls-3" x="165.94" y="131" width="8.73" height="8.73" transform="translate(34.93 305.68) rotate(-90)"/><rect class="cls-3" x="165.94" y="139.74" width="8.73" height="8.73" transform="translate(26.2 314.41) rotate(-90)"/><rect class="cls-3" x="165.94" y="148.47" width="8.73" height="8.73" transform="translate(17.47 323.14) rotate(-90)"/><rect class="cls-3" x="157.2" y="157.2" width="8.73" height="8.73" transform="translate(0 323.14) rotate(-90)"/><rect class="cls-3" x="148.47" y="157.2" width="8.73" height="8.73" transform="translate(-8.73 314.41) rotate(-90)"/><rect class="cls-3" x="139.74" y="157.2" width="8.73" height="8.73" transform="translate(-17.47 305.68) rotate(-90)"/><rect class="cls-3" x="131" y="157.2" width="8.73" height="8.73" transform="translate(-26.2 296.94) rotate(-90)"/><rect class="cls-3" x="122.27" y="157.2" width="8.73" height="8.73" transform="translate(-34.93 288.21) rotate(-90)"/><rect class="cls-3" x="113.54" y="157.2" width="8.73" height="8.73" transform="translate(-43.67 279.48) rotate(-90)"/><rect class="cls-3" x="104.8" y="157.2" width="8.73" height="8.73" transform="translate(-52.4 270.74) rotate(-90)"/><rect class="cls-3" x="96.07" y="157.2" width="8.73" height="8.73" transform="translate(-61.14 262.01) rotate(-90)"/><rect class="cls-3" x="87.34" y="157.2" width="8.73" height="8.73" transform="translate(-69.87 253.27) rotate(-90)"/><rect class="cls-3" x="78.6" y="157.2" width="8.73" height="8.73" transform="translate(-78.6 244.54) rotate(-90)"/><rect class="cls-3" x="69.87" y="157.2" width="8.73" height="8.73" transform="translate(-87.34 235.81) rotate(-90)"/><rect class="cls-3" x="139.74" y="133.87" width="8.73" height="8.73" transform="translate(5.86 282.35) rotate(-90)"/><rect class="cls-3" x="131" y="133.87" width="8.73" height="8.73" transform="translate(-2.87 273.61) rotate(-90)"/><rect class="cls-3" x="122.27" y="133.87" width="8.73" height="8.73" transform="translate(-11.6 264.88) rotate(-90)"/><rect class="cls-3" x="113.54" y="133.87" width="8.73" height="8.73" transform="translate(-20.34 256.15) rotate(-90)"/><rect class="cls-3" x="104.8" y="133.87" width="8.73" height="8.73" transform="translate(-29.07 247.41) rotate(-90)"/><rect class="cls-3" x="87.34" y="133.87" width="8.73" height="8.73" transform="translate(-46.54 229.94) rotate(-90)"/><rect class="cls-3" x="139.74" y="116.41" width="8.73" height="8.73" transform="translate(23.33 264.88) rotate(-90)"/><rect class="cls-3" x="131" y="116.41" width="8.73" height="8.73" transform="translate(14.6 256.14) rotate(-90)"/><rect class="cls-3" x="122.27" y="116.41" width="8.73" height="8.73" transform="translate(5.86 247.41) rotate(-90)"/><rect class="cls-3" x="113.54" y="116.41" width="8.73" height="8.73" transform="translate(-2.87 238.68) rotate(-90)"/><rect class="cls-3" x="104.8" y="116.41" width="8.73" height="8.73" transform="translate(-11.6 229.94) rotate(-90)"/><rect class="cls-3" x="96.07" y="116.41" width="8.73" height="8.73" transform="translate(-20.34 221.21) rotate(-90)"/><rect class="cls-3" x="87.34" y="116.41" width="8.73" height="8.73" transform="translate(-29.07 212.48) rotate(-90)"/><rect class="cls-3" x="78.6" y="116.41" width="8.73" height="8.73" transform="translate(-37.8 203.74) rotate(-90)"/><rect class="cls-3" x="69.87" y="116.41" width="8.73" height="8.73" transform="translate(-46.54 195.01) rotate(-90)"/><rect class="cls-3" x="139.74" y="98.94" width="8.73" height="8.73" transform="translate(40.8 247.41) rotate(-90)"/><rect class="cls-3" x="131" y="98.94" width="8.73" height="8.73" transform="translate(32.07 238.67) rotate(-90)"/><rect class="cls-3" x="122.27" y="98.94" width="8.73" height="8.73" transform="translate(23.33 229.94) rotate(-90)"/><rect class="cls-3" x="113.54" y="98.94" width="8.73" height="8.73" transform="translate(14.6 221.21) rotate(-90)"/><rect class="cls-3" x="104.8" y="98.94" width="8.73" height="8.73" transform="translate(5.87 212.47) rotate(-90)"/><rect class="cls-3" x="96.07" y="98.94" width="8.73" height="8.73" transform="translate(-2.87 203.74) rotate(-90)"/><rect class="cls-3" x="87.34" y="98.94" width="8.73" height="8.73" transform="translate(-11.6 195.01) rotate(-90)"/><rect class="cls-3" x="78.6" y="98.94" width="8.73" height="8.73" transform="translate(-20.33 186.27) rotate(-90)"/><rect class="cls-3" x="69.87" y="98.94" width="8.73" height="8.73" transform="translate(-29.07 177.54) rotate(-90)"/><rect class="cls-3" x="61.14" y="157.2" width="8.73" height="8.73" transform="translate(-96.07 227.07) rotate(-90)"/><rect class="cls-3" x="52.4" y="157.2" width="8.73" height="8.73" transform="translate(-104.8 218.34) rotate(-90)"/><rect class="cls-3" x="43.67" y="148.47" width="8.73" height="8.73" transform="translate(-104.8 200.87) rotate(-90)"/><rect class="cls-3" x="43.67" y="139.74" width="8.73" height="8.73" transform="translate(-96.07 192.14) rotate(-90)"/><rect class="cls-3" x="43.67" y="131" width="8.73" height="8.73" transform="translate(-87.34 183.41) rotate(-90)"/><rect class="cls-3" x="43.67" y="122.27" width="8.73" height="8.73" transform="translate(-78.6 174.67) rotate(-90)"/><rect class="cls-3" x="43.67" y="113.54" width="8.73" height="8.73" transform="translate(-69.87 165.94) rotate(-90)"/><rect class="cls-3" x="43.67" y="104.8" width="8.73" height="8.73" transform="translate(-61.14 157.2) rotate(-90)"/><rect class="cls-3" x="43.67" y="96.07" width="8.73" height="8.73" transform="translate(-52.4 148.47) rotate(-90)"/><rect class="cls-3" x="43.67" y="87.34" width="8.73" height="8.73" transform="translate(-43.67 139.74) rotate(-90)"/><rect class="cls-3" x="43.67" y="78.6" width="8.73" height="8.73" transform="translate(-34.93 131) rotate(-90)"/><rect class="cls-3" x="43.67" y="34.93" width="8.73" height="8.73" transform="translate(8.73 87.34) rotate(-90)"/><rect class="cls-3" x="52.4" y="34.93" width="8.73" height="8.73" transform="translate(17.47 96.07) rotate(-90)"/><rect class="cls-3" x="61.14" y="34.93" width="8.73" height="8.73" transform="translate(26.2 104.8) rotate(-90)"/><rect class="cls-3" x="69.87" y="34.93" width="8.73" height="8.73" transform="translate(34.93 113.54) rotate(-90)"/><rect class="cls-3" x="78.6" y="34.93" width="8.73" height="8.73" transform="translate(43.67 122.27) rotate(-90)"/><rect class="cls-3" x="87.34" y="34.93" width="8.73" height="8.73" transform="translate(52.4 131) rotate(-90)"/><rect class="cls-3" x="96.07" y="34.93" width="8.73" height="8.73" transform="translate(61.14 139.74) rotate(-90)"/><rect class="cls-3" x="104.8" y="34.93" width="8.73" height="8.73" transform="translate(69.87 148.47) rotate(-90)"/><rect class="cls-3" x="113.54" y="43.67" width="8.73" height="8.73" transform="translate(69.87 165.94) rotate(-90)"/><rect class="cls-3" x="113.54" y="52.4" width="8.73" height="8.73" transform="translate(61.14 174.67) rotate(-90)"/><rect class="cls-3" x="113.54" y="61.14" width="8.73" height="8.73" transform="translate(52.4 183.41) rotate(-90)"/><rect class="cls-3" x="113.54" y="69.87" width="8.73" height="8.73" transform="translate(43.67 192.14) rotate(-90)"/><rect class="cls-2" x="52.4" y="148.47" width="8.73" height="8.73" transform="translate(-96.07 209.61) rotate(-90)"/><rect class="cls-2" x="52.4" y="139.74" width="8.73" height="8.73" transform="translate(-87.34 200.87) rotate(-90)"/><rect class="cls-2" x="52.4" y="131" width="8.73" height="8.73" transform="translate(-78.6 192.14) rotate(-90)"/><rect class="cls-2" x="52.4" y="122.27" width="8.73" height="8.73" transform="translate(-69.87 183.41) rotate(-90)"/><rect class="cls-2" x="52.4" y="113.54" width="8.73" height="8.73" transform="translate(-61.14 174.67) rotate(-90)"/><rect class="cls-2" x="52.4" y="104.8" width="8.73" height="8.73" transform="translate(-52.4 165.94) rotate(-90)"/><rect class="cls-2" x="52.4" y="96.07" width="8.73" height="8.73" transform="translate(-43.67 157.2) rotate(-90)"/><rect class="cls-2" x="52.4" y="87.34" width="8.73" height="8.73" transform="translate(-34.93 148.47) rotate(-90)"/><rect class="cls-2" x="52.4" y="26.2" width="8.73" height="8.73" transform="translate(26.2 87.34) rotate(-90)"/><rect class="cls-2" x="52.4" y="17.47" width="8.73" height="8.73" transform="translate(34.93 78.6) rotate(-90)"/><rect class="cls-2" x="52.4" y="8.73" width="8.73" height="8.73" transform="translate(43.67 69.87) rotate(-90)"/><rect class="cls-2" x="69.87" y="148.47" width="8.73" height="8.73" transform="translate(-78.6 227.07) rotate(-90)"/><rect class="cls-2" x="61.14" y="139.74" width="8.73" height="8.73" transform="translate(-78.6 209.61) rotate(-90)"/><rect class="cls-2" x="78.6" y="139.74" width="8.73" height="8.73" transform="translate(-61.14 227.07) rotate(-90)"/><rect class="cls-2" x="69.59" y="131" width="8.73" height="8.73" transform="translate(-61.41 209.33) rotate(-90)"/><rect class="cls-2" x="61.14" y="122.27" width="8.73" height="8.73" transform="translate(-61.14 192.14) rotate(-90)"/><rect class="cls-2" x="61.14" y="104.8" width="8.73" height="8.73" transform="translate(-43.67 174.67) rotate(-90)"/><rect class="cls-2" x="61.14" y="87.34" width="8.73" height="8.73" transform="translate(-26.2 157.2) rotate(-90)"/><rect class="cls-2" x="61.14" y="26.2" width="8.73" height="8.73" transform="translate(34.93 96.07) rotate(-90)"/><rect class="cls-2" x="61.14" y="8.73" width="8.73" height="8.73" transform="translate(52.4 78.6) rotate(-90)"/><rect class="cls-2" x="96.07" y="139.74" width="8.73" height="8.73" transform="translate(-43.67 244.54) rotate(-90)"/><rect class="cls-2" x="87.34" y="148.47" width="8.73" height="8.73" transform="translate(-61.14 244.54) rotate(-90)"/><rect class="cls-2" x="104.8" y="148.47" width="8.73" height="8.73" transform="translate(-43.67 262.01) rotate(-90)"/><rect class="cls-2" x="122.27" y="148.47" width="8.73" height="8.73" transform="translate(-26.2 279.48) rotate(-90)"/><rect class="cls-2" x="139.74" y="148.47" width="8.73" height="8.73" transform="translate(-8.73 296.94) rotate(-90)"/><rect class="cls-2" x="157.2" y="148.47" width="8.73" height="8.73" transform="translate(8.73 314.41) rotate(-90)"/><rect class="cls-3" x="104.8" y="78.6" width="8.73" height="8.73" transform="translate(26.2 192.14) rotate(-90)"/><rect class="cls-3" x="96.07" y="78.6" width="8.73" height="8.73" transform="translate(17.47 183.41) rotate(-90)"/><rect class="cls-3" x="87.34" y="78.6" width="8.73" height="8.73" transform="translate(8.73 174.67) rotate(-90)"/><rect class="cls-3" x="78.6" y="78.6" width="8.73" height="8.73" transform="translate(0 165.94) rotate(-90)"/><rect class="cls-3" x="69.87" y="78.6" width="8.73" height="8.73" transform="translate(-8.73 157.2) rotate(-90)"/><rect class="cls-3" x="61.14" y="78.6" width="8.73" height="8.73" transform="translate(-17.47 148.47) rotate(-90)"/><rect class="cls-3" x="52.4" y="78.6" width="8.73" height="8.73" transform="translate(-26.2 139.74) rotate(-90)"/><rect class="cls-3" x="43.67" y="78.6" width="8.73" height="8.73" transform="translate(-34.93 131) rotate(-90)"/><rect class="cls-3" x="34.93" y="78.6" width="8.73" height="8.73" transform="translate(-43.67 122.27) rotate(-90)"/><rect class="cls-3" x="26.2" y="78.6" width="8.73" height="8.73" transform="translate(-52.4 113.54) rotate(-90)"/><rect class="cls-3" x="17.47" y="78.6" width="8.73" height="8.73" transform="translate(-61.14 104.8) rotate(-90)"/><rect class="cls-3" x="8.73" y="78.6" width="8.73" height="8.73" transform="translate(-69.87 96.07) rotate(-90)"/><rect class="cls-3" y="69.87" width="8.73" height="8.73" transform="translate(-69.87 78.6) rotate(-90)"/><rect class="cls-3" y="61.14" width="8.73" height="8.73" transform="translate(-61.14 69.87) rotate(-90)"/><rect class="cls-3" y="52.4" width="8.73" height="8.73" transform="translate(-52.4 61.14) rotate(-90)"/><rect class="cls-3" y="43.67" width="8.73" height="8.73" transform="translate(-43.67 52.4) rotate(-90)"/><rect class="cls-3" x="8.73" y="34.93" width="8.73" height="8.73" transform="translate(-26.2 52.4) rotate(-90)"/><rect class="cls-3" x="17.47" y="34.93" width="8.73" height="8.73" transform="translate(-17.47 61.14) rotate(-90)"/><rect class="cls-1" x="8.73" y="52.4" width="8.73" height="8.73" transform="translate(-43.67 69.87) rotate(-90)"/><rect class="cls-1" x="8.73" y="69.87" width="8.73" height="8.73" transform="translate(-61.14 87.34) rotate(-90)"/><rect class="cls-1" x="26.2" y="69.87" width="8.73" height="8.73" transform="translate(-43.67 104.8) rotate(-90)"/><rect class="cls-3" x="26.2" y="34.93" width="8.73" height="8.73" transform="translate(-8.73 69.87) rotate(-90)"/><rect class="cls-3" x="34.93" y="34.93" width="8.73" height="8.73" transform="translate(0 78.6) rotate(-90)"/><rect class="cls-3" x="43.67" y="26.2" width="8.73" height="8.73" transform="translate(17.47 78.6) rotate(-90)"/><rect class="cls-3" x="43.67" y="17.47" width="8.73" height="8.73" transform="translate(26.2 69.87) rotate(-90)"/><rect class="cls-3" x="43.67" y="8.73" width="8.73" height="8.73" transform="translate(34.93 61.14) rotate(-90)"/><rect class="cls-3" x="52.4" width="8.73" height="8.73" transform="translate(52.4 61.14) rotate(-90)"/><rect class="cls-3" x="61.14" width="8.73" height="8.73" transform="translate(61.14 69.87) rotate(-90)"/><rect class="cls-3" x="69.87" width="8.73" height="8.73" transform="translate(69.87 78.6) rotate(-90)"/><rect class="cls-3" x="78.6" width="8.73" height="8.73" transform="translate(78.6 87.34) rotate(-90)"/><rect class="cls-3" x="87.34" width="8.73" height="8.73" transform="translate(87.34 96.07) rotate(-90)"/><rect class="cls-3" x="96.07" width="8.73" height="8.73" transform="translate(96.07 104.8) rotate(-90)"/><rect class="cls-3" x="104.8" width="8.73" height="8.73" transform="translate(104.8 113.54) rotate(-90)"/><rect class="cls-3" x="113.54" width="8.73" height="8.73" transform="translate(113.54 122.27) rotate(-90)"/><rect class="cls-3" x="122.27" width="8.73" height="8.73" transform="translate(122.27 131) rotate(-90)"/><rect class="cls-3" x="165.94" y="34.93" width="8.73" height="8.73" transform="translate(131 209.61) rotate(-90)"/><rect class="cls-3" x="157.2" y="34.93" width="8.73" height="8.73" transform="translate(122.27 200.87) rotate(-90)"/><rect class="cls-3" x="148.47" y="34.93" width="8.73" height="8.73" transform="translate(113.54 192.14) rotate(-90)"/><rect class="cls-3" x="139.74" y="34.93" width="8.73" height="8.73" transform="translate(104.8 183.41) rotate(-90)"/><rect class="cls-3" x="131" y="26.2" width="8.73" height="8.73" transform="translate(104.8 165.94) rotate(-90)"/><rect class="cls-3" x="131" y="17.47" width="8.73" height="8.73" transform="translate(113.54 157.2) rotate(-90)"/><rect class="cls-3" x="131" y="8.73" width="8.73" height="8.73" transform="translate(122.27 148.47) rotate(-90)"/><rect class="cls-3" x="157.2" y="17.47" width="8.73" height="8.73" transform="translate(139.74 183.41) rotate(-90)"/><rect class="cls-3" x="165.94" y="26.2" width="8.73" height="8.73" transform="translate(139.74 200.87) rotate(-90)"/><rect class="cls-3" x="148.47" y="8.73" width="8.73" height="8.73" transform="translate(139.74 165.94) rotate(-90)"/><rect class="cls-3" x="139.74" width="8.73" height="8.73" transform="translate(139.74 148.47) rotate(-90)"/><rect class="cls-3" x="131" width="8.73" height="8.73" transform="translate(131 139.74) rotate(-90)"/><path class="cls-4" d="M24.32,72.87V49.24H44.57v3.38H48V62.74H44.57v3.38H31.07v6.75Zm6.75-10.13H41.2V52.62H31.07Z"/><path class="cls-4" d="M51.32,72.87V49.24H68.2v3.38h3.37V56H75V66.12H71.57v3.37H68.2v3.38Zm6.75-3.38h6.75V66.12H68.2V56H64.82V52.62H58.07Z"/><path class="cls-4" d="M78.32,72.87V49.24H102v3.38H85.07v6.75h13.5v3.37H85.07V72.87Z"/><rect class="cls-3" x="96.07" y="133.87" width="8.73" height="8.73" transform="translate(-37.81 238.68) rotate(-90)"/><rect class="cls-3" x="78.6" y="133.87" width="8.73" height="8.73" transform="translate(-55.27 221.21) rotate(-90)"/><rect class="cls-3" x="69.87" y="133.87" width="8.73" height="8.73" transform="translate(-64.01 212.48) rotate(-90)"/></g></g></svg>