<svg xmlns="http://www.w3.org/2000/svg" viewBox="0 0 144.34 122.27"><defs><style>.cls-1{fill:#f5f5f5;}.cls-2{fill:#9b9b9b;}.cls-3{fill:#e0e0e0;}</style></defs><g id="레이어_2" data-name="레이어 2"><g id="레이어_1-2" data-name="레이어 1"><rect class="cls-1" x="22.07" y="34.93" width="113.54" height="78.6"/><rect class="cls-2" x="13.33" y="26.2" width="8.73" height="8.73" transform="translate(-12.87 48.26) rotate(-90)"/><rect class="cls-2" x="22.06" y="17.47" width="8.73" height="8.73" transform="translate(4.59 48.26) rotate(-90)"/><rect class="cls-2" x="30.79" y="8.73" width="8.73" height="8.73" transform="translate(22.06 48.26) rotate(-90)"/><rect class="cls-2" x="39.53" width="8.73" height="8.73" transform="translate(39.53 48.26) rotate(-90)"/><rect class="cls-2" x="48.26" width="8.73" height="8.73" transform="translate(48.26 56.99) rotate(-90)"/><rect class="cls-2" x="56.99" width="8.73" height="8.73" transform="translate(56.99 65.73) rotate(-90)"/><rect class="cls-2" x="65.73" width="8.73" height="8.73" transform="translate(65.73 74.46) rotate(-90)"/><rect class="cls-2" x="74.47" y="8.73" width="8.73" height="8.73" transform="translate(65.74 91.94) rotate(-90)"/><rect class="cls-2" x="83.21" y="17.47" width="8.73" height="8.73" transform="translate(65.74 109.41) rotate(-90)"/><rect class="cls-2" x="91.94" y="26.2" width="8.73" height="8.73" transform="translate(65.74 126.88) rotate(-90)"/><rect class="cls-1" x="52.64" y="-4.37" width="8.73" height="52.4" transform="translate(35.17 78.84) rotate(-90)"/><rect class="cls-1" x="57.01" width="8.73" height="61.14" transform="translate(30.81 91.94) rotate(-90)"/><rect class="cls-1" x="52.63" y="-4.36" width="8.73" height="34.92" transform="translate(43.9 70.1) rotate(-90)"/><rect class="cls-3" x="22.07" y="26.2" width="8.73" height="8.73" transform="translate(-4.13 57.01) rotate(-90)"/><rect class="cls-3" x="22.07" y="34.93" width="8.73" height="8.73" transform="translate(-12.86 65.74) rotate(-90)"/><rect class="cls-3" x="22.07" y="43.67" width="8.73" height="8.73" transform="translate(-21.59 74.47) rotate(-90)"/><rect class="cls-3" x="22.07" y="52.4" width="8.73" height="8.73" transform="translate(-30.33 83.21) rotate(-90)"/><rect class="cls-3" x="22.07" y="61.14" width="8.73" height="8.73" transform="translate(-39.06 91.94) rotate(-90)"/><rect class="cls-3" x="22.07" y="69.87" width="8.73" height="8.73" transform="translate(-47.8 100.68) rotate(-90)"/><rect class="cls-3" x="30.82" y="69.87" width="8.73" height="8.73" transform="translate(-39.05 109.42) rotate(-90)"/><rect class="cls-3" x="30.82" y="52.4" width="8.73" height="8.73" transform="translate(-21.58 91.96) rotate(-90)"/><rect class="cls-3" x="30.82" y="34.93" width="8.73" height="8.73" transform="translate(-4.11 74.49) rotate(-90)"/><rect class="cls-3" x="22.07" y="78.6" width="8.73" height="8.73" transform="translate(-56.53 109.41) rotate(-90)"/><rect class="cls-3" x="39.53" y="78.6" width="8.73" height="8.73" transform="translate(-39.08 126.86) rotate(-90)"/><rect class="cls-3" x="22.07" y="87.34" width="8.73" height="8.73" transform="translate(-65.26 118.14) rotate(-90)"/><rect class="cls-3" x="30.79" y="87.34" width="8.73" height="8.73" transform="translate(-56.54 126.86) rotate(-90)"/><rect class="cls-3" x="48.28" y="87.34" width="8.73" height="8.73" transform="translate(-39.06 144.35) rotate(-90)"/><rect class="cls-3" x="22.07" y="96.07" width="8.73" height="8.73" transform="translate(-74 126.88) rotate(-90)"/><rect class="cls-3" x="39.54" y="96.07" width="8.73" height="8.73" transform="translate(-56.53 144.34) rotate(-90)"/><rect class="cls-3" x="57.01" y="96.07" width="8.73" height="8.73" transform="translate(-39.06 161.81) rotate(-90)"/><rect class="cls-3" x="22.07" y="104.8" width="8.73" height="8.73" transform="translate(-82.73 135.61) rotate(-90)"/><rect class="cls-3" x="30.82" y="104.8" width="8.73" height="8.73" transform="translate(-73.99 144.35) rotate(-90)"/><rect class="cls-3" x="65.74" y="104.8" width="8.73" height="8.73" transform="translate(-39.06 179.28) rotate(-90)"/><rect class="cls-3" x="83.21" y="104.8" width="8.73" height="8.73" transform="translate(-21.59 196.75) rotate(-90)"/><rect class="cls-3" x="100.68" y="104.8" width="8.73" height="8.73" transform="translate(-4.13 214.21) rotate(-90)"/><rect class="cls-3" x="118.14" y="104.8" width="8.73" height="8.73" transform="translate(13.34 231.68) rotate(-90)"/><rect class="cls-3" x="48.28" y="104.8" width="8.73" height="8.73" transform="translate(-56.52 161.82) rotate(-90)"/><rect class="cls-2" x="100.68" y="26.2" width="8.73" height="8.73" transform="translate(74.47 135.61) rotate(-90)"/><rect class="cls-2" x="109.41" y="26.2" width="8.73" height="8.73" transform="translate(83.21 144.34) rotate(-90)"/><rect class="cls-2" x="118.14" y="26.2" width="8.73" height="8.73" transform="translate(91.94 153.08) rotate(-90)"/><rect class="cls-2" x="126.88" y="26.2" width="8.73" height="8.73" transform="translate(100.68 161.81) rotate(-90)"/><rect class="cls-2" x="126.88" y="34.93" width="8.73" height="8.73" transform="translate(91.94 170.54) rotate(-90)"/><rect class="cls-2" x="135.61" y="34.93" width="8.73" height="8.73" transform="translate(100.68 179.28) rotate(-90)"/><rect class="cls-2" x="135.61" y="43.67" width="8.73" height="8.73" transform="translate(91.94 188.01) rotate(-90)"/><rect class="cls-2" x="135.61" y="52.4" width="8.73" height="8.73" transform="translate(83.21 196.75) rotate(-90)"/><rect class="cls-2" x="135.61" y="61.14" width="8.73" height="8.73" transform="translate(74.47 205.48) rotate(-90)"/><rect class="cls-2" x="135.61" y="69.87" width="8.73" height="8.73" transform="translate(65.74 214.21) rotate(-90)"/><rect class="cls-2" x="135.61" y="78.6" width="8.73" height="8.73" transform="translate(57.01 222.95) rotate(-90)"/><rect class="cls-2" x="135.61" y="87.34" width="8.73" height="8.73" transform="translate(48.27 231.68) rotate(-90)"/><rect class="cls-2" x="135.61" y="96.07" width="8.73" height="8.73" transform="translate(39.54 240.41) rotate(-90)"/><rect class="cls-2" x="126.88" y="113.54" width="8.73" height="8.73" transform="translate(13.34 249.15) rotate(-90)"/><rect class="cls-2" x="118.14" y="113.54" width="8.73" height="8.73" transform="translate(4.61 240.41) rotate(-90)"/><rect class="cls-2" x="109.41" y="113.54" width="8.73" height="8.73" transform="translate(-4.13 231.68) rotate(-90)"/><rect class="cls-2" x="100.68" y="113.54" width="8.73" height="8.73" transform="translate(-12.86 222.95) rotate(-90)"/><rect class="cls-2" x="91.94" y="113.54" width="8.73" height="8.73" transform="translate(-21.59 214.21) rotate(-90)"/><rect class="cls-2" x="83.21" y="113.54" width="8.73" height="8.73" transform="translate(-30.33 205.48) rotate(-90)"/><rect class="cls-2" x="74.47" y="113.54" width="8.73" height="8.73" transform="translate(-39.06 196.75) rotate(-90)"/><rect class="cls-2" x="65.74" y="113.54" width="8.73" height="8.73" transform="translate(-47.8 188.01) rotate(-90)"/><rect class="cls-2" x="57.01" y="113.54" width="8.73" height="8.73" transform="translate(-56.53 179.28) rotate(-90)"/><rect class="cls-2" x="48.27" y="113.54" width="8.73" height="8.73" transform="translate(-65.26 170.54) rotate(-90)"/><rect class="cls-2" x="39.54" y="113.54" width="8.73" height="8.73" transform="translate(-74 161.81) rotate(-90)"/><rect class="cls-2" x="30.81" y="113.54" width="8.73" height="8.73" transform="translate(-82.73 153.08) rotate(-90)"/><rect class="cls-2" x="22.07" y="113.54" width="8.73" height="8.73" transform="translate(-91.46 144.34) rotate(-90)"/><rect class="cls-2" x="13.33" y="104.8" width="8.73" height="8.73" transform="translate(-91.48 126.86) rotate(-90)"/><rect class="cls-2" x="13.33" y="96.07" width="8.73" height="8.73" transform="translate(-82.74 118.13) rotate(-90)"/><rect class="cls-2" x="13.33" y="87.34" width="8.73" height="8.73" transform="translate(-74.01 109.4) rotate(-90)"/><rect class="cls-2" x="13.33" y="78.6" width="8.73" height="8.73" transform="translate(-65.28 100.66) rotate(-90)"/><rect class="cls-2" x="13.33" y="69.87" width="8.73" height="8.73" transform="translate(-56.54 91.93) rotate(-90)"/><rect class="cls-2" x="13.33" y="61.14" width="8.73" height="8.73" transform="translate(-47.81 83.2) rotate(-90)"/><rect class="cls-2" x="13.33" y="52.4" width="8.73" height="8.73" transform="translate(-39.08 74.46) rotate(-90)"/><rect class="cls-2" x="13.33" y="43.67" width="8.73" height="8.73" transform="translate(-30.34 65.73) rotate(-90)"/><rect class="cls-2" x="13.33" y="34.93" width="8.73" height="8.73" transform="translate(-21.61 56.99) rotate(-90)"/><rect class="cls-2" x="135.61" y="104.8" width="8.73" height="8.73" transform="translate(30.81 249.15) rotate(-90)"/><rect class="cls-3" x="30.81" y="17.47" width="8.73" height="8.73" transform="translate(13.34 57.01) rotate(-90)"/><rect class="cls-3" x="39.54" y="8.73" width="8.73" height="8.73" transform="translate(30.81 57.01) rotate(-90)"/><path class="cls-1" d="M8.22,46.4S5.68,56.9,5.68,59,6.39,73.86,7,74.88s3.51,11.29,4.32,14.44,3.26,9.36,3.46,10.68.41,6.1.71,6.51,6.62,7,6.62,7,108.5,6.49,107.38,3.85.41-15.26-.51-17.39-6-14.87-5.76-16.39-3.8-19.92-3.8-19.92-3.15-7.12-3.66-8.54-.43-6.54-1.94-6.47S8.22,46.4,8.22,46.4Z"/><rect class="cls-2" x="4.38" y="43.67" width="8.73" height="8.73" transform="translate(-39.29 56.78) rotate(-90)"/><rect class="cls-2" y="52.4" width="8.73" height="8.73" transform="translate(-52.4 61.14) rotate(-90)"/><rect class="cls-2" y="61.14" width="8.73" height="8.73" transform="translate(-61.14 69.87) rotate(-90)"/><rect class="cls-2" x="4.38" y="69.87" width="8.73" height="8.73" transform="translate(-65.49 82.98) rotate(-90)"/><rect class="cls-2" x="4.38" y="78.6" width="8.73" height="8.73" transform="translate(-74.22 91.72) rotate(-90)"/><rect class="cls-2" x="9.19" y="87.34" width="8.73" height="8.73" transform="translate(-78.14 105.26) rotate(-90)"/><rect class="cls-2" x="9.19" y="96.07" width="8.73" height="8.73" transform="translate(-86.88 114) rotate(-90)"/><rect class="cls-2" x="13.33" y="104.8" width="8.73" height="8.73" transform="translate(-91.47 126.87) rotate(-90)"/><rect class="cls-2" x="22.06" y="113.54" width="8.73" height="8.73" transform="translate(-91.47 144.33) rotate(-90)"/><rect class="cls-2" x="30.8" y="113.54" width="8.73" height="8.73" transform="translate(-82.74 153.07) rotate(-90)"/><rect class="cls-2" x="39.53" y="113.54" width="8.73" height="8.73" transform="translate(-74.01 161.8) rotate(-90)"/><rect class="cls-2" x="48.26" y="113.54" width="8.73" height="8.73" transform="translate(-65.27 170.53) rotate(-90)"/><rect class="cls-2" x="57" y="113.54" width="8.73" height="8.73" transform="translate(-56.54 179.27) rotate(-90)"/><rect class="cls-2" x="65.73" y="113.54" width="8.73" height="8.73" transform="translate(-47.81 188) rotate(-90)"/><rect class="cls-2" x="74.46" y="113.54" width="8.73" height="8.73" transform="translate(-39.07 196.74) rotate(-90)"/><rect class="cls-2" x="83.2" y="113.54" width="8.73" height="8.73" transform="translate(-30.34 205.47) rotate(-90)"/><rect class="cls-2" x="91.93" y="113.54" width="8.73" height="8.73" transform="translate(-21.6 214.2) rotate(-90)"/><rect class="cls-2" x="100.67" y="113.54" width="8.73" height="8.73" transform="translate(-12.87 222.94) rotate(-90)"/><rect class="cls-2" x="109.4" y="113.54" width="8.73" height="8.73" transform="translate(-4.14 231.67) rotate(-90)"/><rect class="cls-2" x="118.13" y="113.54" width="8.73" height="8.73" transform="translate(4.6 240.4) rotate(-90)"/><rect class="cls-2" x="126.87" y="113.54" width="8.73" height="8.73" transform="translate(13.33 249.14) rotate(-90)"/><rect class="cls-2" x="126.87" y="104.8" width="8.73" height="8.73" transform="translate(22.06 240.4) rotate(-90)"/><rect class="cls-2" x="122.8" y="96.07" width="8.73" height="8.73" transform="translate(26.73 227.6) rotate(-90)"/><rect class="cls-2" x="122.8" y="87.34" width="8.73" height="8.73" transform="translate(35.46 218.87) rotate(-90)"/><rect class="cls-2" x="118.8" y="78.6" width="8.73" height="8.73" transform="translate(40.2 206.13) rotate(-90)"/><rect class="cls-2" x="118.8" y="69.87" width="8.73" height="8.73" transform="translate(48.93 197.4) rotate(-90)"/><rect class="cls-2" x="114.43" y="61.14" width="8.73" height="8.73" transform="translate(53.3 184.3) rotate(-90)"/><rect class="cls-2" x="114.43" y="52.4" width="8.73" height="8.73" transform="translate(62.03 175.57) rotate(-90)"/><rect class="cls-2" x="13.11" y="43.67" width="8.73" height="8.73" transform="translate(-30.55 65.52) rotate(-90)"/><rect class="cls-2" x="21.85" y="43.67" width="8.73" height="8.73" transform="translate(-21.82 74.25) rotate(-90)"/><rect class="cls-2" x="30.58" y="43.67" width="8.73" height="8.73" transform="translate(-13.09 82.98) rotate(-90)"/><rect class="cls-2" x="39.31" y="43.67" width="8.73" height="8.73" transform="translate(-4.35 91.72) rotate(-90)"/><rect class="cls-2" x="48.05" y="43.67" width="8.73" height="8.73" transform="translate(4.38 100.45) rotate(-90)"/><rect class="cls-2" x="56.78" y="43.67" width="8.73" height="8.73" transform="translate(13.11 109.18) rotate(-90)"/><rect class="cls-2" x="65.52" y="43.67" width="8.73" height="8.73" transform="translate(21.85 117.92) rotate(-90)"/><rect class="cls-2" x="74.25" y="43.67" width="8.73" height="8.73" transform="translate(30.58 126.65) rotate(-90)"/><rect class="cls-2" x="82.98" y="43.67" width="8.73" height="8.73" transform="translate(39.31 135.38) rotate(-90)"/><rect class="cls-2" x="91.72" y="43.67" width="8.73" height="8.73" transform="translate(48.05 144.12) rotate(-90)"/><rect class="cls-2" x="100.45" y="43.67" width="8.73" height="8.73" transform="translate(56.78 152.85) rotate(-90)"/><rect class="cls-2" x="109.18" y="43.67" width="8.73" height="8.73" transform="translate(65.52 161.59) rotate(-90)"/><rect class="cls-3" x="8.75" y="52.4" width="8.73" height="8.73" transform="translate(-43.65 69.88) rotate(-90)"/><rect class="cls-3" x="17.48" y="52.4" width="8.73" height="8.73" transform="translate(-34.92 78.62) rotate(-90)"/><rect class="cls-3" x="26.21" y="52.4" width="8.73" height="8.73" transform="translate(-26.19 87.35) rotate(-90)"/><rect class="cls-3" x="34.95" y="52.4" width="8.73" height="8.73" transform="translate(-17.45 96.08) rotate(-90)"/><rect class="cls-3" x="43.68" y="52.4" width="8.73" height="8.73" transform="translate(-8.72 104.82) rotate(-90)"/><rect class="cls-3" x="52.42" y="52.4" width="8.73" height="8.73" transform="translate(0.01 113.55) rotate(-90)"/><rect class="cls-3" x="61.15" y="52.4" width="8.73" height="8.73" transform="translate(8.75 122.28) rotate(-90)"/><rect class="cls-3" x="69.88" y="52.4" width="8.73" height="8.73" transform="translate(17.48 131.02) rotate(-90)"/><rect class="cls-3" x="78.62" y="52.4" width="8.73" height="8.73" transform="translate(26.21 139.75) rotate(-90)"/><rect class="cls-3" x="87.35" y="52.4" width="8.73" height="8.73" transform="translate(34.95 148.48) rotate(-90)"/><rect class="cls-3" x="96.08" y="52.4" width="8.73" height="8.73" transform="translate(43.68 157.22) rotate(-90)"/><rect class="cls-3" x="104.82" y="52.4" width="8.73" height="8.73" transform="translate(52.42 165.95) rotate(-90)"/><rect class="cls-3" x="105.73" y="52.4" width="8.73" height="8.73" transform="translate(53.33 166.87) rotate(-90)"/><rect class="cls-3" x="22.09" y="104.8" width="8.73" height="8.73" transform="translate(-82.72 135.62) rotate(-90)"/><rect class="cls-3" x="39.55" y="104.8" width="8.73" height="8.73" transform="translate(-65.25 153.09) rotate(-90)"/><rect class="cls-3" x="57.01" y="104.8" width="8.73" height="8.73" transform="translate(-47.8 170.54) rotate(-90)"/><rect class="cls-3" x="74.46" y="104.8" width="8.73" height="8.73" transform="translate(-30.34 188) rotate(-90)"/><rect class="cls-3" x="91.97" y="104.8" width="8.73" height="8.73" transform="translate(-12.84 205.5) rotate(-90)"/><rect class="cls-3" x="109.18" y="104.8" width="8.73" height="8.73" transform="translate(4.38 222.72) rotate(-90)"/><rect class="cls-3" x="17.93" y="96.07" width="8.73" height="8.73" transform="translate(-78.14 122.73) rotate(-90)"/><rect class="cls-3" x="30.82" y="96.07" width="8.73" height="8.73" transform="translate(-65.25 135.62) rotate(-90)"/><rect class="cls-3" x="48.28" y="96.07" width="8.73" height="8.73" transform="translate(-47.79 153.08) rotate(-90)"/><rect class="cls-3" x="17.93" y="87.34" width="8.73" height="8.73" transform="translate(-69.41 114) rotate(-90)"/><rect class="cls-3" x="22.29" y="87.34" width="8.73" height="8.73" transform="translate(-65.04 118.36) rotate(-90)"/><rect class="cls-3" x="39.31" y="87.34" width="8.73" height="8.73" transform="translate(-48.02 135.38) rotate(-90)"/><rect class="cls-3" x="13.11" y="78.6" width="8.73" height="8.73" transform="translate(-65.49 100.45) rotate(-90)"/><rect class="cls-3" x="30.58" y="78.6" width="8.73" height="8.73" transform="translate(-48.02 117.92) rotate(-90)"/><rect class="cls-3" x="13.11" y="69.87" width="8.73" height="8.73" transform="translate(-56.75 91.72) rotate(-90)"/><rect class="cls-3" x="21.85" y="69.87" width="8.73" height="8.73" transform="translate(-48.02 100.45) rotate(-90)"/><rect class="cls-3" x="8.75" y="61.14" width="8.73" height="8.73" transform="translate(-52.39 78.62) rotate(-90)"/><rect class="cls-3" x="13.56" y="61.14" width="8.73" height="8.73" transform="translate(-47.57 83.43) rotate(-90)"/></g></g></svg>