<svg xmlns="http://www.w3.org/2000/svg" viewBox="0 0 157.08 154.87"><defs><style>.cls-1{fill:#f5f5f5;}.cls-2{fill:#9b9b9b;}.cls-3{fill:#e0e0e0;}.cls-4{fill:#888;}</style></defs><g id="레이어_2" data-name="레이어 2"><g id="레이어_1-2" data-name="레이어 1"><path class="cls-1" d="M131.53,33.58,124.83,4.5H26.08V146.14h124l2.12-115C142.85,26.76,131.53,33.58,131.53,33.58Z"/><rect class="cls-2" x="122.15" width="8.73" height="8.73"/><rect class="cls-2" x="113.41" width="8.73" height="8.73"/><rect class="cls-2" x="104.68" width="8.73" height="8.73"/><rect class="cls-2" x="95.94" width="8.73" height="8.73"/><rect class="cls-2" x="87.21" width="8.73" height="8.73"/><rect class="cls-2" x="78.48" width="8.73" height="8.73"/><rect class="cls-2" x="69.74" width="8.73" height="8.73"/><rect class="cls-2" x="61.01" width="8.73" height="8.73"/><rect class="cls-2" x="52.28" width="8.73" height="8.73"/><rect class="cls-2" x="43.54" width="8.73" height="8.73"/><rect class="cls-2" x="148.35" y="52.47" width="8.73" height="8.73" transform="translate(209.55 -95.88) rotate(90)"/><rect class="cls-2" x="148.35" y="43.73" width="8.73" height="8.73" transform="translate(200.81 -104.61) rotate(90)"/><rect class="cls-2" x="148.35" y="35" width="8.73" height="8.73" transform="translate(192.08 -113.34) rotate(90)"/><rect class="cls-2" x="148.35" y="26.27" width="8.73" height="8.73" transform="translate(183.35 -122.08) rotate(90)"/><rect class="cls-2" x="148.35" y="61.2" width="8.73" height="8.73" transform="translate(218.28 -87.14) rotate(90)"/><rect class="cls-2" x="148.35" y="69.94" width="8.73" height="8.73" transform="translate(227.02 -78.41) rotate(90)"/><rect class="cls-2" x="148.35" y="128.67" width="8.73" height="8.73" transform="translate(285.75 -19.68) rotate(90)"/><rect class="cls-2" x="148.35" y="119.94" width="8.73" height="8.73" transform="translate(277.02 -28.41) rotate(90)"/><rect class="cls-2" x="148.35" y="111.2" width="8.73" height="8.73" transform="translate(268.28 -37.14) rotate(90)"/><rect class="cls-2" x="148.35" y="102.47" width="8.73" height="8.73" transform="translate(259.55 -45.88) rotate(90)"/><rect class="cls-2" x="148.35" y="93.73" width="8.73" height="8.73" transform="translate(250.81 -54.61) rotate(90)"/><rect class="cls-2" x="148.35" y="85" width="8.73" height="8.73" transform="translate(242.08 -63.34) rotate(90)"/><rect class="cls-2" x="148.35" y="76.27" width="8.73" height="8.73" transform="translate(233.35 -72.08) rotate(90)"/><rect class="cls-2" x="148.35" y="137.4" width="8.73" height="8.73" transform="translate(294.48 -10.94) rotate(90)"/><rect class="cls-2" x="17.34" y="52.47" width="8.73" height="8.73" transform="translate(78.54 35.13) rotate(90)"/><rect class="cls-2" x="17.34" y="43.73" width="8.73" height="8.73" transform="translate(69.81 26.39) rotate(90)"/><rect class="cls-2" x="17.34" y="35" width="8.73" height="8.73" transform="translate(61.08 17.66) rotate(90)"/><rect class="cls-2" x="17.34" y="26.27" width="8.73" height="8.73" transform="translate(52.34 8.93) rotate(90)"/><rect class="cls-2" x="17.34" y="17.53" width="8.73" height="8.73" transform="translate(43.61 0.19) rotate(90)"/><rect class="cls-2" x="17.34" y="8.8" width="8.73" height="8.73" transform="translate(34.88 -8.54) rotate(90)"/><rect class="cls-2" x="17.34" y="61.2" width="8.73" height="8.73" transform="translate(87.28 43.86) rotate(90)"/><rect class="cls-2" x="17.34" y="69.94" width="8.73" height="8.73" transform="translate(96.01 52.59) rotate(90)"/><rect class="cls-2" x="17.34" y="128.67" width="8.73" height="8.73" transform="translate(154.74 111.33) rotate(90)"/><rect class="cls-2" x="17.34" y="137.4" width="8.73" height="8.73" transform="translate(163.48 120.06) rotate(90)"/><rect class="cls-2" x="122.15" y="146.14" width="8.73" height="8.73"/><rect class="cls-2" x="113.41" y="146.14" width="8.73" height="8.73"/><rect class="cls-2" x="104.68" y="146.14" width="8.73" height="8.73"/><rect class="cls-2" x="95.94" y="146.14" width="8.73" height="8.73"/><rect class="cls-2" x="87.21" y="146.14" width="8.73" height="8.73"/><rect class="cls-2" x="78.48" y="146.14" width="8.73" height="8.73"/><rect class="cls-2" x="69.74" y="146.14" width="8.73" height="8.73"/><rect class="cls-2" x="61.01" y="146.14" width="8.73" height="8.73"/><rect class="cls-2" x="52.28" y="146.14" width="8.73" height="8.73"/><rect class="cls-2" x="43.54" y="146.14" width="8.73" height="8.73"/><rect class="cls-2" x="34.81" y="146.14" width="8.73" height="8.73"/><rect class="cls-2" x="26.08" y="146.14" width="8.73" height="8.73"/><rect class="cls-2" x="130.88" y="146.14" width="8.73" height="8.73"/><rect class="cls-2" x="139.61" y="146.14" width="8.73" height="8.73"/><rect class="cls-3" x="26.08" y="8.8" width="8.73" height="8.73" transform="translate(17.27 43.61) rotate(-90)"/><rect class="cls-3" x="26.08" y="17.53" width="8.73" height="8.73" transform="translate(8.54 52.34) rotate(-90)"/><rect class="cls-3" x="26.08" y="26.27" width="8.73" height="8.73" transform="translate(-0.19 61.08) rotate(-90)"/><rect class="cls-3" x="26.08" y="35" width="8.73" height="8.73" transform="translate(-8.93 69.81) rotate(-90)"/><rect class="cls-3" x="26.08" y="43.73" width="8.73" height="8.73" transform="translate(-17.66 78.54) rotate(-90)"/><rect class="cls-3" x="26.08" y="52.47" width="8.73" height="8.73" transform="translate(-26.39 87.28) rotate(-90)"/><rect class="cls-3" x="26.08" y="61.2" width="8.73" height="8.73" transform="translate(-35.13 96.01) rotate(-90)"/><rect class="cls-3" x="26.08" y="69.94" width="8.73" height="8.73" transform="translate(-43.86 104.74) rotate(-90)"/><rect class="cls-3" x="26.08" y="128.67" width="8.73" height="8.73" transform="translate(-102.59 163.48) rotate(-90)"/><rect class="cls-3" x="26.08" y="137.4" width="8.73" height="8.73" transform="translate(-111.33 172.21) rotate(-90)"/><rect class="cls-3" x="139.61" y="137.4" width="8.73" height="8.73" transform="translate(2.21 285.75) rotate(-90)"/><rect class="cls-3" x="121.87" y="137.4" width="8.73" height="8.73" transform="translate(-15.53 268.01) rotate(-90)"/><rect class="cls-3" x="104.13" y="137.4" width="8.73" height="8.73" transform="translate(-33.28 250.26) rotate(-90)"/><rect class="cls-3" x="86.38" y="137.4" width="8.73" height="8.73" transform="translate(-51.02 232.52) rotate(-90)"/><rect class="cls-3" x="68.64" y="137.4" width="8.73" height="8.73" transform="translate(-68.76 214.78) rotate(-90)"/><rect class="cls-3" x="50.9" y="137.4" width="8.73" height="8.73" transform="translate(-86.51 197.03) rotate(-90)"/><rect class="cls-3" x="42.17" y="128.67" width="8.73" height="8.73" transform="translate(-86.5 179.57) rotate(-90)"/><rect class="cls-3" x="59.77" y="128.67" width="8.73" height="8.73" transform="translate(-68.9 197.17) rotate(-90)"/><rect class="cls-3" x="77.51" y="128.67" width="8.73" height="8.73" transform="translate(-51.16 214.91) rotate(-90)"/><rect class="cls-3" x="33.44" y="137.4" width="8.73" height="8.73" transform="translate(-103.97 179.57) rotate(-90)"/><rect class="cls-3" x="33.44" y="69.94" width="8.73" height="8.73" transform="translate(-36.5 112.11) rotate(-90)"/><rect class="cls-3" x="33.44" y="52.47" width="8.73" height="8.73" transform="translate(-19.03 94.64) rotate(-90)"/><rect class="cls-3" x="33.44" y="35" width="8.73" height="8.73" transform="translate(-1.56 77.17) rotate(-90)"/><rect class="cls-3" x="33.44" y="17.53" width="8.73" height="8.73" transform="translate(15.9 59.7) rotate(-90)"/><rect class="cls-3" x="67.42" y="83.37" width="9.31" height="9.31" transform="translate(-15.95 160.1) rotate(-90)"/><rect class="cls-3" x="48.52" y="83.37" width="9.31" height="9.31" transform="translate(-34.86 141.2) rotate(-90)"/><rect class="cls-2" x="64.22" y="44.04" width="8.32" height="8.32" transform="translate(20.18 116.58) rotate(-90)"/><rect class="cls-2" x="55.9" y="44.04" width="8.32" height="8.32" transform="translate(11.86 108.26) rotate(-90)"/><rect class="cls-2" x="72.54" y="44.04" width="8.32" height="8.32" transform="translate(28.5 124.89) rotate(-90)"/><rect class="cls-2" x="124.63" y="84.56" width="8.32" height="8.32" transform="translate(40.07 217.51) rotate(-90)"/><rect class="cls-2" x="120.48" y="76.25" width="8.32" height="8.32" transform="translate(44.23 205.04) rotate(-90)"/><rect class="cls-2" x="116.32" y="67.93" width="8.32" height="8.32" transform="translate(48.39 192.56) rotate(-90)"/><rect class="cls-2" x="112.16" y="59.64" width="8.32" height="8.32" transform="translate(52.52 180.11) rotate(-90)"/><rect class="cls-2" x="108" y="51.34" width="8.32" height="8.32" transform="translate(56.66 167.66) rotate(-90)"/><rect class="cls-2" x="102.87" y="58.67" width="8.32" height="8.32" transform="translate(44.2 169.86) rotate(-90)"/><rect class="cls-2" x="103.84" y="59.64" width="8.32" height="8.32" transform="translate(44.21 171.8) rotate(-90)"/><rect class="cls-2" x="95.53" y="63.79" width="8.32" height="8.32" transform="translate(31.73 167.64) rotate(-90)"/><rect class="cls-2" x="108" y="67.93" width="8.32" height="8.32" transform="translate(40.07 184.25) rotate(-90)"/><rect class="cls-2" x="99.69" y="67.93" width="8.32" height="8.32" transform="translate(31.76 175.93) rotate(-90)"/><rect class="cls-2" x="91.37" y="67.93" width="8.32" height="8.32" transform="translate(23.44 167.61) rotate(-90)"/><rect class="cls-2" x="83.05" y="67.93" width="8.32" height="8.32" transform="translate(15.12 159.3) rotate(-90)"/><rect class="cls-2" x="78.9" y="72.09" width="8.32" height="8.32" transform="translate(6.81 159.3) rotate(-90)"/><rect class="cls-2" x="112.16" y="76.25" width="8.32" height="8.32" transform="translate(35.91 196.72) rotate(-90)"/><rect class="cls-2" x="103.84" y="76.25" width="8.32" height="8.32" transform="translate(27.6 188.41) rotate(-90)"/><rect class="cls-2" x="95.53" y="76.25" width="8.32" height="8.32" transform="translate(19.28 180.09) rotate(-90)"/><rect class="cls-2" x="87.21" y="76.25" width="8.32" height="8.32" transform="translate(10.97 171.77) rotate(-90)"/><rect class="cls-2" x="78.9" y="76.25" width="8.32" height="8.32" transform="translate(2.65 163.46) rotate(-90)"/><rect class="cls-2" x="70.58" y="76.25" width="8.32" height="8.32" transform="translate(-5.67 155.14) rotate(-90)"/><rect class="cls-2" x="62.26" y="76.25" width="8.32" height="8.32" transform="translate(-13.98 146.82) rotate(-90)"/><rect class="cls-2" x="62.26" y="72.09" width="8.32" height="8.32" transform="translate(-9.82 142.67) rotate(-90)"/><rect class="cls-2" x="58.12" y="67.94" width="8.32" height="8.32" transform="translate(-9.82 134.37) rotate(-90)"/><rect class="cls-2" x="53.95" y="76.25" width="8.32" height="8.32" transform="translate(-22.3 138.51) rotate(-90)"/><rect class="cls-2" x="53.95" y="72.09" width="8.32" height="8.32" transform="translate(-18.14 134.35) rotate(-90)"/><rect class="cls-2" x="47.76" y="78.38" width="8.32" height="8.32" transform="translate(-30.61 134.45) rotate(-90)"/><rect class="cls-2" x="116.32" y="84.56" width="8.32" height="8.32" transform="translate(31.76 209.2) rotate(-90)"/><rect class="cls-2" x="108" y="84.56" width="8.32" height="8.32" transform="translate(23.44 200.88) rotate(-90)"/><rect class="cls-2" x="99.69" y="84.56" width="8.32" height="8.32" transform="translate(15.12 192.56) rotate(-90)"/><rect class="cls-2" x="91.37" y="84.56" width="8.32" height="8.32" transform="translate(6.81 184.25) rotate(-90)"/><rect class="cls-2" x="83.05" y="84.56" width="8.32" height="8.32" transform="translate(-1.51 175.93) rotate(-90)"/><rect class="cls-2" x="74.74" y="84.56" width="8.32" height="8.32" transform="translate(-9.83 167.61) rotate(-90)"/><rect class="cls-2" x="66.42" y="84.56" width="8.32" height="8.32" transform="translate(-18.14 159.3) rotate(-90)"/><rect class="cls-2" x="58.1" y="84.56" width="8.32" height="8.32" transform="translate(-26.46 150.98) rotate(-90)"/><rect class="cls-2" x="49.79" y="84.56" width="8.32" height="8.32" transform="translate(-34.77 142.66) rotate(-90)"/><rect class="cls-2" x="41.47" y="84.56" width="8.32" height="8.32" transform="translate(-43.09 134.35) rotate(-90)"/><rect class="cls-2" x="68.38" y="48.2" width="8.32" height="8.32" transform="translate(20.18 124.89) rotate(-90)"/><rect class="cls-2" x="68.38" y="39.88" width="8.32" height="8.32" transform="translate(28.5 116.58) rotate(-90)"/><rect class="cls-2" x="60.06" y="48.2" width="8.32" height="8.32" transform="translate(11.86 116.58) rotate(-90)"/><rect class="cls-2" x="60.06" y="39.88" width="8.32" height="8.32" transform="translate(20.18 108.26) rotate(-90)"/><rect class="cls-2" x="64.22" y="52.36" width="8.32" height="8.32" transform="translate(11.86 124.89) rotate(-90)"/><rect class="cls-2" x="64.22" y="35.72" width="8.32" height="8.32" transform="translate(28.5 108.26) rotate(-90)"/><rect class="cls-2" x="34.81" width="8.73" height="8.73"/><rect class="cls-2" x="26.08" width="8.73" height="8.73"/><polygon class="cls-3" points="118.64 5.06 117.52 28.76 122.14 35.07 148.35 38.27 152.2 31.1 148.35 26.34 139.61 17.6 130.88 8.87 125.55 5.06 118.64 5.06"/><rect class="cls-2" x="148.35" y="35.07" width="8.73" height="8.73" transform="translate(113.28 192.15) rotate(-90)"/><rect class="cls-2" x="139.61" y="35.07" width="8.73" height="8.73" transform="translate(104.54 183.41) rotate(-90)"/><rect class="cls-2" x="130.88" y="35.07" width="8.73" height="8.73" transform="translate(95.81 174.68) rotate(-90)"/><rect class="cls-2" x="122.15" y="35.07" width="8.73" height="8.73" transform="translate(87.08 165.95) rotate(-90)"/><rect class="cls-2" x="113.41" y="26.33" width="8.73" height="8.73" transform="translate(87.08 148.48) rotate(-90)"/><rect class="cls-2" x="113.41" y="17.6" width="8.73" height="8.73" transform="translate(95.81 139.75) rotate(-90)"/><rect class="cls-2" x="113.41" y="8.87" width="8.73" height="8.73" transform="translate(104.54 131.01) rotate(-90)"/><rect class="cls-2" x="139.61" y="17.6" width="8.73" height="8.73" transform="translate(122.01 165.95) rotate(-90)"/><rect class="cls-2" x="148.35" y="26.33" width="8.73" height="8.73" transform="translate(122.01 183.41) rotate(-90)"/><rect class="cls-2" x="130.88" y="8.87" width="8.73" height="8.73" transform="translate(122.01 148.48) rotate(-90)"/><rect class="cls-2" x="122.15" y="0.13" width="8.73" height="8.73" transform="translate(122.01 131.01) rotate(-90)"/><rect class="cls-2" x="113.41" y="0.13" width="8.73" height="8.73" transform="translate(113.28 122.28) rotate(-90)"/><rect class="cls-3" x="8.73" y="87" width="104.8" height="34.93"/><rect class="cls-2" x="43.67" y="121.94" width="8.73" height="8.73" transform="translate(-78.27 174.34) rotate(-90)"/><rect class="cls-2" x="43.67" y="78.27" width="8.73" height="8.73" transform="translate(-34.6 130.67) rotate(-90)"/><rect class="cls-2" x="52.4" y="78.27" width="8.73" height="8.73" transform="translate(-25.87 139.4) rotate(-90)"/><rect class="cls-2" x="61.14" y="78.27" width="8.73" height="8.73" transform="translate(-17.13 148.14) rotate(-90)"/><rect class="cls-2" x="69.87" y="78.27" width="8.73" height="8.73" transform="translate(-8.4 156.87) rotate(-90)"/><rect class="cls-2" x="78.6" y="78.27" width="8.73" height="8.73" transform="translate(0.33 165.6) rotate(-90)"/><rect class="cls-2" x="87.34" y="78.27" width="8.73" height="8.73" transform="translate(9.07 174.34) rotate(-90)"/><rect class="cls-2" x="96.07" y="78.27" width="8.73" height="8.73" transform="translate(17.8 183.07) rotate(-90)"/><rect class="cls-2" x="104.8" y="78.27" width="8.73" height="8.73" transform="translate(26.54 191.8) rotate(-90)"/><rect class="cls-2" x="113.54" y="87" width="8.73" height="8.73" transform="translate(26.54 209.27) rotate(-90)"/><rect class="cls-2" x="113.54" y="95.74" width="8.73" height="8.73" transform="translate(17.8 218.01) rotate(-90)"/><rect class="cls-2" x="113.54" y="104.47" width="8.73" height="8.73" transform="translate(9.07 226.74) rotate(-90)"/><rect class="cls-2" x="113.54" y="113.2" width="8.73" height="8.73" transform="translate(0.33 235.47) rotate(-90)"/><rect class="cls-2" x="104.8" y="121.94" width="8.73" height="8.73" transform="translate(-17.13 235.47) rotate(-90)"/><rect class="cls-2" x="96.07" y="121.94" width="8.73" height="8.73" transform="translate(-25.87 226.74) rotate(-90)"/><rect class="cls-2" x="87.34" y="121.94" width="8.73" height="8.73" transform="translate(-34.6 218.01) rotate(-90)"/><rect class="cls-2" x="78.6" y="121.94" width="8.73" height="8.73" transform="translate(-43.33 209.27) rotate(-90)"/><rect class="cls-2" x="69.87" y="121.94" width="8.73" height="8.73" transform="translate(-52.07 200.54) rotate(-90)"/><rect class="cls-2" x="61.14" y="121.94" width="8.73" height="8.73" transform="translate(-60.8 191.8) rotate(-90)"/><rect class="cls-2" x="52.4" y="121.94" width="8.73" height="8.73" transform="translate(-69.53 183.07) rotate(-90)"/><rect class="cls-2" x="43.67" y="121.94" width="8.73" height="8.73" transform="translate(-78.27 174.34) rotate(-90)"/><rect class="cls-2" x="34.93" y="121.94" width="8.73" height="8.73" transform="translate(-87 165.6) rotate(-90)"/><rect class="cls-2" x="26.2" y="121.94" width="8.73" height="8.73" transform="translate(-95.74 156.87) rotate(-90)"/><rect class="cls-2" x="17.47" y="121.94" width="8.73" height="8.73" transform="translate(-104.47 148.14) rotate(-90)"/><rect class="cls-2" x="8.73" y="121.94" width="8.73" height="8.73" transform="translate(-113.2 139.4) rotate(-90)"/><rect class="cls-2" y="113.2" width="8.73" height="8.73" transform="translate(-113.2 121.94) rotate(-90)"/><rect class="cls-2" y="104.47" width="8.73" height="8.73" transform="translate(-104.47 113.2) rotate(-90)"/><rect class="cls-2" y="95.74" width="8.73" height="8.73" transform="translate(-95.74 104.47) rotate(-90)"/><rect class="cls-2" y="87" width="8.73" height="8.73" transform="translate(-87 95.74) rotate(-90)"/><rect class="cls-2" x="8.73" y="78.27" width="8.73" height="8.73" transform="translate(-69.53 95.74) rotate(-90)"/><rect class="cls-2" x="17.47" y="78.27" width="8.73" height="8.73" transform="translate(-60.8 104.47) rotate(-90)"/><rect class="cls-1" x="8.73" y="95.74" width="8.73" height="8.73" transform="translate(-87 113.2) rotate(-90)"/><rect class="cls-1" x="8.73" y="113.2" width="8.73" height="8.73" transform="translate(-104.47 130.67) rotate(-90)"/><rect class="cls-1" x="26.2" y="113.2" width="8.73" height="8.73" transform="translate(-87 148.14) rotate(-90)"/><rect class="cls-2" x="26.2" y="78.27" width="8.73" height="8.73" transform="translate(-52.07 113.2) rotate(-90)"/><rect class="cls-2" x="34.93" y="78.27" width="8.73" height="8.73" transform="translate(-43.33 121.94) rotate(-90)"/><path class="cls-4" d="M22.32,116.82v-3.53h7.06V95.65H22.32V92.12H43.49v3.53H36.44v17.64h7.05v3.53Z"/><path class="cls-4" d="M47,116.82V92.12h7.06v3.53h3.53v3.53h3.53V95.65h3.52V92.12h7.06v24.7H64.66V102.7H61.14v7.06H57.61V102.7H54.08v14.12Z"/><path class="cls-4" d="M82.31,116.82v-3.53H78.78v-3.53H75.25V99.18h3.53V95.65h3.53V92.12H100v3.53H85.84v3.53H82.31v10.58h3.53v3.53h7v-7.06H89.36V102.7H100v14.12Z"/></g></g></svg>