<?xml version="1.0" encoding="UTF-8"?><svg xmlns="http://www.w3.org/2000/svg" viewBox="0 0 131.02 122.27"><defs><style>.d{fill:#f5f5f5;}.e{fill:#e0e0e0;}.f{fill:#9b9b9b;}</style></defs><g id="a"/><g id="b"><g id="c"><g><rect class="d" x="8.75" y="34.93" width="113.54" height="78.6"/><rect class="f" x="0" y="26.2" width="8.73" height="8.73" transform="translate(-26.2 34.93) rotate(-90)"/><rect class="f" x="8.73" y="17.47" width="8.73" height="8.73" transform="translate(-8.73 34.93) rotate(-90)"/><rect class="f" x="17.47" y="8.73" width="8.73" height="8.73" transform="translate(8.73 34.93) rotate(-90)"/><rect class="f" x="26.2" y="0" width="8.73" height="8.73" transform="translate(26.2 34.93) rotate(-90)"/><rect class="f" x="34.93" y="0" width="8.73" height="8.73" transform="translate(34.93 43.67) rotate(-90)"/><rect class="f" x="43.67" y="0" width="8.73" height="8.73" transform="translate(43.67 52.4) rotate(-90)"/><rect class="f" x="52.4" y="0" width="8.73" height="8.73" transform="translate(52.4 61.14) rotate(-90)"/><rect class="f" x="61.15" y="8.73" width="8.73" height="8.73" transform="translate(52.41 78.62) rotate(-90)"/><rect class="f" x="69.88" y="17.47" width="8.73" height="8.73" transform="translate(52.41 96.08) rotate(-90)"/><rect class="f" x="78.62" y="26.2" width="8.73" height="8.73" transform="translate(52.41 113.55) rotate(-90)"/><rect class="e" x="69.88" y="26.2" width="8.73" height="8.73" transform="translate(43.68 104.82) rotate(-90)"/><rect class="e" x="61.15" y="26.2" width="8.73" height="8.73" transform="translate(34.95 96.08) rotate(-90)"/><rect class="e" x="52.41" y="26.2" width="8.73" height="8.73" transform="translate(26.21 87.35) rotate(-90)"/><rect class="e" x="43.68" y="26.2" width="8.73" height="8.73" transform="translate(17.48 78.62) rotate(-90)"/><rect class="e" x="34.95" y="26.2" width="8.73" height="8.73" transform="translate(8.75 69.88) rotate(-90)"/><rect class="e" x="17.48" y="26.2" width="8.73" height="8.73" transform="translate(-8.72 52.41) rotate(-90)"/><rect class="d" x="39.31" y="-4.37" width="8.73" height="52.4" transform="translate(21.85 65.52) rotate(-90)"/><rect class="d" x="39.31" y="-4.36" width="8.73" height="34.92" transform="translate(30.57 56.78) rotate(-90)"/><rect class="e" x="8.75" y="26.2" width="8.73" height="8.73" transform="translate(-17.45 43.68) rotate(-90)"/><rect class="e" x="8.75" y="34.93" width="8.73" height="8.73" transform="translate(-26.19 52.41) rotate(-90)"/><rect class="e" x="8.75" y="43.67" width="8.73" height="8.73" transform="translate(-34.92 61.15) rotate(-90)"/><rect class="e" x="8.75" y="52.4" width="8.73" height="8.73" transform="translate(-43.65 69.88) rotate(-90)"/><rect class="e" x="8.75" y="61.14" width="8.73" height="8.73" transform="translate(-52.39 78.62) rotate(-90)"/><rect class="e" x="8.75" y="69.87" width="8.73" height="8.73" transform="translate(-61.12 87.35) rotate(-90)"/><rect class="e" x="17.49" y="69.87" width="8.73" height="8.73" transform="translate(-52.37 96.1) rotate(-90)"/><rect class="e" x="17.49" y="52.4" width="8.73" height="8.73" transform="translate(-34.91 78.63) rotate(-90)"/><rect class="e" x="17.49" y="34.93" width="8.73" height="8.73" transform="translate(-17.44 61.16) rotate(-90)"/><rect class="e" x="8.75" y="78.6" width="8.73" height="8.73" transform="translate(-69.86 96.08) rotate(-90)"/><rect class="e" x="26.2" y="78.6" width="8.73" height="8.73" transform="translate(-52.4 113.54) rotate(-90)"/><rect class="e" x="8.75" y="87.34" width="8.73" height="8.73" transform="translate(-78.59 104.82) rotate(-90)"/><rect class="e" x="17.47" y="87.34" width="8.73" height="8.73" transform="translate(-69.87 113.54) rotate(-90)"/><rect class="e" x="34.95" y="87.34" width="8.73" height="8.73" transform="translate(-52.38 131.02) rotate(-90)"/><rect class="e" x="8.75" y="96.07" width="8.73" height="8.73" transform="translate(-87.32 113.55) rotate(-90)"/><rect class="e" x="26.21" y="96.07" width="8.73" height="8.73" transform="translate(-69.86 131.02) rotate(-90)"/><rect class="e" x="43.68" y="96.07" width="8.73" height="8.73" transform="translate(-52.39 148.48) rotate(-90)"/><rect class="e" x="8.75" y="104.8" width="8.73" height="8.73" transform="translate(-96.06 122.28) rotate(-90)"/><rect class="e" x="17.49" y="104.8" width="8.73" height="8.73" transform="translate(-87.31 131.03) rotate(-90)"/><rect class="e" x="52.42" y="104.8" width="8.73" height="8.73" transform="translate(-52.39 165.95) rotate(-90)"/><rect class="e" x="69.88" y="104.8" width="8.73" height="8.73" transform="translate(-34.92 183.42) rotate(-90)"/><rect class="e" x="87.35" y="104.8" width="8.73" height="8.73" transform="translate(-17.45 200.89) rotate(-90)"/><rect class="e" x="104.82" y="104.8" width="8.73" height="8.73" transform="translate(.01 218.35) rotate(-90)"/><rect class="e" x="34.95" y="104.8" width="8.73" height="8.73" transform="translate(-69.85 148.49) rotate(-90)"/><rect class="f" x="87.35" y="26.2" width="8.73" height="8.73" transform="translate(61.15 122.28) rotate(-90)"/><rect class="f" x="96.08" y="26.2" width="8.73" height="8.73" transform="translate(69.88 131.02) rotate(-90)"/><rect class="f" x="104.82" y="26.2" width="8.73" height="8.73" transform="translate(78.62 139.75) rotate(-90)"/><rect class="f" x="113.55" y="26.2" width="8.73" height="8.73" transform="translate(87.35 148.48) rotate(-90)"/><rect class="f" x="113.55" y="34.93" width="8.73" height="8.73" transform="translate(78.62 157.22) rotate(-90)"/><rect class="f" x="122.28" y="34.93" width="8.73" height="8.73" transform="translate(87.35 165.95) rotate(-90)"/><rect class="f" x="122.28" y="43.67" width="8.73" height="8.73" transform="translate(78.62 174.69) rotate(-90)"/><rect class="f" x="122.28" y="52.4" width="8.73" height="8.73" transform="translate(69.88 183.42) rotate(-90)"/><rect class="f" x="122.28" y="61.14" width="8.73" height="8.73" transform="translate(61.15 192.15) rotate(-90)"/><rect class="f" x="122.28" y="69.87" width="8.73" height="8.73" transform="translate(52.41 200.89) rotate(-90)"/><rect class="f" x="122.28" y="78.6" width="8.73" height="8.73" transform="translate(43.68 209.62) rotate(-90)"/><rect class="f" x="122.28" y="87.34" width="8.73" height="8.73" transform="translate(34.95 218.35) rotate(-90)"/><rect class="f" x="122.28" y="96.07" width="8.73" height="8.73" transform="translate(26.21 227.09) rotate(-90)"/><rect class="f" x="113.55" y="113.54" width="8.73" height="8.73" transform="translate(.01 235.82) rotate(-90)"/><rect class="f" x="104.82" y="113.54" width="8.73" height="8.73" transform="translate(-8.72 227.09) rotate(-90)"/><rect class="f" x="96.08" y="113.54" width="8.73" height="8.73" transform="translate(-17.45 218.35) rotate(-90)"/><rect class="f" x="87.35" y="113.54" width="8.73" height="8.73" transform="translate(-26.19 209.62) rotate(-90)"/><rect class="f" x="78.62" y="113.54" width="8.73" height="8.73" transform="translate(-34.92 200.89) rotate(-90)"/><rect class="f" x="69.88" y="113.54" width="8.73" height="8.73" transform="translate(-43.65 192.15) rotate(-90)"/><rect class="f" x="61.15" y="113.54" width="8.73" height="8.73" transform="translate(-52.39 183.42) rotate(-90)"/><rect class="f" x="52.41" y="113.54" width="8.73" height="8.73" transform="translate(-61.12 174.69) rotate(-90)"/><rect class="f" x="43.68" y="113.54" width="8.73" height="8.73" transform="translate(-69.86 165.95) rotate(-90)"/><rect class="f" x="34.95" y="113.54" width="8.73" height="8.73" transform="translate(-78.59 157.22) rotate(-90)"/><rect class="f" x="26.21" y="113.54" width="8.73" height="8.73" transform="translate(-87.32 148.48) rotate(-90)"/><rect class="f" x="17.48" y="113.54" width="8.73" height="8.73" transform="translate(-96.06 139.75) rotate(-90)"/><rect class="f" x="8.75" y="113.54" width="8.73" height="8.73" transform="translate(-104.79 131.02) rotate(-90)"/><rect class="f" x="0" y="104.8" width="8.73" height="8.73" transform="translate(-104.8 113.54) rotate(-90)"/><rect class="f" x="0" y="96.07" width="8.73" height="8.73" transform="translate(-96.07 104.8) rotate(-90)"/><rect class="f" x="0" y="87.34" width="8.73" height="8.73" transform="translate(-87.34 96.07) rotate(-90)"/><rect class="f" x="0" y="78.6" width="8.73" height="8.73" transform="translate(-78.6 87.34) rotate(-90)"/><rect class="f" x="0" y="69.87" width="8.73" height="8.73" transform="translate(-69.87 78.6) rotate(-90)"/><rect class="f" x="0" y="61.14" width="8.73" height="8.73" transform="translate(-61.14 69.87) rotate(-90)"/><rect class="f" x="0" y="52.4" width="8.73" height="8.73" transform="translate(-52.4 61.14) rotate(-90)"/><rect class="f" x="0" y="43.67" width="8.73" height="8.73" transform="translate(-43.67 52.4) rotate(-90)"/><rect class="f" x="0" y="34.93" width="8.73" height="8.73" transform="translate(-34.93 43.67) rotate(-90)"/><rect class="f" x="122.28" y="104.8" width="8.73" height="8.73" transform="translate(17.48 235.82) rotate(-90)"/><rect class="e" x="26.21" y="26.2" width="8.73" height="8.73" transform="translate(.01 61.15) rotate(-90)"/><rect class="e" x="17.48" y="17.47" width="8.73" height="8.73" transform="translate(.01 43.68) rotate(-90)"/><rect class="e" x="26.21" y="8.73" width="8.73" height="8.73" transform="translate(17.48 43.68) rotate(-90)"/></g></g></g></svg>