<?xml version="1.0" encoding="UTF-8"?><svg xmlns="http://www.w3.org/2000/svg" viewBox="0 0 157.08 154.87"><defs><style>.d{fill:#f5f5f5;}.e{fill:#e0e0e0;}.f{fill:#9b9b9b;}.g{fill:#888;}</style></defs><g id="a"/><g id="b"><g id="c"><g><path class="d" d="M131.53,33.58l-6.7-29.08H26.08V146.14h124.01l2.12-115.04c-9.34-4.33-20.67,2.48-20.67,2.48Z"/><rect class="f" x="122.15" y="0" width="8.73" height="8.73"/><rect class="f" x="113.41" y="0" width="8.73" height="8.73"/><rect class="f" x="104.68" y="0" width="8.73" height="8.73"/><rect class="f" x="95.94" y="0" width="8.73" height="8.73"/><rect class="f" x="87.21" y="0" width="8.73" height="8.73"/><rect class="f" x="78.48" y="0" width="8.73" height="8.73"/><rect class="f" x="69.74" y="0" width="8.73" height="8.73"/><rect class="f" x="61.01" y="0" width="8.73" height="8.73"/><rect class="f" x="52.28" y="0" width="8.73" height="8.73"/><rect class="f" x="43.54" y="0" width="8.73" height="8.73"/><rect class="f" x="148.35" y="52.47" width="8.73" height="8.73" transform="translate(209.55 -95.88) rotate(90)"/><rect class="f" x="148.35" y="43.73" width="8.73" height="8.73" transform="translate(200.81 -104.61) rotate(90)"/><rect class="f" x="148.35" y="35" width="8.73" height="8.73" transform="translate(192.08 -113.34) rotate(90)"/><rect class="f" x="148.35" y="26.27" width="8.73" height="8.73" transform="translate(183.35 -122.08) rotate(90)"/><rect class="f" x="148.35" y="61.2" width="8.73" height="8.73" transform="translate(218.28 -87.14) rotate(90)"/><rect class="f" x="148.35" y="69.94" width="8.73" height="8.73" transform="translate(227.02 -78.41) rotate(90)"/><rect class="f" x="148.35" y="128.67" width="8.73" height="8.73" transform="translate(285.75 -19.68) rotate(90)"/><rect class="f" x="148.35" y="119.94" width="8.73" height="8.73" transform="translate(277.02 -28.41) rotate(90)"/><rect class="f" x="148.35" y="111.2" width="8.73" height="8.73" transform="translate(268.28 -37.14) rotate(90)"/><rect class="f" x="148.35" y="102.47" width="8.73" height="8.73" transform="translate(259.55 -45.88) rotate(90)"/><rect class="f" x="148.35" y="93.73" width="8.73" height="8.73" transform="translate(250.81 -54.61) rotate(90)"/><rect class="f" x="148.35" y="85" width="8.73" height="8.73" transform="translate(242.08 -63.34) rotate(90)"/><rect class="f" x="148.35" y="76.27" width="8.73" height="8.73" transform="translate(233.35 -72.08) rotate(90)"/><rect class="f" x="148.35" y="137.4" width="8.73" height="8.73" transform="translate(294.48 -10.94) rotate(90)"/><rect class="f" x="17.34" y="52.47" width="8.73" height="8.73" transform="translate(78.54 35.13) rotate(90)"/><rect class="f" x="17.34" y="43.73" width="8.73" height="8.73" transform="translate(69.81 26.39) rotate(90)"/><rect class="f" x="17.34" y="35" width="8.73" height="8.73" transform="translate(61.08 17.66) rotate(90)"/><rect class="f" x="17.34" y="26.27" width="8.73" height="8.73" transform="translate(52.34 8.93) rotate(90)"/><rect class="f" x="17.34" y="17.53" width="8.73" height="8.73" transform="translate(43.61 .19) rotate(90)"/><rect class="f" x="17.34" y="8.8" width="8.73" height="8.73" transform="translate(34.88 -8.54) rotate(90)"/><rect class="f" x="17.34" y="61.2" width="8.73" height="8.73" transform="translate(87.28 43.86) rotate(90)"/><rect class="f" x="17.34" y="69.94" width="8.73" height="8.73" transform="translate(96.01 52.59) rotate(90)"/><rect class="f" x="17.34" y="128.67" width="8.73" height="8.73" transform="translate(154.74 111.33) rotate(90)"/><rect class="f" x="17.34" y="137.4" width="8.73" height="8.73" transform="translate(163.48 120.06) rotate(90)"/><rect class="f" x="122.15" y="146.14" width="8.73" height="8.73"/><rect class="f" x="113.41" y="146.14" width="8.73" height="8.73"/><rect class="f" x="104.68" y="146.14" width="8.73" height="8.73"/><rect class="f" x="95.94" y="146.14" width="8.73" height="8.73"/><rect class="f" x="87.21" y="146.14" width="8.73" height="8.73"/><rect class="f" x="78.48" y="146.14" width="8.73" height="8.73"/><rect class="f" x="69.74" y="146.14" width="8.73" height="8.73"/><rect class="f" x="61.01" y="146.14" width="8.73" height="8.73"/><rect class="f" x="52.28" y="146.14" width="8.73" height="8.73"/><rect class="f" x="43.54" y="146.14" width="8.73" height="8.73"/><rect class="f" x="34.81" y="146.14" width="8.73" height="8.73"/><rect class="f" x="26.08" y="146.14" width="8.73" height="8.73"/><rect class="f" x="130.88" y="146.14" width="8.73" height="8.73"/><rect class="f" x="139.61" y="146.14" width="8.73" height="8.73"/><rect class="e" x="26.08" y="8.8" width="8.73" height="8.73" transform="translate(17.27 43.61) rotate(-90)"/><rect class="e" x="26.08" y="17.53" width="8.73" height="8.73" transform="translate(8.54 52.34) rotate(-90)"/><rect class="e" x="26.08" y="26.27" width="8.73" height="8.73" transform="translate(-.19 61.08) rotate(-90)"/><rect class="e" x="26.08" y="35" width="8.73" height="8.73" transform="translate(-8.93 69.81) rotate(-90)"/><rect class="e" x="26.08" y="43.73" width="8.73" height="8.73" transform="translate(-17.66 78.54) rotate(-90)"/><rect class="e" x="26.08" y="52.47" width="8.73" height="8.73" transform="translate(-26.39 87.28) rotate(-90)"/><rect class="e" x="26.08" y="61.2" width="8.73" height="8.73" transform="translate(-35.13 96.01) rotate(-90)"/><rect class="e" x="26.08" y="69.94" width="8.73" height="8.73" transform="translate(-43.86 104.74) rotate(-90)"/><rect class="e" x="26.08" y="128.67" width="8.73" height="8.73" transform="translate(-102.59 163.48) rotate(-90)"/><rect class="e" x="26.08" y="137.4" width="8.73" height="8.73" transform="translate(-111.33 172.21) rotate(-90)"/><rect class="e" x="139.61" y="137.4" width="8.73" height="8.73" transform="translate(2.21 285.75) rotate(-90)"/><rect class="e" x="121.87" y="137.4" width="8.73" height="8.73" transform="translate(-15.53 268.01) rotate(-90)"/><rect class="e" x="104.13" y="137.4" width="8.73" height="8.73" transform="translate(-33.28 250.26) rotate(-90)"/><rect class="e" x="86.38" y="137.4" width="8.73" height="8.73" transform="translate(-51.02 232.52) rotate(-90)"/><rect class="e" x="68.64" y="137.4" width="8.73" height="8.73" transform="translate(-68.76 214.78) rotate(-90)"/><rect class="e" x="50.9" y="137.4" width="8.73" height="8.73" transform="translate(-86.51 197.03) rotate(-90)"/><rect class="e" x="42.17" y="128.67" width="8.73" height="8.73" transform="translate(-86.5 179.57) rotate(-90)"/><rect class="e" x="59.77" y="128.67" width="8.73" height="8.73" transform="translate(-68.9 197.17) rotate(-90)"/><rect class="e" x="77.51" y="128.67" width="8.73" height="8.73" transform="translate(-51.16 214.91) rotate(-90)"/><rect class="e" x="33.44" y="137.4" width="8.73" height="8.73" transform="translate(-103.97 179.57) rotate(-90)"/><rect class="e" x="33.44" y="69.94" width="8.73" height="8.73" transform="translate(-36.5 112.11) rotate(-90)"/><rect class="e" x="33.44" y="52.47" width="8.73" height="8.73" transform="translate(-19.03 94.64) rotate(-90)"/><rect class="e" x="33.44" y="35" width="8.73" height="8.73" transform="translate(-1.56 77.17) rotate(-90)"/><rect class="e" x="33.44" y="17.53" width="8.73" height="8.73" transform="translate(15.9 59.7) rotate(-90)"/><g><rect class="e" x="67.42" y="83.37" width="9.31" height="9.31" transform="translate(-15.95 160.1) rotate(-90)"/><rect class="e" x="48.52" y="83.37" width="9.31" height="9.31" transform="translate(-34.86 141.2) rotate(-90)"/><rect class="f" x="64.22" y="44.04" width="8.32" height="8.32" transform="translate(20.18 116.58) rotate(-90)"/><rect class="f" x="55.9" y="44.04" width="8.32" height="8.32" transform="translate(11.86 108.26) rotate(-90)"/><rect class="f" x="72.54" y="44.04" width="8.32" height="8.32" transform="translate(28.5 124.89) rotate(-90)"/><rect class="f" x="124.63" y="84.56" width="8.32" height="8.32" transform="translate(40.07 217.51) rotate(-90)"/><rect class="f" x="120.48" y="76.25" width="8.32" height="8.32" transform="translate(44.23 205.04) rotate(-90)"/><rect class="f" x="116.32" y="67.93" width="8.32" height="8.32" transform="translate(48.39 192.56) rotate(-90)"/><rect class="f" x="112.16" y="59.64" width="8.32" height="8.32" transform="translate(52.52 180.11) rotate(-90)"/><rect class="f" x="106.04" y="54.12" width="8.32" height="9.12" transform="translate(51.52 168.87) rotate(-90)"/><rect class="f" x="103.49" y="56.06" width="13.41" height="14.65" transform="translate(46.81 173.58) rotate(-90)"/><rect class="f" x="99.84" y="59.64" width="8.32" height="8.32" transform="translate(40.21 167.8) rotate(-90)"/><rect class="f" x="95.53" y="63.79" width="8.32" height="8.32" transform="translate(31.73 167.64) rotate(-90)"/><rect class="f" x="108" y="67.93" width="8.32" height="8.32" transform="translate(40.07 184.25) rotate(-90)"/><rect class="f" x="99.69" y="67.93" width="8.32" height="8.32" transform="translate(31.76 175.93) rotate(-90)"/><rect class="f" x="91.37" y="67.93" width="8.32" height="8.32" transform="translate(23.44 167.61) rotate(-90)"/><rect class="f" x="83.05" y="67.93" width="8.32" height="8.32" transform="translate(15.12 159.3) rotate(-90)"/><rect class="f" x="78.9" y="72.09" width="8.32" height="8.32" transform="translate(6.81 159.3) rotate(-90)"/><rect class="f" x="112.16" y="76.25" width="8.32" height="8.32" transform="translate(35.91 196.72) rotate(-90)"/><rect class="f" x="103.84" y="76.25" width="8.32" height="8.32" transform="translate(27.6 188.41) rotate(-90)"/><rect class="f" x="95.53" y="76.25" width="8.32" height="8.32" transform="translate(19.28 180.09) rotate(-90)"/><rect class="f" x="87.21" y="76.25" width="8.32" height="8.32" transform="translate(10.97 171.77) rotate(-90)"/><rect class="f" x="78.9" y="76.25" width="8.32" height="8.32" transform="translate(2.65 163.46) rotate(-90)"/><rect class="f" x="70.58" y="76.25" width="8.32" height="8.32" transform="translate(-5.67 155.14) rotate(-90)"/><rect class="f" x="62.26" y="76.25" width="8.32" height="8.32" transform="translate(-13.98 146.82) rotate(-90)"/><rect class="f" x="62.26" y="72.09" width="8.32" height="8.32" transform="translate(-9.82 142.67) rotate(-90)"/><rect class="f" x="58.12" y="67.94" width="8.32" height="8.32" transform="translate(-9.82 134.37) rotate(-90)"/><rect class="f" x="53.95" y="76.25" width="8.32" height="8.32" transform="translate(-22.3 138.51) rotate(-90)"/><rect class="f" x="53.95" y="72.09" width="8.32" height="8.32" transform="translate(-18.14 134.35) rotate(-90)"/><rect class="f" x="47.76" y="78.38" width="8.32" height="8.32" transform="translate(-30.61 134.45) rotate(-90)"/><rect class="f" x="116.32" y="84.56" width="8.32" height="8.32" transform="translate(31.76 209.2) rotate(-90)"/><rect class="f" x="108" y="84.56" width="8.32" height="8.32" transform="translate(23.44 200.88) rotate(-90)"/><rect class="f" x="99.69" y="84.56" width="8.32" height="8.32" transform="translate(15.12 192.56) rotate(-90)"/><rect class="f" x="91.37" y="84.56" width="8.32" height="8.32" transform="translate(6.81 184.25) rotate(-90)"/><rect class="f" x="83.05" y="84.56" width="8.32" height="8.32" transform="translate(-1.51 175.93) rotate(-90)"/><rect class="f" x="74.74" y="84.56" width="8.32" height="8.32" transform="translate(-9.83 167.61) rotate(-90)"/><rect class="f" x="66.42" y="84.56" width="8.32" height="8.32" transform="translate(-18.14 159.3) rotate(-90)"/><rect class="f" x="58.1" y="84.56" width="8.32" height="8.32" transform="translate(-26.46 150.98) rotate(-90)"/><rect class="f" x="49.79" y="84.56" width="8.32" height="8.32" transform="translate(-34.77 142.66) rotate(-90)"/><rect class="f" x="41.47" y="84.56" width="8.32" height="8.32" transform="translate(-43.09 134.35) rotate(-90)"/><rect class="f" x="68.38" y="48.2" width="8.32" height="8.32" transform="translate(20.18 124.89) rotate(-90)"/><rect class="f" x="68.38" y="39.88" width="8.32" height="8.32" transform="translate(28.5 116.58) rotate(-90)"/><rect class="f" x="60.06" y="48.2" width="8.32" height="8.32" transform="translate(11.86 116.58) rotate(-90)"/><rect class="f" x="60.06" y="39.88" width="8.32" height="8.32" transform="translate(20.18 108.26) rotate(-90)"/><rect class="f" x="64.22" y="52.36" width="8.32" height="8.32" transform="translate(11.86 124.89) rotate(-90)"/><rect class="f" x="64.22" y="35.72" width="8.32" height="8.32" transform="translate(28.5 108.26) rotate(-90)"/></g><rect class="f" x="34.81" y="0" width="8.73" height="8.73"/><rect class="f" x="26.08" y="0" width="8.73" height="8.73"/><g><polygon class="e" points="118.64 5.06 117.52 28.76 122.15 35.07 148.35 38.27 152.2 31.1 148.35 26.33 139.61 17.6 130.88 8.87 125.55 5.06 118.64 5.06"/><rect class="f" x="148.35" y="35.07" width="8.73" height="8.73" transform="translate(113.28 192.15) rotate(-90)"/><rect class="f" x="139.61" y="35.07" width="8.73" height="8.73" transform="translate(104.54 183.41) rotate(-90)"/><rect class="f" x="130.88" y="35.07" width="8.73" height="8.73" transform="translate(95.81 174.68) rotate(-90)"/><rect class="f" x="122.15" y="35.07" width="8.73" height="8.73" transform="translate(87.08 165.95) rotate(-90)"/><rect class="f" x="113.41" y="26.33" width="8.73" height="8.73" transform="translate(87.08 148.48) rotate(-90)"/><rect class="f" x="113.41" y="17.6" width="8.73" height="8.73" transform="translate(95.81 139.75) rotate(-90)"/><rect class="f" x="113.41" y="8.87" width="8.73" height="8.73" transform="translate(104.54 131.01) rotate(-90)"/><rect class="f" x="139.61" y="17.6" width="8.73" height="8.73" transform="translate(122.01 165.95) rotate(-90)"/><rect class="f" x="148.35" y="26.33" width="8.73" height="8.73" transform="translate(122.01 183.41) rotate(-90)"/><rect class="f" x="130.88" y="8.87" width="8.73" height="8.73" transform="translate(122.01 148.48) rotate(-90)"/><rect class="f" x="122.15" y=".13" width="8.73" height="8.73" transform="translate(122.01 131.01) rotate(-90)"/><rect class="f" x="113.41" y=".13" width="8.73" height="8.73" transform="translate(113.28 122.28) rotate(-90)"/></g><rect class="e" x="8.73" y="87" width="104.8" height="34.93"/><rect class="f" x="43.67" y="121.94" width="8.73" height="8.73" transform="translate(-78.27 174.34) rotate(-90)"/><rect class="f" x="43.67" y="78.27" width="8.73" height="8.73" transform="translate(-34.6 130.67) rotate(-90)"/><rect class="f" x="52.4" y="78.27" width="8.73" height="8.73" transform="translate(-25.87 139.4) rotate(-90)"/><rect class="f" x="61.14" y="78.27" width="8.73" height="8.73" transform="translate(-17.13 148.14) rotate(-90)"/><rect class="f" x="69.87" y="78.27" width="8.73" height="8.73" transform="translate(-8.4 156.87) rotate(-90)"/><rect class="f" x="78.6" y="78.27" width="8.73" height="8.73" transform="translate(.33 165.6) rotate(-90)"/><rect class="f" x="87.34" y="78.27" width="8.73" height="8.73" transform="translate(9.07 174.34) rotate(-90)"/><rect class="f" x="96.07" y="78.27" width="8.73" height="8.73" transform="translate(17.8 183.07) rotate(-90)"/><rect class="f" x="104.8" y="78.27" width="8.73" height="8.73" transform="translate(26.54 191.8) rotate(-90)"/><rect class="f" x="113.54" y="87" width="8.73" height="8.73" transform="translate(26.54 209.27) rotate(-90)"/><rect class="f" x="113.54" y="95.74" width="8.73" height="8.73" transform="translate(17.8 218.01) rotate(-90)"/><rect class="f" x="113.54" y="104.47" width="8.73" height="8.73" transform="translate(9.07 226.74) rotate(-90)"/><rect class="f" x="113.54" y="113.2" width="8.73" height="8.73" transform="translate(.33 235.47) rotate(-90)"/><rect class="f" x="104.8" y="121.94" width="8.73" height="8.73" transform="translate(-17.13 235.47) rotate(-90)"/><rect class="f" x="96.07" y="121.94" width="8.73" height="8.73" transform="translate(-25.87 226.74) rotate(-90)"/><rect class="f" x="87.34" y="121.94" width="8.73" height="8.73" transform="translate(-34.6 218.01) rotate(-90)"/><rect class="f" x="78.6" y="121.94" width="8.73" height="8.73" transform="translate(-43.33 209.27) rotate(-90)"/><rect class="f" x="69.87" y="121.94" width="8.73" height="8.73" transform="translate(-52.07 200.54) rotate(-90)"/><rect class="f" x="61.14" y="121.94" width="8.73" height="8.73" transform="translate(-60.8 191.8) rotate(-90)"/><rect class="f" x="52.4" y="121.94" width="8.73" height="8.73" transform="translate(-69.53 183.07) rotate(-90)"/><rect class="f" x="43.67" y="121.94" width="8.73" height="8.73" transform="translate(-78.27 174.34) rotate(-90)"/><rect class="f" x="34.93" y="121.94" width="8.73" height="8.73" transform="translate(-87 165.6) rotate(-90)"/><rect class="f" x="26.2" y="121.94" width="8.73" height="8.73" transform="translate(-95.74 156.87) rotate(-90)"/><rect class="f" x="17.47" y="121.94" width="8.73" height="8.73" transform="translate(-104.47 148.14) rotate(-90)"/><rect class="f" x="8.73" y="121.94" width="8.73" height="8.73" transform="translate(-113.2 139.4) rotate(-90)"/><rect class="f" x="0" y="113.2" width="8.73" height="8.73" transform="translate(-113.2 121.94) rotate(-90)"/><rect class="f" x="0" y="104.47" width="8.73" height="8.73" transform="translate(-104.47 113.2) rotate(-90)"/><rect class="f" x="0" y="95.74" width="8.73" height="8.73" transform="translate(-95.74 104.47) rotate(-90)"/><rect class="f" x="0" y="87" width="8.73" height="8.73" transform="translate(-87 95.74) rotate(-90)"/><rect class="f" x="8.73" y="78.27" width="8.73" height="8.73" transform="translate(-69.53 95.74) rotate(-90)"/><rect class="f" x="17.47" y="78.27" width="8.73" height="8.73" transform="translate(-60.8 104.47) rotate(-90)"/><rect class="d" x="8.73" y="95.74" width="8.73" height="8.73" transform="translate(-87 113.2) rotate(-90)"/><rect class="d" x="8.73" y="113.2" width="8.73" height="8.73" transform="translate(-104.47 130.67) rotate(-90)"/><rect class="d" x="26.2" y="113.2" width="8.73" height="8.73" transform="translate(-87 148.14) rotate(-90)"/><rect class="f" x="26.2" y="78.27" width="8.73" height="8.73" transform="translate(-52.07 113.2) rotate(-90)"/><rect class="f" x="34.93" y="78.27" width="8.73" height="8.73" transform="translate(-43.33 121.94) rotate(-90)"/><g><path class="g" d="M22.32,116.82v-3.53h7.06v-17.64h-7.06v-3.53h21.17v3.53h-7.06v17.64h7.06v3.53H22.32Z"/><path class="g" d="M47.02,116.82v-24.7h7.05v3.53h3.53v3.53h3.53v-3.53h3.53v-3.53h7.05v24.7h-7.05v-14.11h-3.53v7.06h-3.53v-7.06h-3.53v14.11h-7.05Z"/><path class="g" d="M82.31,116.82v-3.53h-3.53v-3.53h-3.53v-10.59h3.53v-3.53h3.53v-3.53h17.64v3.53h-14.11v3.53h-3.53v10.59h3.53v3.53h7.05v-7.06h-3.53v-3.53h10.59v14.11h-17.64Z"/></g></g></g></g></svg>