<?xml version="1.0" encoding="UTF-8"?><svg xmlns="http://www.w3.org/2000/svg" viewBox="0 0 300 78.14"><defs><style>.d{fill:#f5f5f5;}.e{fill:#9b9b9b;}</style></defs><g id="a"/><g id="b"><g id="c"><g><g><path class="d" d="M8.26,58.15c-1.87,0-3.5-.67-4.82-2-1.33-1.33-2-2.95-2-4.82V8.26c0-1.87,.67-3.49,2-4.82,1.33-1.33,2.95-2,4.82-2H29.79c1.87,0,3.49,.67,4.82,2,1.33,1.33,2,2.95,2,4.82,0,.16,.04,.2,.08,.24,.11,.1,.18,.12,.28,.12,1.87,0,3.49,.67,4.82,2,1.33,1.33,2,2.95,2,4.82v10.77c0,1.87-.67,3.49-2,4.82-1.33,1.33-2.95,2-4.82,2-.14,0-.17,.03-.21,.08-.1,.11-.15,.2-.15,.27,0,1.87-.67,3.49-2,4.82-1.33,1.33-2.95,2-4.82,2H15.11c-.02,.05-.04,.12-.04,.22v10.98c0,1.88-.69,3.5-2.06,4.81-1.35,1.29-2.95,1.94-4.76,1.94ZM15.43,15.08c-.17,0-.2,.04-.24,.08-.1,.11-.12,.18-.12,.28v10.77c0,.19,.03,.25,.03,.25,.14,.09,.25,.11,.33,.11h14.36c.08,0,.18-.02,.35-.13,0,0,.01-.08,.01-.22V15.44c0-.1-.02-.17-.12-.28-.04-.04-.08-.08-.24-.08H15.43Z"/><path class="d" d="M95.01,58.15c-1.87,0-3.5-.67-4.82-2-1.33-1.33-2-2.95-2-4.82V8.26c0-1.87,.67-3.49,2-4.82,1.33-1.33,2.95-2,4.82-2h26.49c1.87,0,3.49,.67,4.82,2,1.33,1.33,2,2.95,2,4.82s-.67,3.49-2,4.82c-1.33,1.33-2.95,2-4.82,2h-19.31c-.05,0-.18,.04-.35,.16,0,.01,0,.05,0,.12v7.55c.1,.05,.26,.06,.36,.06h15.72c1.87,0,3.49,.67,4.82,2,1.33,1.33,2,2.95,2,4.82s-.67,3.49-2,4.82c-1.33,1.33-2.95,2-4.82,2h-15.72c-.17,0-.29,.03-.36,.08v14.63c0,1.88-.69,3.5-2.05,4.83-1.35,1.32-2.95,1.99-4.77,1.99Z"/><path class="d" d="M138.74,58.15c-1.87,0-3.5-.67-4.82-2-1.33-1.33-2-2.95-2-4.82,0-.12-.02-.19-.05-.22-.18-.14-.28-.14-.31-.14-1.87,0-3.5-.67-4.82-2-1.33-1.32-2-2.95-2-4.82v-14.36c0-1.87,.67-3.49,2-4.82,1.33-1.33,2.95-2,4.82-2,.2,0,.24-.05,.28-.08,.03-.03,.08-.08,.08-.28,0-1.87,.67-3.49,2-4.82,1.33-1.33,2.95-2,4.82-2h14.36c1.87,0,3.49,.67,4.82,2,1.33,1.33,2,2.95,2,4.82s-.67,3.49-2,4.82c-1.33,1.33-2.95,2-4.82,2h-14.36c-.17,0-.2,.04-.24,.08-.1,.11-.12,.18-.12,.28v14.36c0,.11,.02,.16,.02,.17,.2,.16,.31,.19,.34,.19h14.36c1.87,0,3.49,.67,4.82,2,1.33,1.33,2,2.95,2,4.82s-.67,3.49-2,4.82c-1.33,1.33-2.95,2-4.82,2h-14.36Z"/><path class="d" d="M166.74,58.15c-1.87,0-3.5-.67-4.82-2-1.33-1.33-2-2.95-2-4.82V29.79c0-1.87,.67-3.49,2-4.82,1.33-1.33,2.95-2,4.82-2,.17,0,.2-.04,.24-.08,.1-.1,.12-.18,.12-.27,0-1.87,.67-3.49,2-4.82,1.33-1.33,2.95-2,4.82-2h10.77c1.87,0,3.49,.67,4.82,2,1.33,1.33,2,2.95,2,4.82s-.67,3.49-2,4.82c-1.33,1.33-2.95,2-4.82,2h-10.77c-.19,0-.24,.05-.28,.08s-.08,.08-.08,.28v21.53c0,1.87-.67,3.49-2,4.82-1.33,1.33-2.95,2-4.82,2Z"/><path class="d" d="M205.5,58.15c-1.87,0-3.5-.67-4.82-2-1.33-1.33-2-2.95-2-4.82,0-.13-.03-.16-.08-.21-.11-.1-.2-.15-.27-.15-1.87,0-3.5-.67-4.82-2-1.33-1.32-2-2.95-2-4.82v-7.18c0-1.87,.67-3.49,2-4.82s2.95-2,4.82-2h17.95s.1,0,.31-.17c.02-.02,.05-.04,.05-.19s-.03-.17-.05-.19c-.21-.16-.31-.17-.31-.17h-17.94c-1.87,0-3.49-.67-4.82-2-1.33-1.33-2-2.95-2-4.82s.67-3.49,2-4.82c1.33-1.33,2.95-2,4.82-2h17.95c1.87,0,3.49,.67,4.82,2,1.33,1.33,2,2.95,2,4.82,0,.15,.03,.17,.05,.19,.18,.14,.29,.17,.31,.17,1.87,0,3.49,.67,4.82,2,1.33,1.33,2,2.95,2,4.82v21.53c0,1.87-.67,3.49-2,4.82-1.33,1.33-2.95,2-4.82,2h-17.95Zm0-14.36c-.14,0-.16,.03-.21,.08-.1,.11-.15,.2-.15,.27,0,.14,.03,.16,.08,.21,.11,.1,.21,.15,.28,.15h10.77c.07,0,.16-.05,.28-.15,.05-.05,.08-.07,.08-.21,0-.09-.08-.2-.15-.28-.05-.05-.08-.08-.21-.08h-10.77Z"/><path class="d" d="M242.21,58.15c-1.87,0-3.5-.67-4.82-2-1.33-1.33-2-2.95-2-4.82V29.79c0-.16-.04-.2-.08-.24-.1-.1-.18-.12-.28-.12-1.87,0-3.49-.67-4.82-2-1.33-1.33-2-2.95-2-4.82s.67-3.49,2-4.82c1.33-1.33,2.95-2,4.82-2,.17,0,.21-.04,.24-.08,.1-.1,.12-.18,.12-.28,0-1.87,.67-3.49,2-4.82s2.95-2,4.82-2c.08,0,.18,0,.21-.04,.14-.18,.14-.28,.14-.31,0-1.87,.67-3.49,2-4.82,1.33-1.33,2.95-2,4.82-2h7.18c1.87,0,3.49,.67,4.82,2,1.33,1.33,2,2.95,2,4.82s-.67,3.49-2,4.82c-1.33,1.33-2.95,2-4.82,2h-7.18c-.07,0-.18,0-.21,.04-.14,.18-.14,.27-.14,.31,0,.05,.04,.18,.16,.35h0s.08,.01,.19,.01h7.18c1.87,0,3.49,.67,4.82,2,1.33,1.33,2,2.95,2,4.82s-.67,3.49-2,4.82c-1.33,1.33-2.95,2-4.82,2h-7.54v21.89c0,1.87-.67,3.49-2,4.82-1.33,1.33-2.95,2-4.82,2Z"/><path class="d" d="M284.57,58.15c-1.87,0-3.5-.67-4.82-2-1.33-1.33-2-2.95-2-4.82,0-.1-.02-.17-.12-.28-.04-.04-.08-.08-.24-.08-1.87,0-3.5-.67-4.82-2-1.33-1.32-2-2.95-2-4.82v-14.36c0-.13-.03-.22-.12-.32-.02-.02-.12-.04-.24-.04-1.87,0-3.49-.67-4.82-2-1.33-1.33-2-2.95-2-4.82s.67-3.49,2-4.82c1.33-1.33,2.95-2,4.82-2,.12,0,.22-.02,.24-.04,.08-.1,.11-.18,.11-.31v-7.18c0-1.87,.67-3.49,2-4.82,1.33-1.33,2.95-2,4.82-2s3.49,.67,4.82,2c1.33,1.33,2,2.95,2,4.82v7.18c0,.13,.03,.22,.11,.31,.02,.02,.11,.04,.24,.04h7.18c1.87,0,3.49,.67,4.82,2,1.33,1.33,2,2.95,2,4.82s-.67,3.49-2,4.82c-1.33,1.33-2.95,2-4.82,2h-7.18c-.17,0-.2,.04-.24,.08-.1,.11-.12,.18-.12,.28v14.36c0,.2,.05,.24,.08,.27,.04,.04,.08,.08,.28,.08h7.18c1.87,0,3.49,.67,4.82,2,1.33,1.33,2,2.95,2,4.82s-.67,3.49-2,4.82c-1.33,1.33-2.95,2-4.82,2h-7.18Z"/><path class="d" d="M50.61,58.15c-1.88,0-3.5-.69-4.83-2.05-1.32-1.35-1.99-2.98-1.99-4.84V8.26c0-1.87,.67-3.49,2-4.82,1.33-1.33,2.95-2,4.82-2h23.59c1.87,0,3.49,.67,4.82,2,1.33,1.33,2,4.32,2,6.19,0,.2,.05,.24,.08,.28,.03,.03,.08,.08,.28,.08,1.87,0,3.49,1.36,4.82,2.68,1.33,1.33,2,2.95,2,4.82v24.61c0,1.87-.67,3.49-2,4.82-1.33,1.33-2.95,2.68-4.82,2.68-.04,0-.14,0-.31,.15-.04,.03-.04,.13-.04,.21,0,1.87-.67,4.86-2,6.19-1.33,1.33-2.95,2-4.82,2h-23.59Zm7.18-43.07c-.17,0-.2,.04-.24,.08-.1,.11-.12,.18-.12,.28v28.71c0,.1,.02,.17,.12,.28,.04,.04,.08,.08,.24,.08h16.41s.1,0,.31-.17c.02-.02,.05-.04,.05-.19V15.44c0-.1-.02-.17-.12-.28-.04-.04-.08-.08-.24-.08h-16.41Z"/></g><g><path class="e" d="M29.79,2.87c1.48,0,2.75,.53,3.8,1.58,1.05,1.05,1.58,2.32,1.58,3.8,0,.53,.18,.96,.54,1.29,.36,.34,.78,.5,1.26,.5,1.48,0,2.75,.53,3.8,1.58,1.05,1.05,1.58,2.32,1.58,3.8v10.77c0,1.48-.53,2.75-1.58,3.8-1.05,1.05-2.32,1.58-3.8,1.58-.53,0-.96,.19-1.29,.57-.34,.38-.5,.79-.5,1.22,0,1.48-.53,2.75-1.58,3.8-1.05,1.05-2.32,1.58-3.8,1.58H15.08c-.48,0-.84,.17-1.08,.5-.24,.34-.36,.72-.36,1.15v10.98c0,1.48-.54,2.74-1.62,3.77-1.08,1.03-2.33,1.54-3.77,1.54s-2.75-.53-3.8-1.58c-1.05-1.05-1.58-2.32-1.58-3.8V8.26c0-1.48,.53-2.75,1.58-3.8,1.05-1.05,2.32-1.58,3.8-1.58H29.79M15.43,28h14.36c.43,0,.84-.14,1.22-.43,.38-.29,.57-.74,.57-1.36V15.43c0-.48-.17-.9-.5-1.26-.34-.36-.77-.54-1.29-.54H15.43c-.53,0-.96,.18-1.29,.54-.34,.36-.5,.78-.5,1.26v10.77c0,.62,.19,1.08,.57,1.36,.38,.29,.79,.43,1.22,.43M29.79,0H8.26C6.02,0,4,.84,2.42,2.42,.84,4,0,6.02,0,8.26V51.33c0,2.24,.84,4.25,2.42,5.84,1.58,1.58,3.6,2.42,5.83,2.42s4.15-.81,5.75-2.34c1.64-1.56,2.5-3.59,2.5-5.85v-9.76h13.28c2.23,0,4.25-.84,5.84-2.42,1.34-1.34,2.14-2.99,2.36-4.82,1.83-.22,3.48-1.02,4.82-2.36,1.58-1.58,2.42-3.6,2.42-5.84V15.43c0-2.23-.84-4.25-2.42-5.84-1.34-1.34-2.99-2.14-4.82-2.36-.22-1.83-1.02-3.48-2.36-4.82C34.04,.84,32.02,0,29.79,0h0Zm-13.28,16.51h12.2v8.61h-12.2v-8.61h0Z"/><path class="e" d="M121.51,2.87c1.48,0,2.75,.53,3.8,1.58,1.05,1.05,1.58,2.32,1.58,3.8s-.53,2.75-1.58,3.8c-1.05,1.05-2.32,1.58-3.8,1.58h-19.31c-.38,0-.78,.14-1.18,.43-.41,.29-.61,.72-.61,1.29v7.54c0,.48,.17,.85,.5,1.11,.33,.26,.76,.39,1.29,.39h15.72c1.48,0,2.75,.53,3.8,1.58,1.05,1.05,1.58,2.32,1.58,3.8s-.53,2.75-1.58,3.8c-1.05,1.05-2.32,1.58-3.8,1.58h-15.72c-.53,0-.96,.14-1.29,.43-.34,.29-.5,.65-.5,1.08v14.64c0,1.48-.54,2.75-1.62,3.8-1.08,1.05-2.33,1.58-3.77,1.58s-2.75-.53-3.8-1.58c-1.05-1.05-1.58-2.32-1.58-3.8V8.26c0-1.48,.53-2.75,1.58-3.8,1.05-1.05,2.32-1.58,3.8-1.58h26.49M121.51,0h-26.49C92.78,0,90.76,.84,89.18,2.42c-1.58,1.58-2.42,3.6-2.42,5.84V51.33c0,2.24,.84,4.25,2.42,5.84,1.58,1.58,3.6,2.42,5.83,2.42s4.17-.83,5.78-2.4c1.62-1.58,2.48-3.61,2.48-5.86v-13.28h14.65c2.23,0,4.25-.84,5.84-2.42,1.58-1.58,2.42-3.6,2.42-5.84s-.84-4.25-2.42-5.83c-1.59-1.59-3.6-2.42-5.84-2.42h-14.65v-5.02h18.23c2.23,0,4.25-.84,5.84-2.42,1.58-1.58,2.42-3.6,2.42-5.84s-.84-4.25-2.42-5.83C125.76,.84,123.74,0,121.51,0h0Z"/><path class="e" d="M153.1,17.23c1.48,0,2.75,.53,3.8,1.58,1.05,1.05,1.58,2.32,1.58,3.8s-.53,2.75-1.58,3.8c-1.05,1.05-2.32,1.58-3.8,1.58h-14.36c-.53,0-.96,.18-1.29,.54-.34,.36-.5,.78-.5,1.26v14.36c0,.57,.2,1.02,.61,1.33,.41,.31,.8,.47,1.18,.47h14.36c1.48,0,2.75,.53,3.8,1.58,1.05,1.05,1.58,2.32,1.58,3.8s-.53,2.75-1.58,3.8c-1.05,1.05-2.32,1.58-3.8,1.58h-14.36c-1.48,0-2.75-.53-3.8-1.58-1.05-1.05-1.58-2.32-1.58-3.8,0-.57-.19-1.02-.57-1.33-.38-.31-.79-.47-1.22-.47-1.48,0-2.75-.53-3.8-1.58-1.05-1.05-1.58-2.32-1.58-3.8v-14.36c0-1.48,.53-2.75,1.58-3.8,1.05-1.05,2.32-1.58,3.8-1.58,.53,0,.96-.17,1.29-.5,.33-.33,.5-.76,.5-1.29,0-1.48,.53-2.75,1.58-3.8,1.05-1.05,2.32-1.58,3.8-1.58h14.36m0-2.87h-14.36c-2.23,0-4.25,.84-5.84,2.42-1.34,1.34-2.14,2.99-2.36,4.82-1.83,.22-3.48,1.02-4.82,2.36-1.58,1.58-2.42,3.6-2.42,5.84v14.36c0,2.24,.84,4.26,2.42,5.84,1.34,1.34,2.99,2.14,4.82,2.36,.22,1.83,1.02,3.48,2.36,4.82,1.58,1.58,3.6,2.42,5.83,2.42h14.36c2.23,0,4.25-.84,5.84-2.42,1.58-1.58,2.42-3.6,2.42-5.84s-.84-4.25-2.42-5.84c-1.59-1.58-3.6-2.42-5.84-2.42h-13.28v-12.2h13.28c2.23,0,4.25-.84,5.84-2.42,1.58-1.58,2.42-3.6,2.42-5.84s-.84-4.25-2.42-5.84c-1.59-1.59-3.61-2.42-5.84-2.42h0Z"/><path class="e" d="M184.68,17.23c1.48,0,2.75,.53,3.8,1.58,1.05,1.05,1.58,2.32,1.58,3.8s-.53,2.75-1.58,3.8c-1.05,1.05-2.32,1.58-3.8,1.58h-10.77c-.53,0-.96,.17-1.29,.5-.34,.34-.5,.77-.5,1.29v21.53c0,1.48-.53,2.75-1.58,3.8-1.05,1.05-2.32,1.58-3.8,1.58s-2.75-.53-3.8-1.58c-1.05-1.05-1.58-2.32-1.58-3.8V29.79c0-1.48,.53-2.75,1.58-3.8,1.05-1.05,2.32-1.58,3.8-1.58,.53,0,.96-.18,1.29-.54,.33-.36,.5-.78,.5-1.26,0-1.48,.53-2.75,1.58-3.8,1.05-1.05,2.32-1.58,3.8-1.58h10.77m0-2.87h-10.77c-2.23,0-4.25,.84-5.84,2.42-1.34,1.34-2.14,2.99-2.36,4.82-1.83,.22-3.48,1.02-4.82,2.36-1.58,1.58-2.42,3.6-2.42,5.84v21.53c0,2.24,.84,4.25,2.42,5.84,1.58,1.58,3.6,2.42,5.83,2.42s4.25-.84,5.84-2.42c1.58-1.58,2.42-3.6,2.42-5.84V30.87h9.69c2.23,0,4.25-.84,5.84-2.42,1.58-1.58,2.42-3.6,2.42-5.84s-.84-4.25-2.42-5.84c-1.59-1.59-3.61-2.42-5.84-2.42h0Z"/><path class="e" d="M216.27,17.23c1.48,0,2.75,.53,3.8,1.58,1.05,1.05,1.58,2.32,1.58,3.8,0,.57,.2,1.02,.61,1.33,.41,.31,.8,.47,1.18,.47,1.48,0,2.75,.53,3.8,1.58,1.05,1.05,1.58,2.32,1.58,3.8v21.53c0,1.48-.53,2.75-1.58,3.8-1.05,1.05-2.32,1.58-3.8,1.58h-17.95c-1.48,0-2.75-.53-3.8-1.58-1.05-1.05-1.58-2.32-1.58-3.8,0-.53-.19-.96-.57-1.29-.38-.33-.79-.5-1.22-.5-1.48,0-2.75-.53-3.8-1.58-1.05-1.05-1.58-2.32-1.58-3.8v-7.18c0-1.48,.53-2.75,1.58-3.8,1.05-1.05,2.32-1.58,3.8-1.58h17.95c.38,0,.78-.15,1.18-.47,.41-.31,.61-.75,.61-1.33s-.2-1.02-.61-1.33c-.41-.31-.8-.47-1.18-.47h-17.95c-1.48,0-2.75-.53-3.8-1.58-1.05-1.05-1.58-2.32-1.58-3.8s.53-2.75,1.58-3.8c1.05-1.05,2.32-1.58,3.8-1.58h17.95m-10.77,28.71h10.77c.43,0,.84-.17,1.22-.5,.38-.33,.57-.76,.57-1.29,0-.43-.17-.84-.5-1.22-.34-.38-.77-.57-1.29-.57h-10.77c-.53,0-.96,.19-1.29,.57-.34,.38-.5,.79-.5,1.22,0,.53,.19,.96,.57,1.29,.38,.34,.79,.5,1.22,.5m10.77-31.59h-17.95c-2.23,0-4.25,.84-5.84,2.42-1.58,1.58-2.42,3.6-2.42,5.84s.84,4.25,2.42,5.84c.53,.53,1.11,.98,1.74,1.34-.62,.36-1.21,.81-1.74,1.34-1.58,1.58-2.42,3.6-2.42,5.84v7.18c0,2.24,.84,4.26,2.42,5.84,1.34,1.34,2.99,2.14,4.82,2.36,.22,1.83,1.02,3.48,2.36,4.82,1.58,1.58,3.6,2.42,5.83,2.42h17.95c2.23,0,4.25-.84,5.84-2.42,1.58-1.58,2.42-3.6,2.42-5.84V29.79c0-2.23-.84-4.25-2.42-5.83-1.34-1.34-2.99-2.15-4.82-2.36-.22-1.83-1.02-3.48-2.36-4.82-1.59-1.59-3.61-2.42-5.84-2.42h0Z"/><path class="e" d="M256.57,2.87c1.48,0,2.75,.53,3.8,1.58,1.05,1.05,1.58,2.32,1.58,3.8s-.53,2.75-1.58,3.8c-1.05,1.05-2.32,1.58-3.8,1.58h-7.18c-.57,0-1.02,.19-1.33,.57-.31,.38-.47,.79-.47,1.22,0,.38,.14,.78,.43,1.18,.29,.41,.74,.61,1.36,.61h7.18c1.48,0,2.75,.53,3.8,1.58,1.05,1.05,1.58,2.32,1.58,3.8s-.53,2.75-1.58,3.8c-1.05,1.05-2.32,1.58-3.8,1.58h-8.97v23.33c0,1.48-.53,2.75-1.58,3.8-1.05,1.05-2.32,1.58-3.8,1.58s-2.75-.53-3.8-1.58c-1.05-1.05-1.58-2.32-1.58-3.8V29.79c0-.53-.18-.96-.54-1.29-.36-.33-.78-.5-1.26-.5-1.48,0-2.75-.53-3.8-1.58-1.05-1.05-1.58-2.32-1.58-3.8s.53-2.75,1.58-3.8c1.05-1.05,2.32-1.58,3.8-1.58,.53,0,.96-.18,1.29-.54,.33-.36,.5-.78,.5-1.26,0-1.48,.53-2.75,1.58-3.8,1.05-1.05,2.32-1.58,3.8-1.58,.57,0,1.02-.19,1.33-.57,.31-.38,.47-.79,.47-1.22,0-1.48,.53-2.75,1.58-3.8,1.05-1.05,2.32-1.58,3.8-1.58h7.18M256.57,0h-7.18c-2.23,0-4.25,.84-5.84,2.42-1.34,1.34-2.14,2.99-2.36,4.82-1.83,.22-3.48,1.02-4.82,2.36-1.34,1.34-2.14,2.99-2.36,4.82-1.83,.22-3.48,1.02-4.82,2.36-1.58,1.58-2.42,3.6-2.42,5.84s.84,4.25,2.42,5.84c1.32,1.32,2.95,2.13,4.76,2.35v20.52c0,2.24,.84,4.25,2.42,5.84,1.58,1.58,3.6,2.42,5.83,2.42s4.25-.84,5.84-2.42c1.58-1.58,2.42-3.6,2.42-5.84V30.87h6.1c2.23,0,4.25-.84,5.84-2.42,1.58-1.58,2.42-3.6,2.42-5.84s-.84-4.25-2.42-5.84c-.53-.53-1.12-.98-1.74-1.34,.62-.36,1.21-.81,1.74-1.34,1.58-1.58,2.42-3.6,2.42-5.84s-.84-4.25-2.42-5.84C260.82,.84,258.8,0,256.57,0h0Z"/><path class="e" d="M277.39,2.87c1.48,0,2.75,.53,3.8,1.58,1.05,1.05,1.58,2.32,1.58,3.8v7.18c0,.48,.15,.9,.47,1.26,.31,.36,.75,.54,1.33,.54h7.18c1.48,0,2.75,.53,3.8,1.58,1.05,1.05,1.58,2.32,1.58,3.8s-.53,2.75-1.58,3.8c-1.05,1.05-2.32,1.58-3.8,1.58h-7.18c-.53,0-.96,.18-1.29,.54-.34,.36-.5,.78-.5,1.26v14.36c0,.53,.17,.96,.5,1.29,.33,.34,.76,.5,1.29,.5h7.18c1.48,0,2.75,.53,3.8,1.58,1.05,1.05,1.58,2.32,1.58,3.8s-.53,2.75-1.58,3.8c-1.05,1.05-2.32,1.58-3.8,1.58h-7.18c-1.48,0-2.75-.53-3.8-1.58-1.05-1.05-1.58-2.32-1.58-3.8,0-.48-.17-.9-.5-1.26-.34-.36-.77-.54-1.29-.54-1.48,0-2.75-.53-3.8-1.58-1.05-1.05-1.58-2.32-1.58-3.8v-14.36c0-.48-.16-.9-.47-1.26-.31-.36-.75-.54-1.33-.54-1.48,0-2.75-.53-3.8-1.58-1.05-1.05-1.58-2.32-1.58-3.8s.53-2.75,1.58-3.8c1.05-1.05,2.32-1.58,3.8-1.58,.57,0,1.02-.18,1.33-.54,.31-.36,.47-.78,.47-1.26v-7.18c0-1.48,.53-2.75,1.58-3.8,1.05-1.05,2.32-1.58,3.8-1.58M277.39,0c-2.23,0-4.25,.84-5.84,2.42-1.58,1.58-2.42,3.6-2.42,5.84v6.17c-1.8,.23-3.43,1.03-4.76,2.35-1.58,1.58-2.42,3.6-2.42,5.84s.84,4.25,2.42,5.84c1.32,1.32,2.95,2.13,4.76,2.35v13.34c0,2.24,.84,4.26,2.42,5.84,1.34,1.34,2.99,2.14,4.82,2.36,.22,1.83,1.02,3.48,2.36,4.82,1.58,1.58,3.6,2.42,5.84,2.42h7.18c2.23,0,4.25-.84,5.84-2.42,1.58-1.58,2.42-3.6,2.42-5.84s-.84-4.25-2.42-5.84c-1.59-1.58-3.6-2.42-5.84-2.42h-6.1v-12.2h6.1c2.23,0,4.25-.84,5.84-2.42,1.58-1.58,2.42-3.6,2.42-5.84s-.84-4.25-2.42-5.84c-1.59-1.59-3.61-2.42-5.84-2.42h-6.1v-6.1c0-2.23-.84-4.25-2.42-5.84C281.64,.84,279.62,0,277.39,0h0Z"/><path class="e" d="M74.2,2.87c1.94,0,3.51,.9,4.71,2.7,.52,.78,.68,3.09,.67,4.03,0,.54,.16,.98,.5,1.32,.33,.34,.77,.5,1.29,.5,.81,0,1.56,.36,2.24,.87,2.01,1.48,3.14,3.88,3.14,6.38v22.24c0,2.5-1.12,4.91-3.14,6.38-.68,.5-1.43,.86-2.24,.86-.43,0-.84,.16-1.22,.47-.38,.31-.57,.74-.57,1.3-.01,1.09-.26,3.55-.91,4.43-1.17,1.57-2.66,2.36-4.47,2.36h-23.59c-1.48,0-2.75-.54-3.8-1.62-1.05-1.08-1.58-2.36-1.58-3.84V8.34c0-1.39,.5-2.76,1.46-3.77,1.07-1.13,2.38-1.7,3.92-1.7h23.59m-16.41,43.07h16.41c.38,0,.78-.15,1.18-.47,.41-.31,.61-.75,.61-1.33V15.43c0-.48-.17-.9-.5-1.26-.34-.36-.77-.54-1.29-.54h-16.41c-.53,0-.96,.18-1.29,.54-.34,.36-.5,.78-.5,1.26v28.71c0,.48,.17,.9,.5,1.26,.33,.36,.76,.54,1.29,.54M74.2,0h-23.37c-2.24,0-4.43,.81-6.02,2.39s-2.46,3.62-2.46,5.87V51.25c0,2.22,.83,4.24,2.4,5.85,1.58,1.62,3.61,2.48,5.86,2.48h23.35c2.27,0,4.49-.83,6.09-2.44,1.33-1.34,2.13-4.35,2.34-6.17,1.84-.22,3.5-1.73,4.85-3.07,1.54-1.54,2.39-3.63,2.39-5.81V17.49c0-2.18-.86-4.27-2.4-5.81-1.35-1.35-3-2.85-4.84-3.07-.22-1.83-1.02-4.84-2.36-6.18C78.45,.84,76.43,0,74.2,0h0Zm-15.33,16.51h14.25v26.56h-14.25V16.51h0Z"/></g><g><path class="e" d="M126.2,76.68v-1.46h-1.46v-1.46h1.46v-1.46h5.84v-1.46h-5.84v-1.46h7.3v1.46h1.46v5.84h-8.76Zm1.46-1.46h4.38v-1.46h-4.38v1.46Z"/><path class="e" d="M136.43,76.68v-7.3h8.76v1.46h1.46v5.84h-2.92v-5.84h-4.38v5.84h-2.92Z"/><path class="e" d="M149.34,78.14v-1.46h5.84v-1.46h-5.84v-1.46h-1.46v-4.38h2.92v4.38h4.38v-4.38h2.92v7.3h-1.46v1.46h-7.3Z"/><path class="e" d="M162.08,76.68v-5.84h-2.92v-1.46h2.92v-2.92h2.92v2.92h2.92v1.46h-2.92v5.84h-2.92Z"/><path class="e" d="M167.8,76.68v-1.46h2.92v-4.38h-1.46v-1.46h4.38v5.84h2.92v1.46h-8.76Zm2.92-8.76v-1.46h2.92v1.46h-2.92Z"/><path class="e" d="M177.56,76.68v-7.3h8.76v1.46h1.46v5.84h-2.92v-5.84h-1.46v5.84h-2.92v-5.84h-1.46v5.84h-1.46Z"/><path class="e" d="M190.47,76.68v-1.46h-1.46v-4.38h1.46v-1.46h7.3v1.46h1.46v2.92h-7.3v1.46h5.84v1.46h-7.3Zm1.46-4.38h4.38v-1.46h-4.38v1.46Z"/><path class="e" d="M199.59,78.14v-1.46h1.46v-2.92h2.92v2.92h-1.46v1.46h-2.92Z"/><path class="e" d="M211.27,76.68v-1.46h-1.46v-1.46h1.46v-1.46h5.84v-1.46h-5.84v-1.46h7.3v1.46h1.46v5.84h-8.76Zm1.46-1.46h4.38v-1.46h-4.38v1.46Z"/><path class="e" d="M221.5,76.68v-7.3h8.76v1.46h1.46v5.84h-2.92v-5.84h-4.38v5.84h-2.92Z"/><path class="e" d="M234.41,78.14v-1.46h5.84v-1.46h-5.84v-1.46h-1.46v-4.38h2.92v4.38h4.38v-4.38h2.92v7.3h-1.46v1.46h-7.3Z"/><path class="e" d="M247.56,75.22h1.46v1.46h-2.92v-1.46h-1.46v-5.84h2.92v5.84Zm2.92-5.84v5.84h-1.46v-5.84h1.46Zm4.38,0v5.84h-1.46v1.46h-2.92v-1.46h1.46v-5.84h2.92Z"/><path class="e" d="M256.32,76.68v-10.22h2.92v2.92h5.84v1.46h1.46v5.84h-2.92v-5.84h-4.38v5.84h-2.92Z"/><path class="e" d="M269.23,76.68v-1.46h-1.46v-4.38h1.46v-1.46h7.3v1.46h1.46v2.92h-7.3v1.46h5.84v1.46h-7.3Zm1.46-4.38h4.38v-1.46h-4.38v1.46Z"/><path class="e" d="M281.97,70.84h1.46v1.46h-1.46v4.38h-2.92v-7.3h2.92v1.46Zm5.84-1.46v1.46h-4.38v-1.46h4.38Z"/><path class="e" d="M289.8,76.68v-1.46h-1.46v-4.38h1.46v-1.46h7.3v1.46h1.46v2.92h-7.3v1.46h5.84v1.46h-7.3Zm1.46-4.38h4.38v-1.46h-4.38v1.46Z"/></g></g></g></g></svg>