<?xml version="1.0" encoding="UTF-8"?><svg xmlns="http://www.w3.org/2000/svg" viewBox="0 0 195 204.29"><defs><style>.d{fill:#fff;}.e{fill:#f5f5f5;}.f{fill:#e0e0e0;}.g{fill:#9b9b9b;}</style></defs><g id="a"/><g id="b"><g id="c"><g><g><rect class="d" x="1.81" y="6.45" width="191.38" height="191.38"/><rect class="g" x="9.29" y="0" width="9.29" height="9.29" transform="translate(9.29 18.57) rotate(-90)"/><rect class="g" x="18.57" y="0" width="9.29" height="9.29" transform="translate(18.57 27.86) rotate(-90)"/><rect class="g" x="27.86" y="0" width="9.29" height="9.29" transform="translate(27.86 37.14) rotate(-90)"/><rect class="g" x="37.14" y="0" width="9.29" height="9.29" transform="translate(37.14 46.43) rotate(-90)"/><rect class="g" x="46.43" y="0" width="9.29" height="9.29" transform="translate(46.43 55.71) rotate(-90)"/><rect class="g" x="55.71" y="0" width="9.29" height="9.29" transform="translate(55.71 65) rotate(-90)"/><rect class="g" x="65" y="0" width="9.29" height="9.29" transform="translate(65 74.29) rotate(-90)"/><rect class="g" x="74.29" y="0" width="9.29" height="9.29" transform="translate(74.29 83.57) rotate(-90)"/><rect class="g" x="83.57" y="0" width="9.29" height="9.29" transform="translate(83.57 92.86) rotate(-90)"/><rect class="g" x="92.86" y="0" width="9.29" height="9.29" transform="translate(92.86 102.14) rotate(-90)"/><rect class="g" x="102.14" y="0" width="9.29" height="9.29" transform="translate(102.14 111.43) rotate(-90)"/><rect class="g" x="111.43" y="0" width="9.29" height="9.29" transform="translate(111.43 120.71) rotate(-90)"/><rect class="g" x="120.71" y="0" width="9.29" height="9.29" transform="translate(120.71 130) rotate(-90)"/><rect class="g" x="130" y="0" width="9.29" height="9.29" transform="translate(130 139.29) rotate(-90)"/><rect class="g" x="139.29" y="0" width="9.29" height="9.29" transform="translate(139.29 148.57) rotate(-90)"/><rect class="g" x="148.57" y="0" width="9.29" height="9.29" transform="translate(148.57 157.86) rotate(-90)"/><rect class="g" x="157.86" y="0" width="9.29" height="9.29" transform="translate(157.86 167.14) rotate(-90)"/><rect class="g" x="167.14" y="0" width="9.29" height="9.29" transform="translate(167.14 176.43) rotate(-90)"/><rect class="g" x="176.43" y="0" width="9.29" height="9.29" transform="translate(176.43 185.71) rotate(-90)"/><rect class="g" x="185.71" y="9.29" width="9.29" height="9.29" transform="translate(176.43 204.29) rotate(-90)"/><rect class="g" x="185.71" y="18.57" width="9.29" height="9.29" transform="translate(167.14 213.57) rotate(-90)"/><rect class="g" x="185.71" y="27.86" width="9.29" height="9.29" transform="translate(157.86 222.86) rotate(-90)"/><rect class="g" x="185.71" y="37.14" width="9.29" height="9.29" transform="translate(148.57 232.14) rotate(-90)"/><rect class="g" x="185.71" y="46.43" width="9.29" height="9.29" transform="translate(139.29 241.43) rotate(-90)"/><rect class="g" x="185.71" y="55.71" width="9.29" height="9.29" transform="translate(130 250.71) rotate(-90)"/><rect class="g" x="185.71" y="65" width="9.29" height="9.29" transform="translate(120.71 260) rotate(-90)"/><rect class="g" x="185.71" y="74.29" width="9.29" height="9.29" transform="translate(111.43 269.29) rotate(-90)"/><rect class="g" x="185.71" y="83.57" width="9.29" height="9.29" transform="translate(102.14 278.57) rotate(-90)"/><rect class="g" x="185.71" y="92.86" width="9.29" height="9.29" transform="translate(92.86 287.86) rotate(-90)"/><rect class="g" x="185.71" y="102.14" width="9.29" height="9.29" transform="translate(83.57 297.14) rotate(-90)"/><rect class="g" x="185.71" y="111.43" width="9.29" height="9.29" transform="translate(74.29 306.43) rotate(-90)"/><rect class="g" x="185.71" y="120.71" width="9.29" height="9.29" transform="translate(65 315.71) rotate(-90)"/><rect class="g" x="185.71" y="130" width="9.29" height="9.29" transform="translate(55.71 325) rotate(-90)"/><rect class="g" x="185.71" y="139.29" width="9.29" height="9.29" transform="translate(46.43 334.29) rotate(-90)"/><rect class="g" x="185.71" y="148.57" width="9.29" height="9.29" transform="translate(37.14 343.57) rotate(-90)"/><rect class="g" x="185.71" y="157.86" width="9.29" height="9.29" transform="translate(27.86 352.86) rotate(-90)"/><rect class="g" x="185.71" y="167.14" width="9.29" height="9.29" transform="translate(18.57 362.14) rotate(-90)"/><rect class="g" x="185.71" y="176.43" width="9.29" height="9.29" transform="translate(9.29 371.43) rotate(-90)"/><rect class="g" x="185.71" y="185.71" width="9.29" height="9.29" transform="translate(0 380.71) rotate(-90)"/><rect class="g" x="176.43" y="195" width="9.29" height="9.29" transform="translate(-18.57 380.71) rotate(-90)"/><rect class="g" x="167.14" y="195" width="9.29" height="9.29" transform="translate(-27.86 371.43) rotate(-90)"/><rect class="g" x="157.86" y="195" width="9.29" height="9.29" transform="translate(-37.14 362.14) rotate(-90)"/><rect class="g" x="148.57" y="195" width="9.29" height="9.29" transform="translate(-46.43 352.86) rotate(-90)"/><rect class="g" x="139.29" y="195" width="9.29" height="9.29" transform="translate(-55.71 343.57) rotate(-90)"/><rect class="g" x="130" y="195" width="9.29" height="9.29" transform="translate(-65 334.29) rotate(-90)"/><rect class="g" x="120.71" y="195" width="9.29" height="9.29" transform="translate(-74.29 325) rotate(-90)"/><rect class="g" x="111.43" y="195" width="9.29" height="9.29" transform="translate(-83.57 315.71) rotate(-90)"/><rect class="g" x="102.14" y="195" width="9.29" height="9.29" transform="translate(-92.86 306.43) rotate(-90)"/><rect class="g" x="92.86" y="195" width="9.29" height="9.29" transform="translate(-102.14 297.14) rotate(-90)"/><rect class="g" x="83.57" y="195" width="9.29" height="9.29" transform="translate(-111.43 287.86) rotate(-90)"/><rect class="g" x="74.29" y="195" width="9.29" height="9.29" transform="translate(-120.71 278.57) rotate(-90)"/><rect class="g" x="65" y="195" width="9.29" height="9.29" transform="translate(-130 269.29) rotate(-90)"/><rect class="g" x="55.71" y="195" width="9.29" height="9.29" transform="translate(-139.29 260) rotate(-90)"/><rect class="g" x="46.43" y="195" width="9.29" height="9.29" transform="translate(-148.57 250.71) rotate(-90)"/><rect class="g" x="37.14" y="195" width="9.29" height="9.29" transform="translate(-157.86 241.43) rotate(-90)"/><rect class="g" x="27.86" y="195" width="9.29" height="9.29" transform="translate(-167.14 232.14) rotate(-90)"/><rect class="g" x="18.57" y="195" width="9.29" height="9.29" transform="translate(-176.43 222.86) rotate(-90)"/><rect class="g" x="9.29" y="195" width="9.29" height="9.29" transform="translate(-185.71 213.57) rotate(-90)"/><rect class="g" x="0" y="185.71" width="9.29" height="9.29" transform="translate(-185.71 195) rotate(-90)"/><rect class="g" x="0" y="176.43" width="9.29" height="9.29" transform="translate(-176.43 185.71) rotate(-90)"/><rect class="g" x="0" y="167.14" width="9.29" height="9.29" transform="translate(-167.14 176.43) rotate(-90)"/><rect class="g" x="0" y="157.86" width="9.29" height="9.29" transform="translate(-157.86 167.14) rotate(-90)"/><rect class="g" x="0" y="148.57" width="9.29" height="9.29" transform="translate(-148.57 157.86) rotate(-90)"/><rect class="g" x="0" y="139.29" width="9.29" height="9.29" transform="translate(-139.29 148.57) rotate(-90)"/><rect class="g" x="0" y="130" width="9.29" height="9.29" transform="translate(-130 139.29) rotate(-90)"/><rect class="g" x="0" y="120.71" width="9.29" height="9.29" transform="translate(-120.71 130) rotate(-90)"/><rect class="g" x="0" y="111.43" width="9.29" height="9.29" transform="translate(-111.43 120.71) rotate(-90)"/><rect class="g" x="0" y="102.14" width="9.29" height="9.29" transform="translate(-102.14 111.43) rotate(-90)"/><rect class="g" x="0" y="92.86" width="9.29" height="9.29" transform="translate(-92.86 102.14) rotate(-90)"/><rect class="g" x="0" y="83.57" width="9.29" height="9.29" transform="translate(-83.57 92.86) rotate(-90)"/><rect class="g" x="0" y="74.29" width="9.29" height="9.29" transform="translate(-74.29 83.57) rotate(-90)"/><rect class="g" x="0" y="65" width="9.29" height="9.29" transform="translate(-65 74.29) rotate(-90)"/><rect class="g" x="0" y="55.71" width="9.29" height="9.29" transform="translate(-55.71 65) rotate(-90)"/><rect class="g" x="0" y="46.43" width="9.29" height="9.29" transform="translate(-46.43 55.71) rotate(-90)"/><rect class="g" x="0" y="37.14" width="9.29" height="9.29" transform="translate(-37.14 46.43) rotate(-90)"/><rect class="g" x="0" y="27.86" width="9.29" height="9.29" transform="translate(-27.86 37.14) rotate(-90)"/><rect class="g" x="0" y="18.57" width="9.29" height="9.29" transform="translate(-18.57 27.86) rotate(-90)"/><rect class="g" x="0" y="9.29" width="9.29" height="9.29" transform="translate(-9.29 18.57) rotate(-90)"/><rect class="f" x="9.29" y="9.29" width="9.29" height="9.29" transform="translate(0 27.86) rotate(-90)"/><rect class="f" x="9.29" y="27.86" width="9.29" height="9.29" transform="translate(-18.57 46.43) rotate(-90)"/><rect class="f" x="9.29" y="46.43" width="9.29" height="9.29" transform="translate(-37.14 65) rotate(-90)"/><rect class="f" x="9.29" y="65" width="9.29" height="9.29" transform="translate(-55.71 83.57) rotate(-90)"/><rect class="f" x="9.29" y="83.57" width="9.29" height="9.29" transform="translate(-74.29 102.14) rotate(-90)"/><rect class="f" x="9.29" y="102.14" width="9.29" height="9.29" transform="translate(-92.86 120.71) rotate(-90)"/><rect class="f" x="9.29" y="120.71" width="9.29" height="9.29" transform="translate(-111.43 139.29) rotate(-90)"/><rect class="f" x="9.29" y="139.29" width="9.29" height="9.29" transform="translate(-130 157.86) rotate(-90)"/><rect class="f" x="9.29" y="157.86" width="9.29" height="9.29" transform="translate(-148.57 176.43) rotate(-90)"/><rect class="f" x="9.29" y="176.43" width="9.29" height="9.29" transform="translate(-167.14 195) rotate(-90)"/><rect class="f" x="176.43" y="18.57" width="9.29" height="9.29" transform="translate(157.86 204.29) rotate(-90)"/><rect class="f" x="176.43" y="37.14" width="9.29" height="9.29" transform="translate(139.29 222.86) rotate(-90)"/><rect class="f" x="176.43" y="55.71" width="9.29" height="9.29" transform="translate(120.71 241.43) rotate(-90)"/><rect class="f" x="176.43" y="74.29" width="9.29" height="9.29" transform="translate(102.14 260) rotate(-90)"/><rect class="f" x="176.43" y="92.86" width="9.29" height="9.29" transform="translate(83.57 278.57) rotate(-90)"/><rect class="f" x="176.43" y="111.43" width="9.29" height="9.29" transform="translate(65 297.14) rotate(-90)"/><rect class="f" x="176.43" y="130" width="9.29" height="9.29" transform="translate(46.43 315.71) rotate(-90)"/><rect class="f" x="176.43" y="148.57" width="9.29" height="9.29" transform="translate(27.86 334.29) rotate(-90)"/><rect class="f" x="176.43" y="167.14" width="9.29" height="9.29" transform="translate(9.29 352.86) rotate(-90)"/><rect class="f" x="176.43" y="185.71" width="9.29" height="9.29" transform="translate(-9.29 371.43) rotate(-90)"/></g><g><polygon class="e" points="114.67 71.58 114.67 36.64 37.88 37.76 37.88 141.44 75.67 145.36 90.36 167.15 155.99 167.64 157.34 71.58 114.67 71.58"/><rect class="g" x="110.6" y="58.47" width="8.73" height="8.73" transform="translate(52.13 177.81) rotate(-90)"/><rect class="g" x="110.6" y="49.74" width="8.73" height="8.73" transform="translate(60.86 169.08) rotate(-90)"/><rect class="g" x="110.6" y="41.01" width="8.73" height="8.73" transform="translate(69.59 160.34) rotate(-90)"/><rect class="g" x="110.6" y="32.27" width="8.73" height="8.73" transform="translate(78.33 151.61) rotate(-90)"/><rect class="g" x="101.87" y="32.27" width="8.73" height="8.73" transform="translate(69.59 142.87) rotate(-90)"/><rect class="g" x="93.13" y="32.27" width="8.73" height="8.73" transform="translate(60.86 134.14) rotate(-90)"/><rect class="g" x="84.4" y="32.27" width="8.73" height="8.73" transform="translate(52.13 125.41) rotate(-90)"/><rect class="g" x="75.67" y="32.27" width="8.73" height="8.73" transform="translate(43.39 116.67) rotate(-90)"/><rect class="g" x="66.93" y="32.27" width="8.73" height="8.73" transform="translate(34.66 107.94) rotate(-90)"/><rect class="g" x="58.2" y="32.27" width="8.73" height="8.73" transform="translate(25.92 99.21) rotate(-90)"/><rect class="g" x="49.47" y="32.27" width="8.73" height="8.73" transform="translate(17.19 90.47) rotate(-90)"/><rect class="g" x="40.73" y="32.27" width="8.73" height="8.73" transform="translate(8.46 81.74) rotate(-90)"/><rect class="g" x="32" y="41.01" width="8.73" height="8.73" transform="translate(-9.01 81.74) rotate(-90)"/><rect class="g" x="32" y="58.47" width="8.73" height="8.73" transform="translate(-26.48 99.21) rotate(-90)"/><rect class="g" x="32" y="75.94" width="8.73" height="8.73" transform="translate(-43.94 116.67) rotate(-90)"/><rect class="g" x="32" y="93.41" width="8.73" height="8.73" transform="translate(-61.41 134.14) rotate(-90)"/><rect class="g" x="32" y="110.88" width="8.73" height="8.73" transform="translate(-78.88 151.61) rotate(-90)"/><rect class="g" x="32" y="128.34" width="8.73" height="8.73" transform="translate(-96.35 169.08) rotate(-90)"/><rect class="g" x="40.73" y="137.08" width="8.73" height="8.73" transform="translate(-96.35 186.54) rotate(-90)"/><rect class="g" x="49.47" y="137.08" width="8.73" height="8.73" transform="translate(-87.61 195.28) rotate(-90)"/><rect class="g" x="58.2" y="137.08" width="8.73" height="8.73" transform="translate(-78.88 204.01) rotate(-90)"/><rect class="g" x="66.93" y="137.08" width="8.73" height="8.73" transform="translate(-70.14 212.74) rotate(-90)"/><rect class="g" x="136.8" y="163.28" width="8.73" height="8.73" transform="translate(-26.48 308.81) rotate(-90)"/><rect class="g" x="145.53" y="163.28" width="8.73" height="8.73" transform="translate(-17.74 317.55) rotate(-90)"/><rect class="g" x="128.07" y="163.28" width="8.73" height="8.73" transform="translate(-35.21 300.08) rotate(-90)"/><rect class="g" x="119.33" y="163.28" width="8.73" height="8.73" transform="translate(-43.94 291.35) rotate(-90)"/><rect class="g" x="110.6" y="163.28" width="8.73" height="8.73" transform="translate(-52.68 282.61) rotate(-90)"/><rect class="g" x="101.87" y="163.28" width="8.73" height="8.73" transform="translate(-61.41 273.88) rotate(-90)"/><rect class="g" x="93.13" y="163.28" width="8.73" height="8.73" transform="translate(-70.14 265.14) rotate(-90)"/><rect class="g" x="84.4" y="163.28" width="8.73" height="8.73" transform="translate(-78.88 256.41) rotate(-90)"/><rect class="g" x="75.67" y="163.28" width="8.73" height="8.73" transform="translate(-87.61 247.68) rotate(-90)"/><rect class="g" x="80.03" y="154.54" width="8.73" height="8.73" transform="translate(-74.51 243.31) rotate(-90)"/><rect class="g" x="75.67" y="145.81" width="8.73" height="8.73" transform="translate(-70.14 230.21) rotate(-90)"/><rect class="g" x="75.67" y="137.08" width="8.73" height="8.73" transform="translate(-61.41 221.48) rotate(-90)"/><rect class="g" x="75.67" y="128.34" width="8.73" height="8.73" transform="translate(-52.68 212.74) rotate(-90)"/><rect class="g" x="80.03" y="119.61" width="8.73" height="8.73" transform="translate(-39.58 208.38) rotate(-90)"/><rect class="g" x="75.67" y="110.88" width="8.73" height="8.73" transform="translate(-35.21 195.28) rotate(-90)"/><rect class="g" x="80.03" y="102.14" width="8.73" height="8.73" transform="translate(-22.11 190.91) rotate(-90)"/><rect class="g" x="75.67" y="93.41" width="8.73" height="8.73" transform="translate(-17.74 177.81) rotate(-90)"/><rect class="g" x="80.03" y="84.68" width="8.73" height="8.73" transform="translate(-4.64 173.44) rotate(-90)"/><rect class="g" x="75.67" y="75.94" width="8.73" height="8.73" transform="translate(-.28 160.34) rotate(-90)"/><rect class="g" x="110.6" y="67.21" width="8.73" height="8.73" transform="translate(43.39 186.54) rotate(-90)"/><rect class="g" x="119.33" y="67.21" width="8.73" height="8.73" transform="translate(52.13 195.28) rotate(-90)"/><rect class="g" x="128.07" y="67.21" width="8.73" height="8.73" transform="translate(60.86 204.01) rotate(-90)"/><rect class="g" x="136.8" y="67.21" width="8.73" height="8.73" transform="translate(69.59 212.74) rotate(-90)"/><rect class="g" x="154.27" y="75.94" width="8.73" height="8.73" transform="translate(78.33 238.94) rotate(-90)"/><rect class="g" x="150.61" y="84.68" width="8.73" height="8.73" transform="translate(65.93 244.02) rotate(-90)"/><rect class="g" x="154.27" y="93.41" width="8.73" height="8.73" transform="translate(60.86 256.41) rotate(-90)"/><rect class="g" x="150.61" y="102.14" width="8.73" height="8.73" transform="translate(48.46 261.48) rotate(-90)"/><rect class="g" x="154.27" y="110.88" width="8.73" height="8.73" transform="translate(43.39 273.88) rotate(-90)"/><rect class="g" x="150.61" y="119.61" width="8.73" height="8.73" transform="translate(31 278.95) rotate(-90)"/><rect class="g" x="154.27" y="128.34" width="8.73" height="8.73" transform="translate(25.92 291.35) rotate(-90)"/><rect class="g" x="150.61" y="137.08" width="8.73" height="8.73" transform="translate(13.53 296.42) rotate(-90)"/><rect class="g" x="154.27" y="145.81" width="8.73" height="8.73" transform="translate(8.46 308.81) rotate(-90)"/><rect class="g" x="150.61" y="154.54" width="8.73" height="8.73" transform="translate(-3.94 313.89) rotate(-90)"/><rect class="g" x="154.27" y="163.28" width="8.73" height="8.73" transform="translate(-9.01 326.28) rotate(-90)"/><rect class="g" x="150.61" y="67.21" width="8.73" height="8.73" transform="translate(83.4 226.55) rotate(-90)"/><rect class="g" x="145.53" y="67.21" width="8.73" height="8.73" transform="translate(78.33 221.48) rotate(-90)"/><rect class="g" x="80.03" y="67.21" width="8.73" height="8.73" transform="translate(12.82 155.97) rotate(-90)"/><rect class="g" x="84.4" y="67.21" width="8.73" height="8.73" transform="translate(17.19 160.34) rotate(-90)"/><rect class="g" x="93.13" y="67.21" width="8.73" height="8.73" transform="translate(25.92 169.08) rotate(-90)"/><rect class="g" x="101.87" y="67.21" width="8.73" height="8.73" transform="translate(34.66 177.81) rotate(-90)"/><rect class="f" x="40.73" y="41.01" width="8.73" height="8.73" transform="translate(-.28 90.47) rotate(-90)"/><rect class="f" x="40.73" y="58.47" width="8.73" height="8.73" transform="translate(-17.74 107.94) rotate(-90)"/><rect class="f" x="40.73" y="75.94" width="8.73" height="8.73" transform="translate(-35.21 125.41) rotate(-90)"/><rect class="f" x="40.73" y="93.41" width="8.73" height="8.73" transform="translate(-52.68 142.87) rotate(-90)"/><rect class="f" x="40.73" y="110.88" width="8.73" height="8.73" transform="translate(-70.14 160.34) rotate(-90)"/><rect class="f" x="40.73" y="128.34" width="8.73" height="8.73" transform="translate(-87.61 177.81) rotate(-90)"/><rect class="f" x="84.4" y="75.94" width="8.73" height="8.73" transform="translate(8.46 169.08) rotate(-90)"/><rect class="f" x="101.87" y="75.94" width="8.73" height="8.73" transform="translate(25.92 186.54) rotate(-90)"/><rect class="f" x="93.13" y="84.68" width="8.73" height="8.73" transform="translate(8.46 186.54) rotate(-90)"/><rect class="f" x="93.13" y="102.14" width="8.73" height="8.73" transform="translate(-9.01 204.01) rotate(-90)"/><rect class="f" x="93.13" y="119.61" width="8.73" height="8.73" transform="translate(-26.48 221.48) rotate(-90)"/><rect class="f" x="84.4" y="93.41" width="8.73" height="8.73" transform="translate(-9.01 186.54) rotate(-90)"/><rect class="f" x="84.4" y="110.88" width="8.73" height="8.73" transform="translate(-26.48 204.01) rotate(-90)"/><rect class="f" x="84.4" y="128.34" width="8.73" height="8.73" transform="translate(-43.94 221.48) rotate(-90)"/><rect class="f" x="84.4" y="145.81" width="8.73" height="8.73" transform="translate(-61.41 238.94) rotate(-90)"/><rect class="f" x="101.87" y="145.81" width="8.73" height="8.73" transform="translate(-43.94 256.41) rotate(-90)"/><rect class="f" x="58.2" y="128.34" width="8.73" height="8.73" transform="translate(-70.14 195.28) rotate(-90)"/><rect class="f" x="93.13" y="154.54" width="8.73" height="8.73" transform="translate(-61.41 256.41) rotate(-90)"/><rect class="f" x="110.6" y="154.54" width="8.73" height="8.73" transform="translate(-43.94 273.88) rotate(-90)"/><rect class="f" x="128.07" y="154.54" width="8.73" height="8.73" transform="translate(-26.48 291.35) rotate(-90)"/><rect class="f" x="93.13" y="137.08" width="8.73" height="8.73" transform="translate(-43.94 238.94) rotate(-90)"/><rect class="f" x="49.47" y="119.61" width="8.73" height="8.73" transform="translate(-70.14 177.81) rotate(-90)"/><rect class="f" x="49.47" y="102.14" width="8.73" height="8.73" transform="translate(-52.68 160.34) rotate(-90)"/><rect class="f" x="49.47" y="84.68" width="8.73" height="8.73" transform="translate(-35.21 142.87) rotate(-90)"/><rect class="f" x="49.47" y="67.21" width="8.73" height="8.73" transform="translate(-17.74 125.41) rotate(-90)"/><rect class="f" x="49.47" y="49.74" width="8.73" height="8.73" transform="translate(-.28 107.94) rotate(-90)"/><g><rect class="g" x="114.97" y="97.78" width="8.73" height="8.73" transform="translate(17.19 221.48) rotate(-90)"/><rect class="g" x="114.97" y="106.51" width="8.73" height="8.73" transform="translate(8.46 230.21) rotate(-90)"/><rect class="g" x="114.97" y="115.24" width="8.73" height="8.73" transform="translate(-.28 238.94) rotate(-90)"/><rect class="g" x="123.7" y="115.24" width="8.73" height="8.73" transform="translate(8.46 247.68) rotate(-90)"/><rect class="g" x="106.23" y="115.24" width="8.73" height="8.73" transform="translate(-9.01 230.21) rotate(-90)"/><rect class="g" x="97.5" y="115.24" width="8.73" height="8.73" transform="translate(-17.74 221.48) rotate(-90)"/><rect class="g" x="132.43" y="115.24" width="8.73" height="8.73" transform="translate(17.19 256.41) rotate(-90)"/><rect class="g" x="114.97" y="123.98" width="8.73" height="8.73" transform="translate(-9.01 247.68) rotate(-90)"/><rect class="g" x="114.97" y="132.71" width="8.73" height="8.73" transform="translate(-17.74 256.41) rotate(-90)"/></g><rect class="g" x="36" y="32.27" width="8.73" height="8.73" transform="translate(3.72 77.01) rotate(-90)"/><rect class="g" x="36" y="49.74" width="8.73" height="8.73" transform="translate(-13.74 94.47) rotate(-90)"/><rect class="g" x="36" y="67.21" width="8.73" height="8.73" transform="translate(-31.21 111.94) rotate(-90)"/><rect class="g" x="36" y="84.68" width="8.73" height="8.73" transform="translate(-48.68 129.41) rotate(-90)"/><rect class="g" x="36" y="102.14" width="8.73" height="8.73" transform="translate(-66.14 146.87) rotate(-90)"/><rect class="g" x="36" y="119.61" width="8.73" height="8.73" transform="translate(-83.61 164.34) rotate(-90)"/><rect class="g" x="36" y="137.08" width="8.73" height="8.73" transform="translate(-101.08 181.81) rotate(-90)"/></g></g></g></g></svg>