<?xml version="1.0" encoding="UTF-8"?><svg xmlns="http://www.w3.org/2000/svg" viewBox="0 0 195 204.29"><defs><style>.d{fill:#fff;}.e{fill:#f5f5f5;}.f{fill:#e0e0e0;}.g{fill:#9b9b9b;}</style></defs><g id="a"/><g id="b"><g id="c"><g><g><rect class="d" x="1.81" y="6.45" width="191.38" height="191.38"/><rect class="g" x="9.29" y="0" width="9.29" height="9.29" transform="translate(9.29 18.57) rotate(-90)"/><rect class="g" x="18.57" y="0" width="9.29" height="9.29" transform="translate(18.57 27.86) rotate(-90)"/><rect class="g" x="27.86" y="0" width="9.29" height="9.29" transform="translate(27.86 37.14) rotate(-90)"/><rect class="g" x="37.14" y="0" width="9.29" height="9.29" transform="translate(37.14 46.43) rotate(-90)"/><rect class="g" x="46.43" y="0" width="9.29" height="9.29" transform="translate(46.43 55.71) rotate(-90)"/><rect class="g" x="55.71" y="0" width="9.29" height="9.29" transform="translate(55.71 65) rotate(-90)"/><rect class="g" x="65" y="0" width="9.29" height="9.29" transform="translate(65 74.29) rotate(-90)"/><rect class="g" x="74.29" y="0" width="9.29" height="9.29" transform="translate(74.29 83.57) rotate(-90)"/><rect class="g" x="83.57" y="0" width="9.29" height="9.29" transform="translate(83.57 92.86) rotate(-90)"/><rect class="g" x="92.86" y="0" width="9.29" height="9.29" transform="translate(92.86 102.14) rotate(-90)"/><rect class="g" x="102.14" y="0" width="9.29" height="9.29" transform="translate(102.14 111.43) rotate(-90)"/><rect class="g" x="111.43" y="0" width="9.29" height="9.29" transform="translate(111.43 120.71) rotate(-90)"/><rect class="g" x="120.71" y="0" width="9.29" height="9.29" transform="translate(120.71 130) rotate(-90)"/><rect class="g" x="130" y="0" width="9.29" height="9.29" transform="translate(130 139.29) rotate(-90)"/><rect class="g" x="139.29" y="0" width="9.29" height="9.29" transform="translate(139.29 148.57) rotate(-90)"/><rect class="g" x="148.57" y="0" width="9.29" height="9.29" transform="translate(148.57 157.86) rotate(-90)"/><rect class="g" x="157.86" y="0" width="9.29" height="9.29" transform="translate(157.86 167.14) rotate(-90)"/><rect class="g" x="167.14" y="0" width="9.29" height="9.29" transform="translate(167.14 176.43) rotate(-90)"/><rect class="g" x="176.43" y="0" width="9.29" height="9.29" transform="translate(176.43 185.71) rotate(-90)"/><rect class="g" x="185.71" y="9.29" width="9.29" height="9.29" transform="translate(176.43 204.29) rotate(-90)"/><rect class="g" x="185.71" y="18.57" width="9.29" height="9.29" transform="translate(167.14 213.57) rotate(-90)"/><rect class="g" x="185.71" y="27.86" width="9.29" height="9.29" transform="translate(157.86 222.86) rotate(-90)"/><rect class="g" x="185.71" y="37.14" width="9.29" height="9.29" transform="translate(148.57 232.14) rotate(-90)"/><rect class="g" x="185.71" y="46.43" width="9.29" height="9.29" transform="translate(139.29 241.43) rotate(-90)"/><rect class="g" x="185.71" y="55.71" width="9.29" height="9.29" transform="translate(130 250.71) rotate(-90)"/><rect class="g" x="185.71" y="65" width="9.29" height="9.29" transform="translate(120.71 260) rotate(-90)"/><rect class="g" x="185.71" y="74.29" width="9.29" height="9.29" transform="translate(111.43 269.29) rotate(-90)"/><rect class="g" x="185.71" y="83.57" width="9.29" height="9.29" transform="translate(102.14 278.57) rotate(-90)"/><rect class="g" x="185.71" y="92.86" width="9.29" height="9.29" transform="translate(92.86 287.86) rotate(-90)"/><rect class="g" x="185.71" y="102.14" width="9.29" height="9.29" transform="translate(83.57 297.14) rotate(-90)"/><rect class="g" x="185.71" y="111.43" width="9.29" height="9.29" transform="translate(74.29 306.43) rotate(-90)"/><rect class="g" x="185.71" y="120.71" width="9.29" height="9.29" transform="translate(65 315.71) rotate(-90)"/><rect class="g" x="185.71" y="130" width="9.29" height="9.29" transform="translate(55.71 325) rotate(-90)"/><rect class="g" x="185.71" y="139.29" width="9.29" height="9.29" transform="translate(46.43 334.29) rotate(-90)"/><rect class="g" x="185.71" y="148.57" width="9.29" height="9.29" transform="translate(37.14 343.57) rotate(-90)"/><rect class="g" x="185.71" y="157.86" width="9.29" height="9.29" transform="translate(27.86 352.86) rotate(-90)"/><rect class="g" x="185.71" y="167.14" width="9.29" height="9.29" transform="translate(18.57 362.14) rotate(-90)"/><rect class="g" x="185.71" y="176.43" width="9.29" height="9.29" transform="translate(9.29 371.43) rotate(-90)"/><rect class="g" x="185.71" y="185.71" width="9.29" height="9.29" transform="translate(0 380.71) rotate(-90)"/><rect class="g" x="176.43" y="195" width="9.29" height="9.29" transform="translate(-18.57 380.71) rotate(-90)"/><rect class="g" x="167.14" y="195" width="9.29" height="9.29" transform="translate(-27.86 371.43) rotate(-90)"/><rect class="g" x="157.86" y="195" width="9.29" height="9.29" transform="translate(-37.14 362.14) rotate(-90)"/><rect class="g" x="148.57" y="195" width="9.29" height="9.29" transform="translate(-46.43 352.86) rotate(-90)"/><rect class="g" x="139.29" y="195" width="9.29" height="9.29" transform="translate(-55.71 343.57) rotate(-90)"/><rect class="g" x="130" y="195" width="9.29" height="9.29" transform="translate(-65 334.29) rotate(-90)"/><rect class="g" x="120.71" y="195" width="9.29" height="9.29" transform="translate(-74.29 325) rotate(-90)"/><rect class="g" x="111.43" y="195" width="9.29" height="9.29" transform="translate(-83.57 315.71) rotate(-90)"/><rect class="g" x="102.14" y="195" width="9.29" height="9.29" transform="translate(-92.86 306.43) rotate(-90)"/><rect class="g" x="92.86" y="195" width="9.29" height="9.29" transform="translate(-102.14 297.14) rotate(-90)"/><rect class="g" x="83.57" y="195" width="9.29" height="9.29" transform="translate(-111.43 287.86) rotate(-90)"/><rect class="g" x="74.29" y="195" width="9.29" height="9.29" transform="translate(-120.71 278.57) rotate(-90)"/><rect class="g" x="65" y="195" width="9.29" height="9.29" transform="translate(-130 269.29) rotate(-90)"/><rect class="g" x="55.71" y="195" width="9.29" height="9.29" transform="translate(-139.29 260) rotate(-90)"/><rect class="g" x="46.43" y="195" width="9.29" height="9.29" transform="translate(-148.57 250.71) rotate(-90)"/><rect class="g" x="37.14" y="195" width="9.29" height="9.29" transform="translate(-157.86 241.43) rotate(-90)"/><rect class="g" x="27.86" y="195" width="9.29" height="9.29" transform="translate(-167.14 232.14) rotate(-90)"/><rect class="g" x="18.57" y="195" width="9.29" height="9.29" transform="translate(-176.43 222.86) rotate(-90)"/><rect class="g" x="9.29" y="195" width="9.29" height="9.29" transform="translate(-185.71 213.57) rotate(-90)"/><rect class="g" x="0" y="185.71" width="9.29" height="9.29" transform="translate(-185.71 195) rotate(-90)"/><rect class="g" x="0" y="176.43" width="9.29" height="9.29" transform="translate(-176.43 185.71) rotate(-90)"/><rect class="g" x="0" y="167.14" width="9.29" height="9.29" transform="translate(-167.14 176.43) rotate(-90)"/><rect class="g" x="0" y="157.86" width="9.29" height="9.29" transform="translate(-157.86 167.14) rotate(-90)"/><rect class="g" x="0" y="148.57" width="9.29" height="9.29" transform="translate(-148.57 157.86) rotate(-90)"/><rect class="g" x="0" y="139.29" width="9.29" height="9.29" transform="translate(-139.29 148.57) rotate(-90)"/><rect class="g" x="0" y="130" width="9.29" height="9.29" transform="translate(-130 139.29) rotate(-90)"/><rect class="g" x="0" y="120.71" width="9.29" height="9.29" transform="translate(-120.71 130) rotate(-90)"/><rect class="g" x="0" y="111.43" width="9.29" height="9.29" transform="translate(-111.43 120.71) rotate(-90)"/><rect class="g" x="0" y="102.14" width="9.29" height="9.29" transform="translate(-102.14 111.43) rotate(-90)"/><rect class="g" x="0" y="92.86" width="9.29" height="9.29" transform="translate(-92.86 102.14) rotate(-90)"/><rect class="g" x="0" y="83.57" width="9.29" height="9.29" transform="translate(-83.57 92.86) rotate(-90)"/><rect class="g" x="0" y="74.29" width="9.29" height="9.29" transform="translate(-74.29 83.57) rotate(-90)"/><rect class="g" x="0" y="65" width="9.29" height="9.29" transform="translate(-65 74.29) rotate(-90)"/><rect class="g" x="0" y="55.71" width="9.29" height="9.29" transform="translate(-55.71 65) rotate(-90)"/><rect class="g" x="0" y="46.43" width="9.29" height="9.29" transform="translate(-46.43 55.71) rotate(-90)"/><rect class="g" x="0" y="37.14" width="9.29" height="9.29" transform="translate(-37.14 46.43) rotate(-90)"/><rect class="g" x="0" y="27.86" width="9.29" height="9.29" transform="translate(-27.86 37.14) rotate(-90)"/><rect class="g" x="0" y="18.57" width="9.29" height="9.29" transform="translate(-18.57 27.86) rotate(-90)"/><rect class="g" x="0" y="9.29" width="9.29" height="9.29" transform="translate(-9.29 18.57) rotate(-90)"/><rect class="f" x="9.29" y="9.29" width="9.29" height="9.29" transform="translate(0 27.86) rotate(-90)"/><rect class="f" x="9.29" y="27.86" width="9.29" height="9.29" transform="translate(-18.57 46.43) rotate(-90)"/><rect class="f" x="9.29" y="46.43" width="9.29" height="9.29" transform="translate(-37.14 65) rotate(-90)"/><rect class="f" x="9.29" y="65" width="9.29" height="9.29" transform="translate(-55.71 83.57) rotate(-90)"/><rect class="f" x="9.29" y="83.57" width="9.29" height="9.29" transform="translate(-74.29 102.14) rotate(-90)"/><rect class="f" x="9.29" y="102.14" width="9.29" height="9.29" transform="translate(-92.86 120.71) rotate(-90)"/><rect class="f" x="9.29" y="120.71" width="9.29" height="9.29" transform="translate(-111.43 139.29) rotate(-90)"/><rect class="f" x="9.29" y="139.29" width="9.29" height="9.29" transform="translate(-130 157.86) rotate(-90)"/><rect class="f" x="9.29" y="157.86" width="9.29" height="9.29" transform="translate(-148.57 176.43) rotate(-90)"/><rect class="f" x="9.29" y="176.43" width="9.29" height="9.29" transform="translate(-167.14 195) rotate(-90)"/><rect class="f" x="176.43" y="18.57" width="9.29" height="9.29" transform="translate(157.86 204.29) rotate(-90)"/><rect class="f" x="176.43" y="37.14" width="9.29" height="9.29" transform="translate(139.29 222.86) rotate(-90)"/><rect class="f" x="176.43" y="55.71" width="9.29" height="9.29" transform="translate(120.71 241.43) rotate(-90)"/><rect class="f" x="176.43" y="74.29" width="9.29" height="9.29" transform="translate(102.14 260) rotate(-90)"/><rect class="f" x="176.43" y="92.86" width="9.29" height="9.29" transform="translate(83.57 278.57) rotate(-90)"/><rect class="f" x="176.43" y="111.43" width="9.29" height="9.29" transform="translate(65 297.14) rotate(-90)"/><rect class="f" x="176.43" y="130" width="9.29" height="9.29" transform="translate(46.43 315.71) rotate(-90)"/><rect class="f" x="176.43" y="148.57" width="9.29" height="9.29" transform="translate(27.86 334.29) rotate(-90)"/><rect class="f" x="176.43" y="167.14" width="9.29" height="9.29" transform="translate(9.29 352.86) rotate(-90)"/><rect class="f" x="176.43" y="185.71" width="9.29" height="9.29" transform="translate(-9.29 371.43) rotate(-90)"/></g><g><path class="e" d="M98.4,32.05l-58.94,29.13-1.47,13.1,9.73,33.96,10.73,21.56,13.84,17.17,12.28,14.53,10.56,7.56,5.37,1.18s12.38-9.59,13.48-10.16,8.41-10.26,8.41-10.26l12.5-15.53,8.03-10.78,11.73-25.63,4.37-27.96-3.84-8.03-15.92-9.12-19.09-10.42-21.76-10.29Z"/><rect class="f" x="67.25" y="65.8" width="8.73" height="8.73" transform="translate(1.45 141.78) rotate(-90)"/><rect class="f" x="67.25" y="83.01" width="8.73" height="8.73" transform="translate(-15.76 159) rotate(-90)"/><rect class="f" x="67.25" y="100.48" width="8.73" height="8.73" transform="translate(-33.23 176.46) rotate(-90)"/><rect class="f" x="67.25" y="117.95" width="8.73" height="8.73" transform="translate(-50.7 193.93) rotate(-90)"/><rect class="f" x="67.25" y="135.42" width="8.73" height="8.73" transform="translate(-68.17 211.4) rotate(-90)"/><rect class="f" x="67.03" y="48.79" width="8.73" height="8.73" transform="translate(18.24 124.55) rotate(-90)"/><rect class="f" x="58.52" y="126.68" width="8.73" height="8.73" transform="translate(-68.17 193.93) rotate(-90)"/><rect class="f" x="75.98" y="126.68" width="8.73" height="8.73" transform="translate(-50.7 211.4) rotate(-90)"/><rect class="f" x="84.72" y="135.42" width="8.73" height="8.73" transform="translate(-50.7 228.87) rotate(-90)"/><rect class="f" x="93.44" y="144.15" width="8.73" height="8.73" transform="translate(-50.71 246.32) rotate(-90)"/><rect class="f" x="102.17" y="152.88" width="8.73" height="8.73" transform="translate(-50.71 263.79) rotate(-90)"/><rect class="f" x="93.44" y="161.78" width="8.73" height="8.73" transform="translate(-68.34 263.94) rotate(-90)"/><rect class="f" x="82.03" y="150.19" width="8.73" height="14.11" transform="translate(-70.86 243.64) rotate(-90)"/><rect class="f" x="74.41" y="142.57" width="8.73" height="11.89" transform="translate(-69.74 227.29) rotate(-90)"/><rect class="f" x="57.99" y="108.7" width="8.73" height="9.8" transform="translate(-51.25 175.95) rotate(-90)"/><rect class="f" x="58.52" y="91.75" width="8.73" height="8.73" transform="translate(-33.23 159) rotate(-90)"/><rect class="f" x="75.98" y="109.23" width="8.73" height="8.73" transform="translate(-33.25 193.95) rotate(-90)"/><rect class="f" x="39.3" y="55.76" width="8.73" height="12.24" transform="translate(-18.22 105.55) rotate(-90)"/><rect class="f" x="41.05" y="74.28" width="8.73" height="8.73" transform="translate(-33.23 124.06) rotate(-90)"/><rect class="f" x="40.83" y="91.75" width="8.73" height="8.73" transform="translate(-50.92 141.31) rotate(-90)"/><rect class="f" x="58.52" y="74.28" width="8.73" height="8.73" transform="translate(-15.76 141.53) rotate(-90)"/><rect class="f" x="49.78" y="66.25" width="8.73" height="8.73" transform="translate(-16.47 124.77) rotate(-90)"/><rect class="f" x="49.78" y="83.01" width="8.73" height="8.73" transform="translate(-33.23 141.53) rotate(-90)"/><rect class="f" x="48.59" y="99.29" width="8.73" height="11.11" transform="translate(-51.89 157.81) rotate(-90)"/><rect class="f" x="58.52" y="57.52" width="8.73" height="8.73" transform="translate(1 124.77) rotate(-90)"/><rect class="g" x="93.04" y="29.68" width="8.73" height="8.73" transform="translate(63.35 131.46) rotate(-90)"/><rect class="g" x="101.77" y="32.05" width="8.73" height="8.73" transform="translate(69.72 142.56) rotate(-90)"/><rect class="g" x="110.5" y="36.05" width="8.73" height="8.73" transform="translate(74.45 155.29) rotate(-90)"/><rect class="g" x="119.24" y="40.42" width="8.73" height="8.73" transform="translate(78.82 168.39) rotate(-90)"/><rect class="g" x="127.97" y="44.79" width="8.73" height="8.73" transform="translate(83.19 181.49) rotate(-90)"/><rect class="g" x="136.71" y="49.15" width="8.73" height="8.73" transform="translate(87.55 194.59) rotate(-90)"/><rect class="g" x="145.44" y="53.15" width="8.73" height="8.73" transform="translate(92.29 207.32) rotate(-90)"/><rect class="g" x="152.17" y="56.81" width="8.73" height="8.73" transform="translate(95.36 217.72) rotate(-90)"/><rect class="g" x="155.17" y="65.55" width="8.73" height="8.73" transform="translate(89.63 229.45) rotate(-90)"/><rect class="g" x="153.65" y="74.28" width="8.73" height="8.73" transform="translate(79.37 236.66) rotate(-90)"/><rect class="g" x="151.65" y="83.01" width="8.73" height="8.73" transform="translate(68.63 243.39) rotate(-90)"/><rect class="g" x="148.28" y="91.75" width="8.73" height="8.73" transform="translate(56.53 248.76) rotate(-90)"/><rect class="g" x="146.28" y="100.48" width="8.73" height="8.73" transform="translate(45.8 255.49) rotate(-90)"/><rect class="g" x="141.91" y="109.21" width="8.73" height="8.73" transform="translate(32.7 259.86) rotate(-90)"/><rect class="g" x="137.55" y="117.95" width="8.73" height="8.73" transform="translate(19.6 264.23) rotate(-90)"/><rect class="g" x="133.89" y="126.68" width="8.73" height="8.73" transform="translate(7.2 269.3) rotate(-90)"/><rect class="g" x="127.75" y="132.34" width="8.73" height="8.73" transform="translate(-4.59 268.83) rotate(-90)"/><rect class="g" x="121.38" y="141.08" width="8.73" height="8.73" transform="translate(-19.69 271.19) rotate(-90)"/><rect class="g" x="114.97" y="146.97" width="8.73" height="8.73" transform="translate(-32 270.68) rotate(-90)"/><rect class="g" x="108.61" y="155.7" width="8.73" height="8.73" transform="translate(-47.1 273.05) rotate(-90)"/><rect class="g" x="100.87" y="161.5" width="8.73" height="8.73" transform="translate(-60.63 271.11) rotate(-90)"/><rect class="g" x="91.14" y="165.87" width="8.73" height="8.73" transform="translate(-74.73 265.74) rotate(-90)"/><rect class="g" x="84.5" y="32.05" width="8.73" height="8.73" transform="translate(52.44 125.28) rotate(-90)"/><rect class="g" x="75.76" y="36.05" width="8.73" height="8.73" transform="translate(39.71 120.55) rotate(-90)"/><rect class="g" x="67.03" y="40.42" width="8.73" height="8.73" transform="translate(26.61 116.18) rotate(-90)"/><rect class="g" x="58.29" y="44.79" width="8.73" height="8.73" transform="translate(13.51 111.81) rotate(-90)"/><rect class="g" x="49.56" y="49.15" width="8.73" height="8.73" transform="translate(.41 107.45) rotate(-90)"/><rect class="g" x="40.83" y="53.15" width="8.73" height="8.73" transform="translate(-12.32 102.71) rotate(-90)"/><rect class="g" x="34.09" y="56.81" width="8.73" height="8.73" transform="translate(-22.72 99.64) rotate(-90)"/><rect class="g" x="31.09" y="65.55" width="8.73" height="8.73" transform="translate(-34.45 105.37) rotate(-90)"/><rect class="g" x="32.62" y="74.28" width="8.73" height="8.73" transform="translate(-41.66 115.63) rotate(-90)"/><rect class="g" x="34.62" y="83.01" width="8.73" height="8.73" transform="translate(-48.39 126.37) rotate(-90)"/><rect class="g" x="37.99" y="91.75" width="8.73" height="8.73" transform="translate(-53.76 138.47) rotate(-90)"/><rect class="g" x="39.99" y="100.48" width="8.73" height="8.73" transform="translate(-60.49 149.2) rotate(-90)"/><rect class="g" x="44.35" y="109.21" width="8.73" height="8.73" transform="translate(-64.86 162.3) rotate(-90)"/><rect class="g" x="48.72" y="117.95" width="8.73" height="8.73" transform="translate(-69.23 175.4) rotate(-90)"/><rect class="g" x="52.38" y="126.68" width="8.73" height="8.73" transform="translate(-74.3 187.8) rotate(-90)"/><rect class="g" x="58.52" y="132.34" width="8.73" height="8.73" transform="translate(-73.83 199.59) rotate(-90)"/><rect class="g" x="64.88" y="141.08" width="8.73" height="8.73" transform="translate(-76.19 214.69) rotate(-90)"/><rect class="g" x="71.29" y="146.97" width="8.73" height="8.73" transform="translate(-75.68 227) rotate(-90)"/><rect class="g" x="77.66" y="155.7" width="8.73" height="8.73" transform="translate(-78.05 242.1) rotate(-90)"/><rect class="g" x="85.39" y="161.5" width="8.73" height="8.73" transform="translate(-76.11 255.63) rotate(-90)"/><rect class="g" x="95.13" y="165.87" width="8.73" height="8.73" transform="translate(-70.74 269.73) rotate(-90)"/></g></g></g></g></svg>