<?xml version="1.0" encoding="UTF-8"?><svg xmlns="http://www.w3.org/2000/svg" viewBox="0 0 195 204.29"><defs><style>.d{fill:#fff;}.e{fill:#f5f5f5;}.f{fill:#e0e0e0;}.g{fill:#9b9b9b;}</style></defs><g id="a"/><g id="b"><g id="c"><g><g><rect class="d" x="1.81" y="6.45" width="191.38" height="191.38"/><rect class="g" x="9.29" y="0" width="9.29" height="9.29" transform="translate(9.29 18.57) rotate(-90)"/><rect class="g" x="18.57" y="0" width="9.29" height="9.29" transform="translate(18.57 27.86) rotate(-90)"/><rect class="g" x="27.86" y="0" width="9.29" height="9.29" transform="translate(27.86 37.14) rotate(-90)"/><rect class="g" x="37.14" y="0" width="9.29" height="9.29" transform="translate(37.14 46.43) rotate(-90)"/><rect class="g" x="46.43" y="0" width="9.29" height="9.29" transform="translate(46.43 55.71) rotate(-90)"/><rect class="g" x="55.71" y="0" width="9.29" height="9.29" transform="translate(55.71 65) rotate(-90)"/><rect class="g" x="65" y="0" width="9.29" height="9.29" transform="translate(65 74.29) rotate(-90)"/><rect class="g" x="74.29" y="0" width="9.29" height="9.29" transform="translate(74.29 83.57) rotate(-90)"/><rect class="g" x="83.57" y="0" width="9.29" height="9.29" transform="translate(83.57 92.86) rotate(-90)"/><rect class="g" x="92.86" y="0" width="9.29" height="9.29" transform="translate(92.86 102.14) rotate(-90)"/><rect class="g" x="102.14" y="0" width="9.29" height="9.29" transform="translate(102.14 111.43) rotate(-90)"/><rect class="g" x="111.43" y="0" width="9.29" height="9.29" transform="translate(111.43 120.71) rotate(-90)"/><rect class="g" x="120.71" y="0" width="9.29" height="9.29" transform="translate(120.71 130) rotate(-90)"/><rect class="g" x="130" y="0" width="9.29" height="9.29" transform="translate(130 139.29) rotate(-90)"/><rect class="g" x="139.29" y="0" width="9.29" height="9.29" transform="translate(139.29 148.57) rotate(-90)"/><rect class="g" x="148.57" y="0" width="9.29" height="9.29" transform="translate(148.57 157.86) rotate(-90)"/><rect class="g" x="157.86" y="0" width="9.29" height="9.29" transform="translate(157.86 167.14) rotate(-90)"/><rect class="g" x="167.14" y="0" width="9.29" height="9.29" transform="translate(167.14 176.43) rotate(-90)"/><rect class="g" x="176.43" y="0" width="9.29" height="9.29" transform="translate(176.43 185.71) rotate(-90)"/><rect class="g" x="185.71" y="9.29" width="9.29" height="9.29" transform="translate(176.43 204.29) rotate(-90)"/><rect class="g" x="185.71" y="18.57" width="9.29" height="9.29" transform="translate(167.14 213.57) rotate(-90)"/><rect class="g" x="185.71" y="27.86" width="9.29" height="9.29" transform="translate(157.86 222.86) rotate(-90)"/><rect class="g" x="185.71" y="37.14" width="9.29" height="9.29" transform="translate(148.57 232.14) rotate(-90)"/><rect class="g" x="185.71" y="46.43" width="9.29" height="9.29" transform="translate(139.29 241.43) rotate(-90)"/><rect class="g" x="185.71" y="55.71" width="9.29" height="9.29" transform="translate(130 250.71) rotate(-90)"/><rect class="g" x="185.71" y="65" width="9.29" height="9.29" transform="translate(120.71 260) rotate(-90)"/><rect class="g" x="185.71" y="74.29" width="9.29" height="9.29" transform="translate(111.43 269.29) rotate(-90)"/><rect class="g" x="185.71" y="83.57" width="9.29" height="9.29" transform="translate(102.14 278.57) rotate(-90)"/><rect class="g" x="185.71" y="92.86" width="9.29" height="9.29" transform="translate(92.86 287.86) rotate(-90)"/><rect class="g" x="185.71" y="102.14" width="9.29" height="9.29" transform="translate(83.57 297.14) rotate(-90)"/><rect class="g" x="185.71" y="111.43" width="9.29" height="9.29" transform="translate(74.29 306.43) rotate(-90)"/><rect class="g" x="185.71" y="120.71" width="9.29" height="9.29" transform="translate(65 315.71) rotate(-90)"/><rect class="g" x="185.71" y="130" width="9.29" height="9.29" transform="translate(55.71 325) rotate(-90)"/><rect class="g" x="185.71" y="139.29" width="9.29" height="9.29" transform="translate(46.43 334.29) rotate(-90)"/><rect class="g" x="185.71" y="148.57" width="9.29" height="9.29" transform="translate(37.14 343.57) rotate(-90)"/><rect class="g" x="185.71" y="157.86" width="9.29" height="9.29" transform="translate(27.86 352.86) rotate(-90)"/><rect class="g" x="185.71" y="167.14" width="9.29" height="9.29" transform="translate(18.57 362.14) rotate(-90)"/><rect class="g" x="185.71" y="176.43" width="9.29" height="9.29" transform="translate(9.29 371.43) rotate(-90)"/><rect class="g" x="185.71" y="185.71" width="9.29" height="9.29" transform="translate(0 380.71) rotate(-90)"/><rect class="g" x="176.43" y="195" width="9.29" height="9.29" transform="translate(-18.57 380.71) rotate(-90)"/><rect class="g" x="167.14" y="195" width="9.29" height="9.29" transform="translate(-27.86 371.43) rotate(-90)"/><rect class="g" x="157.86" y="195" width="9.29" height="9.29" transform="translate(-37.14 362.14) rotate(-90)"/><rect class="g" x="148.57" y="195" width="9.29" height="9.29" transform="translate(-46.43 352.86) rotate(-90)"/><rect class="g" x="139.29" y="195" width="9.29" height="9.29" transform="translate(-55.71 343.57) rotate(-90)"/><rect class="g" x="130" y="195" width="9.29" height="9.29" transform="translate(-65 334.29) rotate(-90)"/><rect class="g" x="120.71" y="195" width="9.29" height="9.29" transform="translate(-74.29 325) rotate(-90)"/><rect class="g" x="111.43" y="195" width="9.29" height="9.29" transform="translate(-83.57 315.71) rotate(-90)"/><rect class="g" x="102.14" y="195" width="9.29" height="9.29" transform="translate(-92.86 306.43) rotate(-90)"/><rect class="g" x="92.86" y="195" width="9.29" height="9.29" transform="translate(-102.14 297.14) rotate(-90)"/><rect class="g" x="83.57" y="195" width="9.29" height="9.29" transform="translate(-111.43 287.86) rotate(-90)"/><rect class="g" x="74.29" y="195" width="9.29" height="9.29" transform="translate(-120.71 278.57) rotate(-90)"/><rect class="g" x="65" y="195" width="9.29" height="9.29" transform="translate(-130 269.29) rotate(-90)"/><rect class="g" x="55.71" y="195" width="9.29" height="9.29" transform="translate(-139.29 260) rotate(-90)"/><rect class="g" x="46.43" y="195" width="9.29" height="9.29" transform="translate(-148.57 250.71) rotate(-90)"/><rect class="g" x="37.14" y="195" width="9.29" height="9.29" transform="translate(-157.86 241.43) rotate(-90)"/><rect class="g" x="27.86" y="195" width="9.29" height="9.29" transform="translate(-167.14 232.14) rotate(-90)"/><rect class="g" x="18.57" y="195" width="9.29" height="9.29" transform="translate(-176.43 222.86) rotate(-90)"/><rect class="g" x="9.29" y="195" width="9.29" height="9.29" transform="translate(-185.71 213.57) rotate(-90)"/><rect class="g" x="0" y="185.71" width="9.29" height="9.29" transform="translate(-185.71 195) rotate(-90)"/><rect class="g" x="0" y="176.43" width="9.29" height="9.29" transform="translate(-176.43 185.71) rotate(-90)"/><rect class="g" x="0" y="167.14" width="9.29" height="9.29" transform="translate(-167.14 176.43) rotate(-90)"/><rect class="g" x="0" y="157.86" width="9.29" height="9.29" transform="translate(-157.86 167.14) rotate(-90)"/><rect class="g" x="0" y="148.57" width="9.29" height="9.29" transform="translate(-148.57 157.86) rotate(-90)"/><rect class="g" x="0" y="139.29" width="9.29" height="9.29" transform="translate(-139.29 148.57) rotate(-90)"/><rect class="g" x="0" y="130" width="9.29" height="9.29" transform="translate(-130 139.29) rotate(-90)"/><rect class="g" x="0" y="120.71" width="9.29" height="9.29" transform="translate(-120.71 130) rotate(-90)"/><rect class="g" x="0" y="111.43" width="9.29" height="9.29" transform="translate(-111.43 120.71) rotate(-90)"/><rect class="g" x="0" y="102.14" width="9.29" height="9.29" transform="translate(-102.14 111.43) rotate(-90)"/><rect class="g" x="0" y="92.86" width="9.29" height="9.29" transform="translate(-92.86 102.14) rotate(-90)"/><rect class="g" x="0" y="83.57" width="9.29" height="9.29" transform="translate(-83.57 92.86) rotate(-90)"/><rect class="g" x="0" y="74.29" width="9.29" height="9.29" transform="translate(-74.29 83.57) rotate(-90)"/><rect class="g" x="0" y="65" width="9.29" height="9.29" transform="translate(-65 74.29) rotate(-90)"/><rect class="g" x="0" y="55.71" width="9.29" height="9.29" transform="translate(-55.71 65) rotate(-90)"/><rect class="g" x="0" y="46.43" width="9.29" height="9.29" transform="translate(-46.43 55.71) rotate(-90)"/><rect class="g" x="0" y="37.14" width="9.29" height="9.29" transform="translate(-37.14 46.43) rotate(-90)"/><rect class="g" x="0" y="27.86" width="9.29" height="9.29" transform="translate(-27.86 37.14) rotate(-90)"/><rect class="g" x="0" y="18.57" width="9.29" height="9.29" transform="translate(-18.57 27.86) rotate(-90)"/><rect class="g" x="0" y="9.29" width="9.29" height="9.29" transform="translate(-9.29 18.57) rotate(-90)"/><rect class="f" x="9.29" y="9.29" width="9.29" height="9.29" transform="translate(0 27.86) rotate(-90)"/><rect class="f" x="9.29" y="27.86" width="9.29" height="9.29" transform="translate(-18.57 46.43) rotate(-90)"/><rect class="f" x="9.29" y="46.43" width="9.29" height="9.29" transform="translate(-37.14 65) rotate(-90)"/><rect class="f" x="9.29" y="65" width="9.29" height="9.29" transform="translate(-55.71 83.57) rotate(-90)"/><rect class="f" x="9.29" y="83.57" width="9.29" height="9.29" transform="translate(-74.29 102.14) rotate(-90)"/><rect class="f" x="9.29" y="102.14" width="9.29" height="9.29" transform="translate(-92.86 120.71) rotate(-90)"/><rect class="f" x="9.29" y="120.71" width="9.29" height="9.29" transform="translate(-111.43 139.29) rotate(-90)"/><rect class="f" x="9.29" y="139.29" width="9.29" height="9.29" transform="translate(-130 157.86) rotate(-90)"/><rect class="f" x="9.29" y="157.86" width="9.29" height="9.29" transform="translate(-148.57 176.43) rotate(-90)"/><rect class="f" x="9.29" y="176.43" width="9.29" height="9.29" transform="translate(-167.14 195) rotate(-90)"/><rect class="f" x="176.43" y="18.57" width="9.29" height="9.29" transform="translate(157.86 204.29) rotate(-90)"/><rect class="f" x="176.43" y="37.14" width="9.29" height="9.29" transform="translate(139.29 222.86) rotate(-90)"/><rect class="f" x="176.43" y="55.71" width="9.29" height="9.29" transform="translate(120.71 241.43) rotate(-90)"/><rect class="f" x="176.43" y="74.29" width="9.29" height="9.29" transform="translate(102.14 260) rotate(-90)"/><rect class="f" x="176.43" y="92.86" width="9.29" height="9.29" transform="translate(83.57 278.57) rotate(-90)"/><rect class="f" x="176.43" y="111.43" width="9.29" height="9.29" transform="translate(65 297.14) rotate(-90)"/><rect class="f" x="176.43" y="130" width="9.29" height="9.29" transform="translate(46.43 315.71) rotate(-90)"/><rect class="f" x="176.43" y="148.57" width="9.29" height="9.29" transform="translate(27.86 334.29) rotate(-90)"/><rect class="f" x="176.43" y="167.14" width="9.29" height="9.29" transform="translate(9.29 352.86) rotate(-90)"/><rect class="f" x="176.43" y="185.71" width="9.29" height="9.29" transform="translate(-9.29 371.43) rotate(-90)"/></g><g><rect class="e" x="84.4" y="64.34" width="8.73" height="8.73" transform="translate(20.06 157.47) rotate(-90)"/><rect class="e" x="84.4" y="157.41" width="8.73" height="8.73" transform="translate(250.54 73.01) rotate(90)"/><rect class="f" x="84.4" y="64.34" width="8.73" height="8.73" transform="translate(20.06 157.47) rotate(-90)"/><rect class="f" x="75.67" y="64.34" width="8.73" height="8.73" transform="translate(11.32 148.74) rotate(-90)"/><rect class="f" x="68.93" y="69.34" width="8.73" height="8.73" transform="translate(-.41 147.01) rotate(-90)"/><rect class="f" x="64.2" y="74.71" width="8.73" height="8.73" transform="translate(-10.51 147.64) rotate(-90)"/><rect class="f" x="58.57" y="80.44" width="8.73" height="8.73" transform="translate(-21.87 147.75) rotate(-90)"/><rect class="f" x="54.2" y="89.18" width="8.73" height="8.73" transform="translate(-34.97 152.11) rotate(-90)"/><rect class="f" x="50.2" y="97.91" width="8.73" height="8.73" transform="translate(-47.7 156.85) rotate(-90)"/><rect class="f" x="48.84" y="106.64" width="8.73" height="8.73" transform="translate(-57.8 164.21) rotate(-90)"/><rect class="f" x="48.84" y="115.38" width="8.73" height="8.73" transform="translate(-66.54 172.95) rotate(-90)"/><rect class="f" x="75.67" y="157.41" width="8.73" height="8.73" transform="translate(241.81 81.75) rotate(90)"/><rect class="f" x="84.4" y="157.41" width="8.73" height="8.73" transform="translate(250.54 73.01) rotate(90)"/><rect class="f" x="93.13" y="157.41" width="8.73" height="8.73" transform="translate(259.28 64.28) rotate(90)"/><rect class="f" x="101.87" y="157.41" width="8.73" height="8.73" transform="translate(268.01 55.54) rotate(90)"/><rect class="f" x="110.6" y="157.41" width="8.73" height="8.73" transform="translate(276.75 46.81) rotate(90)"/><rect class="f" x="68.93" y="152.41" width="8.73" height="8.73" transform="translate(230.08 83.48) rotate(90)"/><rect class="f" x="64.2" y="147.04" width="8.73" height="8.73" transform="translate(219.98 82.85) rotate(90)"/><rect class="f" x="58.57" y="141.31" width="8.73" height="8.73" transform="translate(208.62 82.74) rotate(90)"/><rect class="f" x="54.2" y="132.58" width="8.73" height="8.73" transform="translate(195.52 78.37) rotate(90)"/><rect class="f" x="50.2" y="123.84" width="8.73" height="8.73" transform="translate(182.78 73.64) rotate(90)"/><rect class="f" x="48.84" y="115.38" width="8.73" height="8.73" transform="translate(172.95 66.54) rotate(90)"/><rect class="g" x="101.87" y="39.89" width="8.73" height="8.73" transform="translate(61.98 150.49) rotate(-90)"/><rect class="g" x="101.87" y="48.62" width="8.73" height="8.73" transform="translate(53.24 159.23) rotate(-90)"/><rect class="g" x="101.87" y="57.36" width="8.73" height="8.73" transform="translate(44.51 167.96) rotate(-90)"/><rect class="g" x="84.4" y="57.36" width="8.73" height="8.73" transform="translate(27.04 150.49) rotate(-90)"/><rect class="g" x="75.67" y="60.41" width="8.73" height="8.73" transform="translate(15.26 144.81) rotate(-90)"/><rect class="g" x="66.93" y="64.34" width="8.73" height="8.73" transform="translate(2.59 140.01) rotate(-90)"/><rect class="g" x="60.2" y="69.34" width="8.73" height="8.73" transform="translate(-9.14 138.27) rotate(-90)"/><rect class="g" x="55.47" y="74.71" width="8.73" height="8.73" transform="translate(-19.24 138.91) rotate(-90)"/><rect class="g" x="49.84" y="80.44" width="8.73" height="8.73" transform="translate(-30.6 139.01) rotate(-90)"/><rect class="g" x="45.47" y="89.18" width="8.73" height="8.73" transform="translate(-43.7 143.38) rotate(-90)"/><rect class="g" x="41.47" y="97.91" width="8.73" height="8.73" transform="translate(-56.44 148.11) rotate(-90)"/><rect class="g" x="40.1" y="106.64" width="8.73" height="8.73" transform="translate(-66.54 155.48) rotate(-90)"/><rect class="g" x="40.1" y="115.38" width="8.73" height="8.73" transform="translate(-75.27 164.21) rotate(-90)"/><rect class="g" x="101.87" y="66.09" width="8.73" height="8.73" transform="translate(35.77 176.69) rotate(-90)"/><rect class="g" x="110.6" y="48.62" width="8.73" height="8.73" transform="translate(61.98 167.96) rotate(-90)"/><rect class="g" x="110.6" y="57.36" width="8.73" height="8.73" transform="translate(53.24 176.69) rotate(-90)"/><rect class="g" x="119.33" y="57.36" width="8.73" height="8.73" transform="translate(61.98 185.43) rotate(-90)"/><rect class="g" x="110.6" y="66.09" width="8.73" height="8.73" transform="translate(44.51 185.43) rotate(-90)"/><rect class="g" x="101.87" y="74.83" width="8.73" height="8.73" transform="translate(27.04 185.43) rotate(-90)"/><rect class="g" x="93.13" y="39.89" width="8.73" height="8.73" transform="translate(53.24 141.76) rotate(-90)"/><rect class="g" x="93.13" y="31.16" width="8.73" height="8.73" transform="translate(61.98 133.02) rotate(-90)"/><rect class="g" x="93.13" y="48.62" width="8.73" height="8.73" transform="translate(44.51 150.49) rotate(-90)"/><rect class="g" x="93.13" y="57.36" width="8.73" height="8.73" transform="translate(35.77 159.23) rotate(-90)"/><rect class="g" x="93.13" y="66.09" width="8.73" height="8.73" transform="translate(27.04 167.96) rotate(-90)"/><rect class="g" x="93.13" y="74.83" width="8.73" height="8.73" transform="translate(18.31 176.69) rotate(-90)"/><rect class="g" x="93.13" y="83.56" width="8.73" height="8.73" transform="translate(9.57 185.43) rotate(-90)"/><rect class="g" x="84.4" y="164.39" width="8.73" height="8.73" transform="translate(257.53 79.99) rotate(90)"/><rect class="g" x="93.13" y="164.39" width="8.73" height="8.73" transform="translate(266.26 71.26) rotate(90)"/><rect class="g" x="75.67" y="161.34" width="8.73" height="8.73" transform="translate(245.74 85.68) rotate(90)"/><rect class="g" x="66.93" y="157.41" width="8.73" height="8.73" transform="translate(233.08 90.48) rotate(90)"/><rect class="g" x="60.2" y="152.41" width="8.73" height="8.73" transform="translate(221.34 92.21) rotate(90)"/><rect class="g" x="55.47" y="147.04" width="8.73" height="8.73" transform="translate(211.24 91.58) rotate(90)"/><rect class="g" x="49.84" y="141.31" width="8.73" height="8.73" transform="translate(199.88 91.47) rotate(90)"/><rect class="g" x="45.47" y="132.58" width="8.73" height="8.73" transform="translate(186.78 87.11) rotate(90)"/><rect class="g" x="41.47" y="123.84" width="8.73" height="8.73" transform="translate(174.05 82.37) rotate(90)"/><rect class="g" x="40.1" y="115.38" width="8.73" height="8.73" transform="translate(164.21 75.27) rotate(90)"/><rect class="g" x="101.87" y="164.39" width="8.73" height="8.73" transform="translate(274.99 62.53) rotate(90)"/><rect class="g" x="110.6" y="161.34" width="8.73" height="8.73" transform="translate(280.68 50.74) rotate(90)"/><rect class="g" x="119.33" y="157.41" width="8.73" height="8.73" transform="translate(285.48 38.08) rotate(90)"/><rect class="g" x="126.07" y="152.41" width="8.73" height="8.73" transform="translate(287.21 26.34) rotate(90)"/><rect class="g" x="130.8" y="147.04" width="8.73" height="8.73" transform="translate(286.58 16.24) rotate(90)"/><rect class="g" x="136.43" y="141.31" width="8.73" height="8.73" transform="translate(286.47 4.88) rotate(90)"/><rect class="g" x="140.8" y="132.58" width="8.73" height="8.73" transform="translate(282.11 -8.22) rotate(90)"/><rect class="g" x="144.8" y="123.84" width="8.73" height="8.73" transform="translate(277.37 -20.95) rotate(90)"/><rect class="g" x="146.16" y="115.11" width="8.73" height="8.73" transform="translate(270.01 -31.05) rotate(90)"/><rect class="g" x="146.16" y="106.38" width="8.73" height="8.73" transform="translate(261.27 -39.79) rotate(90)"/></g></g></g></g></svg>