<?xml version="1.0" encoding="UTF-8"?><svg xmlns="http://www.w3.org/2000/svg" viewBox="0 0 195 204.29"><defs><style>.d{fill:#fff;}.e{fill:#f5f5f5;}.f{fill:#e0e0e0;}.g{fill:#9b9b9b;}</style></defs><g id="a"/><g id="b"><g id="c"><g><g><rect class="d" x="1.81" y="6.45" width="191.38" height="191.38"/><rect class="g" x="9.29" y="0" width="9.29" height="9.29" transform="translate(9.29 18.57) rotate(-90)"/><rect class="g" x="18.57" y="0" width="9.29" height="9.29" transform="translate(18.57 27.86) rotate(-90)"/><rect class="g" x="27.86" y="0" width="9.29" height="9.29" transform="translate(27.86 37.14) rotate(-90)"/><rect class="g" x="37.14" y="0" width="9.29" height="9.29" transform="translate(37.14 46.43) rotate(-90)"/><rect class="g" x="46.43" y="0" width="9.29" height="9.29" transform="translate(46.43 55.71) rotate(-90)"/><rect class="g" x="55.71" y="0" width="9.29" height="9.29" transform="translate(55.71 65) rotate(-90)"/><rect class="g" x="65" y="0" width="9.29" height="9.29" transform="translate(65 74.29) rotate(-90)"/><rect class="g" x="74.29" y="0" width="9.29" height="9.29" transform="translate(74.29 83.57) rotate(-90)"/><rect class="g" x="83.57" y="0" width="9.29" height="9.29" transform="translate(83.57 92.86) rotate(-90)"/><rect class="g" x="92.86" y="0" width="9.29" height="9.29" transform="translate(92.86 102.14) rotate(-90)"/><rect class="g" x="102.14" y="0" width="9.29" height="9.29" transform="translate(102.14 111.43) rotate(-90)"/><rect class="g" x="111.43" y="0" width="9.29" height="9.29" transform="translate(111.43 120.71) rotate(-90)"/><rect class="g" x="120.71" y="0" width="9.29" height="9.29" transform="translate(120.71 130) rotate(-90)"/><rect class="g" x="130" y="0" width="9.29" height="9.29" transform="translate(130 139.29) rotate(-90)"/><rect class="g" x="139.29" y="0" width="9.29" height="9.29" transform="translate(139.29 148.57) rotate(-90)"/><rect class="g" x="148.57" y="0" width="9.29" height="9.29" transform="translate(148.57 157.86) rotate(-90)"/><rect class="g" x="157.86" y="0" width="9.29" height="9.29" transform="translate(157.86 167.14) rotate(-90)"/><rect class="g" x="167.14" y="0" width="9.29" height="9.29" transform="translate(167.14 176.43) rotate(-90)"/><rect class="g" x="176.43" y="0" width="9.29" height="9.29" transform="translate(176.43 185.71) rotate(-90)"/><rect class="g" x="185.71" y="9.29" width="9.29" height="9.29" transform="translate(176.43 204.29) rotate(-90)"/><rect class="g" x="185.71" y="18.57" width="9.29" height="9.29" transform="translate(167.14 213.57) rotate(-90)"/><rect class="g" x="185.71" y="27.86" width="9.29" height="9.29" transform="translate(157.86 222.86) rotate(-90)"/><rect class="g" x="185.71" y="37.14" width="9.29" height="9.29" transform="translate(148.57 232.14) rotate(-90)"/><rect class="g" x="185.71" y="46.43" width="9.29" height="9.29" transform="translate(139.29 241.43) rotate(-90)"/><rect class="g" x="185.71" y="55.71" width="9.29" height="9.29" transform="translate(130 250.71) rotate(-90)"/><rect class="g" x="185.71" y="65" width="9.29" height="9.29" transform="translate(120.71 260) rotate(-90)"/><rect class="g" x="185.71" y="74.29" width="9.29" height="9.29" transform="translate(111.43 269.29) rotate(-90)"/><rect class="g" x="185.71" y="83.57" width="9.29" height="9.29" transform="translate(102.14 278.57) rotate(-90)"/><rect class="g" x="185.71" y="92.86" width="9.29" height="9.29" transform="translate(92.86 287.86) rotate(-90)"/><rect class="g" x="185.71" y="102.14" width="9.29" height="9.29" transform="translate(83.57 297.14) rotate(-90)"/><rect class="g" x="185.71" y="111.43" width="9.29" height="9.29" transform="translate(74.29 306.43) rotate(-90)"/><rect class="g" x="185.71" y="120.71" width="9.29" height="9.29" transform="translate(65 315.71) rotate(-90)"/><rect class="g" x="185.71" y="130" width="9.29" height="9.29" transform="translate(55.71 325) rotate(-90)"/><rect class="g" x="185.71" y="139.29" width="9.29" height="9.29" transform="translate(46.43 334.29) rotate(-90)"/><rect class="g" x="185.71" y="148.57" width="9.29" height="9.29" transform="translate(37.14 343.57) rotate(-90)"/><rect class="g" x="185.71" y="157.86" width="9.29" height="9.29" transform="translate(27.86 352.86) rotate(-90)"/><rect class="g" x="185.71" y="167.14" width="9.29" height="9.29" transform="translate(18.57 362.14) rotate(-90)"/><rect class="g" x="185.71" y="176.43" width="9.29" height="9.29" transform="translate(9.29 371.43) rotate(-90)"/><rect class="g" x="185.71" y="185.71" width="9.29" height="9.29" transform="translate(0 380.71) rotate(-90)"/><rect class="g" x="176.43" y="195" width="9.29" height="9.29" transform="translate(-18.57 380.71) rotate(-90)"/><rect class="g" x="167.14" y="195" width="9.29" height="9.29" transform="translate(-27.86 371.43) rotate(-90)"/><rect class="g" x="157.86" y="195" width="9.29" height="9.29" transform="translate(-37.14 362.14) rotate(-90)"/><rect class="g" x="148.57" y="195" width="9.29" height="9.29" transform="translate(-46.43 352.86) rotate(-90)"/><rect class="g" x="139.29" y="195" width="9.29" height="9.29" transform="translate(-55.71 343.57) rotate(-90)"/><rect class="g" x="130" y="195" width="9.29" height="9.29" transform="translate(-65 334.29) rotate(-90)"/><rect class="g" x="120.71" y="195" width="9.29" height="9.29" transform="translate(-74.29 325) rotate(-90)"/><rect class="g" x="111.43" y="195" width="9.29" height="9.29" transform="translate(-83.57 315.71) rotate(-90)"/><rect class="g" x="102.14" y="195" width="9.29" height="9.29" transform="translate(-92.86 306.43) rotate(-90)"/><rect class="g" x="92.86" y="195" width="9.29" height="9.29" transform="translate(-102.14 297.14) rotate(-90)"/><rect class="g" x="83.57" y="195" width="9.29" height="9.29" transform="translate(-111.43 287.86) rotate(-90)"/><rect class="g" x="74.29" y="195" width="9.29" height="9.29" transform="translate(-120.71 278.57) rotate(-90)"/><rect class="g" x="65" y="195" width="9.29" height="9.29" transform="translate(-130 269.29) rotate(-90)"/><rect class="g" x="55.71" y="195" width="9.29" height="9.29" transform="translate(-139.29 260) rotate(-90)"/><rect class="g" x="46.43" y="195" width="9.29" height="9.29" transform="translate(-148.57 250.71) rotate(-90)"/><rect class="g" x="37.14" y="195" width="9.29" height="9.29" transform="translate(-157.86 241.43) rotate(-90)"/><rect class="g" x="27.86" y="195" width="9.29" height="9.29" transform="translate(-167.14 232.14) rotate(-90)"/><rect class="g" x="18.57" y="195" width="9.29" height="9.29" transform="translate(-176.43 222.86) rotate(-90)"/><rect class="g" x="9.29" y="195" width="9.29" height="9.29" transform="translate(-185.71 213.57) rotate(-90)"/><rect class="g" x="0" y="185.71" width="9.29" height="9.29" transform="translate(-185.71 195) rotate(-90)"/><rect class="g" x="0" y="176.43" width="9.29" height="9.29" transform="translate(-176.43 185.71) rotate(-90)"/><rect class="g" x="0" y="167.14" width="9.29" height="9.29" transform="translate(-167.14 176.43) rotate(-90)"/><rect class="g" x="0" y="157.86" width="9.29" height="9.29" transform="translate(-157.86 167.14) rotate(-90)"/><rect class="g" x="0" y="148.57" width="9.29" height="9.29" transform="translate(-148.57 157.86) rotate(-90)"/><rect class="g" x="0" y="139.29" width="9.29" height="9.29" transform="translate(-139.29 148.57) rotate(-90)"/><rect class="g" x="0" y="130" width="9.29" height="9.29" transform="translate(-130 139.29) rotate(-90)"/><rect class="g" x="0" y="120.71" width="9.29" height="9.29" transform="translate(-120.71 130) rotate(-90)"/><rect class="g" x="0" y="111.43" width="9.29" height="9.29" transform="translate(-111.43 120.71) rotate(-90)"/><rect class="g" x="0" y="102.14" width="9.29" height="9.29" transform="translate(-102.14 111.43) rotate(-90)"/><rect class="g" x="0" y="92.86" width="9.29" height="9.29" transform="translate(-92.86 102.14) rotate(-90)"/><rect class="g" x="0" y="83.57" width="9.29" height="9.29" transform="translate(-83.57 92.86) rotate(-90)"/><rect class="g" x="0" y="74.29" width="9.29" height="9.29" transform="translate(-74.29 83.57) rotate(-90)"/><rect class="g" x="0" y="65" width="9.29" height="9.29" transform="translate(-65 74.29) rotate(-90)"/><rect class="g" x="0" y="55.71" width="9.29" height="9.29" transform="translate(-55.71 65) rotate(-90)"/><rect class="g" x="0" y="46.43" width="9.29" height="9.29" transform="translate(-46.43 55.71) rotate(-90)"/><rect class="g" x="0" y="37.14" width="9.29" height="9.29" transform="translate(-37.14 46.43) rotate(-90)"/><rect class="g" x="0" y="27.86" width="9.29" height="9.29" transform="translate(-27.86 37.14) rotate(-90)"/><rect class="g" x="0" y="18.57" width="9.29" height="9.29" transform="translate(-18.57 27.86) rotate(-90)"/><rect class="g" x="0" y="9.29" width="9.29" height="9.29" transform="translate(-9.29 18.57) rotate(-90)"/><rect class="f" x="9.29" y="9.29" width="9.29" height="9.29" transform="translate(0 27.86) rotate(-90)"/><rect class="f" x="9.29" y="27.86" width="9.29" height="9.29" transform="translate(-18.57 46.43) rotate(-90)"/><rect class="f" x="9.29" y="46.43" width="9.29" height="9.29" transform="translate(-37.14 65) rotate(-90)"/><rect class="f" x="9.29" y="65" width="9.29" height="9.29" transform="translate(-55.71 83.57) rotate(-90)"/><rect class="f" x="9.29" y="83.57" width="9.29" height="9.29" transform="translate(-74.29 102.14) rotate(-90)"/><rect class="f" x="9.29" y="102.14" width="9.29" height="9.29" transform="translate(-92.86 120.71) rotate(-90)"/><rect class="f" x="9.29" y="120.71" width="9.29" height="9.29" transform="translate(-111.43 139.29) rotate(-90)"/><rect class="f" x="9.29" y="139.29" width="9.29" height="9.29" transform="translate(-130 157.86) rotate(-90)"/><rect class="f" x="9.29" y="157.86" width="9.29" height="9.29" transform="translate(-148.57 176.43) rotate(-90)"/><rect class="f" x="9.29" y="176.43" width="9.29" height="9.29" transform="translate(-167.14 195) rotate(-90)"/><rect class="f" x="176.43" y="18.57" width="9.29" height="9.29" transform="translate(157.86 204.29) rotate(-90)"/><rect class="f" x="176.43" y="37.14" width="9.29" height="9.29" transform="translate(139.29 222.86) rotate(-90)"/><rect class="f" x="176.43" y="55.71" width="9.29" height="9.29" transform="translate(120.71 241.43) rotate(-90)"/><rect class="f" x="176.43" y="74.29" width="9.29" height="9.29" transform="translate(102.14 260) rotate(-90)"/><rect class="f" x="176.43" y="92.86" width="9.29" height="9.29" transform="translate(83.57 278.57) rotate(-90)"/><rect class="f" x="176.43" y="111.43" width="9.29" height="9.29" transform="translate(65 297.14) rotate(-90)"/><rect class="f" x="176.43" y="130" width="9.29" height="9.29" transform="translate(46.43 315.71) rotate(-90)"/><rect class="f" x="176.43" y="148.57" width="9.29" height="9.29" transform="translate(27.86 334.29) rotate(-90)"/><rect class="f" x="176.43" y="167.14" width="9.29" height="9.29" transform="translate(9.29 352.86) rotate(-90)"/><rect class="f" x="176.43" y="185.71" width="9.29" height="9.29" transform="translate(-9.29 371.43) rotate(-90)"/></g><g><circle class="e" cx="58.61" cy="140.97" r="20.02"/><circle class="e" cx="135.94" cy="140.97" r="20.02"/><g><g><rect class="g" x="109.44" y="136.61" width="8.73" height="8.73" transform="translate(-27.16 254.78) rotate(-90)"/><rect class="g" x="154.6" y="136.61" width="8.73" height="8.73" transform="translate(17.99 299.94) rotate(-90)"/><g><rect class="g" x="132.02" y="114.03" width="8.73" height="8.73"/><rect class="g" x="140.75" y="118.4" width="8.73" height="8.73"/><rect class="g" x="123.29" y="118.4" width="8.73" height="8.73"/><rect class="g" x="149.49" y="122.76" width="8.73" height="8.73"/><rect class="g" x="152.6" y="127.87" width="8.73" height="8.73"/><rect class="g" x="114.55" y="122.76" width="8.73" height="8.73"/><rect class="g" x="111.44" y="127.87" width="8.73" height="8.73"/></g><g><rect class="g" x="132.02" y="159.18" width="8.73" height="8.73" transform="translate(272.77 327.1) rotate(-180)"/><rect class="g" x="123.29" y="154.82" width="8.73" height="8.73" transform="translate(255.31 318.37) rotate(-180)"/><rect class="g" x="140.75" y="154.82" width="8.73" height="8.73" transform="translate(290.24 318.37) rotate(-180)"/><rect class="g" x="114.55" y="150.45" width="8.73" height="8.73" transform="translate(237.84 309.63) rotate(-180)"/><rect class="g" x="111.44" y="145.34" width="8.73" height="8.73" transform="translate(231.62 299.41) rotate(-180)"/><rect class="g" x="149.49" y="150.45" width="8.73" height="8.73" transform="translate(307.71 309.63) rotate(-180)"/><rect class="g" x="152.6" y="145.34" width="8.73" height="8.73" transform="translate(313.93 299.41) rotate(-180)"/></g></g><g><rect class="g" x="31.67" y="136.61" width="8.73" height="8.73" transform="translate(-104.94 177.01) rotate(-90)"/><rect class="g" x="76.82" y="136.61" width="8.73" height="8.73" transform="translate(-59.78 222.16) rotate(-90)"/><g><rect class="g" x="54.25" y="114.03" width="8.73" height="8.73"/><rect class="g" x="62.98" y="118.4" width="8.73" height="8.73"/><rect class="g" x="45.51" y="118.4" width="8.73" height="8.73"/><rect class="g" x="71.71" y="122.76" width="8.73" height="8.73"/><rect class="g" x="74.82" y="127.87" width="8.73" height="8.73"/><rect class="g" x="36.78" y="122.76" width="8.73" height="8.73"/><rect class="g" x="33.67" y="127.87" width="8.73" height="8.73"/></g><g><rect class="g" x="54.25" y="159.18" width="8.73" height="8.73" transform="translate(117.23 327.1) rotate(-180)"/><rect class="g" x="45.51" y="154.82" width="8.73" height="8.73" transform="translate(99.76 318.37) rotate(-180)"/><rect class="g" x="62.98" y="154.82" width="8.73" height="8.73" transform="translate(134.69 318.37) rotate(-180)"/><rect class="g" x="36.78" y="150.45" width="8.73" height="8.73" transform="translate(82.29 309.63) rotate(-180)"/><rect class="g" x="33.67" y="145.34" width="8.73" height="8.73" transform="translate(76.07 299.41) rotate(-180)"/><rect class="g" x="71.71" y="150.45" width="8.73" height="8.73" transform="translate(152.16 309.63) rotate(-180)"/><rect class="g" x="74.82" y="145.34" width="8.73" height="8.73" transform="translate(158.38 299.41) rotate(-180)"/></g></g><rect class="g" x="93.12" y="99.84" width="8.73" height="8.73"/><rect class="g" x="96.88" y="100.25" width="8.73" height="8.73"/><rect class="g" x="96.88" y="108.98" width="8.73" height="8.73"/><rect class="g" x="100.71" y="113.35" width="8.73" height="8.73"/><rect class="g" x="100.71" y="122.08" width="8.73" height="8.73"/><rect class="g" x="106.17" y="125.19" width="8.73" height="8.73"/><rect class="g" x="80.45" y="125.14" width="8.73" height="8.73"/><rect class="g" x="84.81" y="122.08" width="8.73" height="8.73"/><rect class="g" x="84.81" y="113.35" width="8.73" height="8.73"/><rect class="g" x="88.75" y="108.98" width="8.73" height="8.73"/><rect class="g" x="88.75" y="100.25" width="8.73" height="8.73"/><rect class="g" x="93.12" y="91.11" width="8.73" height="8.73"/><rect class="g" x="93.12" y="82.38" width="8.73" height="8.73"/><rect class="g" x="97.49" y="80.04" width="8.73" height="8.73"/><rect class="g" x="101.25" y="71.3" width="8.73" height="8.73"/><rect class="g" x="105.08" y="62.57" width="8.73" height="8.73"/><rect class="g" x="109.44" y="53.84" width="8.73" height="8.73"/><rect class="g" x="113.81" y="45.1" width="8.73" height="8.73"/><rect class="g" x="118.18" y="36.37" width="8.73" height="8.73"/><rect class="g" x="88.75" y="80.04" width="8.73" height="8.73"/><rect class="g" x="84.39" y="71.3" width="8.73" height="8.73"/><rect class="g" x="80.45" y="62.57" width="8.73" height="8.73"/><rect class="g" x="76.08" y="53.84" width="8.73" height="8.73"/><rect class="g" x="72.46" y="45.1" width="8.73" height="8.73"/><rect class="g" x="67.35" y="36.37" width="8.73" height="8.73"/></g><rect class="f" x="45.51" y="146.08" width="8.73" height="8.73" transform="translate(-100.57 200.33) rotate(-90)"/><rect class="f" x="40.4" y="136.61" width="8.73" height="8.73" transform="translate(-96.2 185.74) rotate(-90)"/><rect class="f" x="42.4" y="131.5" width="8.73" height="8.73" transform="translate(-89.09 182.63) rotate(-90)"/><rect class="f" x="42.4" y="141.72" width="8.73" height="8.73" transform="translate(-99.31 192.85) rotate(-90)"/><rect class="f" x="54.25" y="150.45" width="8.73" height="8.73" transform="translate(-96.2 213.43) rotate(-90)"/><rect class="f" x="45.51" y="127.13" width="8.73" height="8.73" transform="translate(-81.62 181.38) rotate(-90)"/><rect class="f" x="54.25" y="122.76" width="8.73" height="8.73" transform="translate(-68.52 185.74) rotate(-90)"/><rect class="f" x="123.29" y="146.08" width="8.73" height="8.73" transform="translate(-22.8 278.1) rotate(-90)"/><rect class="f" x="118.18" y="136.61" width="8.73" height="8.73" transform="translate(-18.43 263.52) rotate(-90)"/><rect class="f" x="120.18" y="131.5" width="8.73" height="8.73" transform="translate(-11.32 260.41) rotate(-90)"/><rect class="f" x="120.18" y="141.72" width="8.73" height="8.73" transform="translate(-21.54 270.63) rotate(-90)"/><rect class="f" x="132.02" y="150.45" width="8.73" height="8.73" transform="translate(-18.43 291.2) rotate(-90)"/><rect class="f" x="123.29" y="127.13" width="8.73" height="8.73" transform="translate(-3.84 259.15) rotate(-90)"/><rect class="f" x="132.02" y="122.76" width="8.73" height="8.73" transform="translate(9.26 263.52) rotate(-90)"/></g></g></g></g></svg>