<?xml version="1.0" encoding="UTF-8"?><svg xmlns="http://www.w3.org/2000/svg" viewBox="0 0 195 204.29"><defs><style>.d{fill:#fff;}.e{fill:#f5f5f5;}.f{fill:#e0e0e0;}.g{fill:#9b9b9b;}</style></defs><g id="a"/><g id="b"><g id="c"><g><g><rect class="d" x="1.81" y="6.45" width="191.38" height="191.38"/><rect class="g" x="9.29" y="0" width="9.29" height="9.29" transform="translate(9.29 18.57) rotate(-90)"/><rect class="g" x="18.57" y="0" width="9.29" height="9.29" transform="translate(18.57 27.86) rotate(-90)"/><rect class="g" x="27.86" y="0" width="9.29" height="9.29" transform="translate(27.86 37.14) rotate(-90)"/><rect class="g" x="37.14" y="0" width="9.29" height="9.29" transform="translate(37.14 46.43) rotate(-90)"/><rect class="g" x="46.43" y="0" width="9.29" height="9.29" transform="translate(46.43 55.71) rotate(-90)"/><rect class="g" x="55.71" y="0" width="9.29" height="9.29" transform="translate(55.71 65) rotate(-90)"/><rect class="g" x="65" y="0" width="9.29" height="9.29" transform="translate(65 74.29) rotate(-90)"/><rect class="g" x="74.29" y="0" width="9.29" height="9.29" transform="translate(74.29 83.57) rotate(-90)"/><rect class="g" x="83.57" y="0" width="9.29" height="9.29" transform="translate(83.57 92.86) rotate(-90)"/><rect class="g" x="92.86" y="0" width="9.29" height="9.29" transform="translate(92.86 102.14) rotate(-90)"/><rect class="g" x="102.14" y="0" width="9.29" height="9.29" transform="translate(102.14 111.43) rotate(-90)"/><rect class="g" x="111.43" y="0" width="9.29" height="9.29" transform="translate(111.43 120.71) rotate(-90)"/><rect class="g" x="120.71" y="0" width="9.29" height="9.29" transform="translate(120.71 130) rotate(-90)"/><rect class="g" x="130" y="0" width="9.29" height="9.29" transform="translate(130 139.29) rotate(-90)"/><rect class="g" x="139.29" y="0" width="9.29" height="9.29" transform="translate(139.29 148.57) rotate(-90)"/><rect class="g" x="148.57" y="0" width="9.29" height="9.29" transform="translate(148.57 157.86) rotate(-90)"/><rect class="g" x="157.86" y="0" width="9.29" height="9.29" transform="translate(157.86 167.14) rotate(-90)"/><rect class="g" x="167.14" y="0" width="9.29" height="9.29" transform="translate(167.14 176.43) rotate(-90)"/><rect class="g" x="176.43" y="0" width="9.29" height="9.29" transform="translate(176.43 185.71) rotate(-90)"/><rect class="g" x="185.71" y="9.29" width="9.29" height="9.29" transform="translate(176.43 204.29) rotate(-90)"/><rect class="g" x="185.71" y="18.57" width="9.29" height="9.29" transform="translate(167.14 213.57) rotate(-90)"/><rect class="g" x="185.71" y="27.86" width="9.29" height="9.29" transform="translate(157.86 222.86) rotate(-90)"/><rect class="g" x="185.71" y="37.14" width="9.29" height="9.29" transform="translate(148.57 232.14) rotate(-90)"/><rect class="g" x="185.71" y="46.43" width="9.29" height="9.29" transform="translate(139.29 241.43) rotate(-90)"/><rect class="g" x="185.71" y="55.71" width="9.29" height="9.29" transform="translate(130 250.71) rotate(-90)"/><rect class="g" x="185.71" y="65" width="9.29" height="9.29" transform="translate(120.71 260) rotate(-90)"/><rect class="g" x="185.71" y="74.29" width="9.29" height="9.29" transform="translate(111.43 269.29) rotate(-90)"/><rect class="g" x="185.71" y="83.57" width="9.29" height="9.29" transform="translate(102.14 278.57) rotate(-90)"/><rect class="g" x="185.71" y="92.86" width="9.29" height="9.29" transform="translate(92.86 287.86) rotate(-90)"/><rect class="g" x="185.71" y="102.14" width="9.29" height="9.29" transform="translate(83.57 297.14) rotate(-90)"/><rect class="g" x="185.71" y="111.43" width="9.29" height="9.29" transform="translate(74.29 306.43) rotate(-90)"/><rect class="g" x="185.71" y="120.71" width="9.29" height="9.29" transform="translate(65 315.71) rotate(-90)"/><rect class="g" x="185.71" y="130" width="9.29" height="9.29" transform="translate(55.71 325) rotate(-90)"/><rect class="g" x="185.71" y="139.29" width="9.29" height="9.29" transform="translate(46.43 334.29) rotate(-90)"/><rect class="g" x="185.71" y="148.57" width="9.29" height="9.29" transform="translate(37.14 343.57) rotate(-90)"/><rect class="g" x="185.71" y="157.86" width="9.29" height="9.29" transform="translate(27.86 352.86) rotate(-90)"/><rect class="g" x="185.71" y="167.14" width="9.29" height="9.29" transform="translate(18.57 362.14) rotate(-90)"/><rect class="g" x="185.71" y="176.43" width="9.29" height="9.29" transform="translate(9.29 371.43) rotate(-90)"/><rect class="g" x="185.71" y="185.71" width="9.29" height="9.29" transform="translate(0 380.71) rotate(-90)"/><rect class="g" x="176.43" y="195" width="9.29" height="9.29" transform="translate(-18.57 380.71) rotate(-90)"/><rect class="g" x="167.14" y="195" width="9.29" height="9.29" transform="translate(-27.86 371.43) rotate(-90)"/><rect class="g" x="157.86" y="195" width="9.29" height="9.29" transform="translate(-37.14 362.14) rotate(-90)"/><rect class="g" x="148.57" y="195" width="9.29" height="9.29" transform="translate(-46.43 352.86) rotate(-90)"/><rect class="g" x="139.29" y="195" width="9.29" height="9.29" transform="translate(-55.71 343.57) rotate(-90)"/><rect class="g" x="130" y="195" width="9.29" height="9.29" transform="translate(-65 334.29) rotate(-90)"/><rect class="g" x="120.71" y="195" width="9.29" height="9.29" transform="translate(-74.29 325) rotate(-90)"/><rect class="g" x="111.43" y="195" width="9.29" height="9.29" transform="translate(-83.57 315.71) rotate(-90)"/><rect class="g" x="102.14" y="195" width="9.29" height="9.29" transform="translate(-92.86 306.43) rotate(-90)"/><rect class="g" x="92.86" y="195" width="9.29" height="9.29" transform="translate(-102.14 297.14) rotate(-90)"/><rect class="g" x="83.57" y="195" width="9.29" height="9.29" transform="translate(-111.43 287.86) rotate(-90)"/><rect class="g" x="74.29" y="195" width="9.29" height="9.29" transform="translate(-120.71 278.57) rotate(-90)"/><rect class="g" x="65" y="195" width="9.29" height="9.29" transform="translate(-130 269.29) rotate(-90)"/><rect class="g" x="55.71" y="195" width="9.29" height="9.29" transform="translate(-139.29 260) rotate(-90)"/><rect class="g" x="46.43" y="195" width="9.29" height="9.29" transform="translate(-148.57 250.71) rotate(-90)"/><rect class="g" x="37.14" y="195" width="9.29" height="9.29" transform="translate(-157.86 241.43) rotate(-90)"/><rect class="g" x="27.86" y="195" width="9.29" height="9.29" transform="translate(-167.14 232.14) rotate(-90)"/><rect class="g" x="18.57" y="195" width="9.29" height="9.29" transform="translate(-176.43 222.86) rotate(-90)"/><rect class="g" x="9.29" y="195" width="9.29" height="9.29" transform="translate(-185.71 213.57) rotate(-90)"/><rect class="g" x="0" y="185.71" width="9.29" height="9.29" transform="translate(-185.71 195) rotate(-90)"/><rect class="g" x="0" y="176.43" width="9.29" height="9.29" transform="translate(-176.43 185.71) rotate(-90)"/><rect class="g" x="0" y="167.14" width="9.29" height="9.29" transform="translate(-167.14 176.43) rotate(-90)"/><rect class="g" x="0" y="157.86" width="9.29" height="9.29" transform="translate(-157.86 167.14) rotate(-90)"/><rect class="g" x="0" y="148.57" width="9.29" height="9.29" transform="translate(-148.57 157.86) rotate(-90)"/><rect class="g" x="0" y="139.29" width="9.29" height="9.29" transform="translate(-139.29 148.57) rotate(-90)"/><rect class="g" x="0" y="130" width="9.29" height="9.29" transform="translate(-130 139.29) rotate(-90)"/><rect class="g" x="0" y="120.71" width="9.29" height="9.29" transform="translate(-120.71 130) rotate(-90)"/><rect class="g" x="0" y="111.43" width="9.29" height="9.29" transform="translate(-111.43 120.71) rotate(-90)"/><rect class="g" x="0" y="102.14" width="9.29" height="9.29" transform="translate(-102.14 111.43) rotate(-90)"/><rect class="g" x="0" y="92.86" width="9.29" height="9.29" transform="translate(-92.86 102.14) rotate(-90)"/><rect class="g" x="0" y="83.57" width="9.29" height="9.29" transform="translate(-83.57 92.86) rotate(-90)"/><rect class="g" x="0" y="74.29" width="9.29" height="9.29" transform="translate(-74.29 83.57) rotate(-90)"/><rect class="g" x="0" y="65" width="9.29" height="9.29" transform="translate(-65 74.29) rotate(-90)"/><rect class="g" x="0" y="55.71" width="9.29" height="9.29" transform="translate(-55.71 65) rotate(-90)"/><rect class="g" x="0" y="46.43" width="9.29" height="9.29" transform="translate(-46.43 55.71) rotate(-90)"/><rect class="g" x="0" y="37.14" width="9.29" height="9.29" transform="translate(-37.14 46.43) rotate(-90)"/><rect class="g" x="0" y="27.86" width="9.29" height="9.29" transform="translate(-27.86 37.14) rotate(-90)"/><rect class="g" x="0" y="18.57" width="9.29" height="9.29" transform="translate(-18.57 27.86) rotate(-90)"/><rect class="g" x="0" y="9.29" width="9.29" height="9.29" transform="translate(-9.29 18.57) rotate(-90)"/><rect class="f" x="9.29" y="9.29" width="9.29" height="9.29" transform="translate(0 27.86) rotate(-90)"/><rect class="f" x="9.29" y="27.86" width="9.29" height="9.29" transform="translate(-18.57 46.43) rotate(-90)"/><rect class="f" x="9.29" y="46.43" width="9.29" height="9.29" transform="translate(-37.14 65) rotate(-90)"/><rect class="f" x="9.29" y="65" width="9.29" height="9.29" transform="translate(-55.71 83.57) rotate(-90)"/><rect class="f" x="9.29" y="83.57" width="9.29" height="9.29" transform="translate(-74.29 102.14) rotate(-90)"/><rect class="f" x="9.29" y="102.14" width="9.29" height="9.29" transform="translate(-92.86 120.71) rotate(-90)"/><rect class="f" x="9.29" y="120.71" width="9.29" height="9.29" transform="translate(-111.43 139.29) rotate(-90)"/><rect class="f" x="9.29" y="139.29" width="9.29" height="9.29" transform="translate(-130 157.86) rotate(-90)"/><rect class="f" x="9.29" y="157.86" width="9.29" height="9.29" transform="translate(-148.57 176.43) rotate(-90)"/><rect class="f" x="9.29" y="176.43" width="9.29" height="9.29" transform="translate(-167.14 195) rotate(-90)"/><rect class="f" x="176.43" y="18.57" width="9.29" height="9.29" transform="translate(157.86 204.29) rotate(-90)"/><rect class="f" x="176.43" y="37.14" width="9.29" height="9.29" transform="translate(139.29 222.86) rotate(-90)"/><rect class="f" x="176.43" y="55.71" width="9.29" height="9.29" transform="translate(120.71 241.43) rotate(-90)"/><rect class="f" x="176.43" y="74.29" width="9.29" height="9.29" transform="translate(102.14 260) rotate(-90)"/><rect class="f" x="176.43" y="92.86" width="9.29" height="9.29" transform="translate(83.57 278.57) rotate(-90)"/><rect class="f" x="176.43" y="111.43" width="9.29" height="9.29" transform="translate(65 297.14) rotate(-90)"/><rect class="f" x="176.43" y="130" width="9.29" height="9.29" transform="translate(46.43 315.71) rotate(-90)"/><rect class="f" x="176.43" y="148.57" width="9.29" height="9.29" transform="translate(27.86 334.29) rotate(-90)"/><rect class="f" x="176.43" y="167.14" width="9.29" height="9.29" transform="translate(9.29 352.86) rotate(-90)"/><rect class="f" x="176.43" y="185.71" width="9.29" height="9.29" transform="translate(-9.29 371.43) rotate(-90)"/></g><g><polygon class="e" points="34.22 137.08 34.22 42.42 111.44 39.98 112.27 68.86 160.62 67.3 160.62 161.29 82.31 162.21 81.41 137.08 34.22 137.08"/><rect class="f" x="36.36" y="85.58" width="8.73" height="8.73" transform="translate(-49.21 130.68) rotate(-90)"/><path class="f" d="M33.29,135.57l77.31,1.93-.11-16.17-9.66-2.67-7.69-7.79-5.43-6.53h-5.19l-8.03,9.95s-3.23,1.89-4.37,.94-5.51-3.67-5.51-3.67c0,0-8.01-10.17-8.32-10.37s-6.82-7.79-6.82-7.79l-4.37-.55s-5.59,6.1-6.1,6.61-7,4.78-7,4.78l1.29,31.32Z"/><rect class="f" x="84.4" y="141.44" width="8.73" height="8.73" transform="translate(-57.04 234.58) rotate(-90)"/><rect class="f" x="101.87" y="141.44" width="8.73" height="8.73" transform="translate(-39.58 252.04) rotate(-90)"/><rect class="f" x="93.13" y="150.18" width="8.73" height="8.73" transform="translate(-57.04 252.04) rotate(-90)"/><rect class="f" x="110.6" y="150.18" width="8.73" height="8.73" transform="translate(-39.58 269.51) rotate(-90)"/><rect class="f" x="128.07" y="150.18" width="8.73" height="8.73" transform="translate(-22.11 286.98) rotate(-90)"/><rect class="f" x="145.53" y="150.18" width="8.73" height="8.73" transform="translate(-4.64 304.45) rotate(-90)"/><rect class="f" x="145.53" y="132.71" width="8.73" height="8.73" transform="translate(12.82 286.98) rotate(-90)"/><rect class="f" x="145.53" y="115.24" width="8.73" height="8.73" transform="translate(30.29 269.51) rotate(-90)"/><rect class="f" x="145.53" y="97.78" width="8.73" height="8.73" transform="translate(47.76 252.04) rotate(-90)"/><rect class="f" x="145.53" y="80.31" width="8.73" height="8.73" transform="translate(65.23 234.58) rotate(-90)"/><rect class="g" x="32" y="36.64" width="8.73" height="8.73" transform="translate(-4.64 77.37) rotate(-90)"/><rect class="g" x="27.63" y="45.37" width="8.73" height="8.73" transform="translate(-17.74 81.74) rotate(-90)"/><rect class="g" x="32" y="54.11" width="8.73" height="8.73" transform="translate(-22.11 94.84) rotate(-90)"/><rect class="g" x="27.63" y="62.84" width="8.73" height="8.73" transform="translate(-35.21 99.21) rotate(-90)"/><rect class="g" x="32" y="71.58" width="8.73" height="8.73" transform="translate(-39.58 112.31) rotate(-90)"/><rect class="g" x="27.63" y="80.31" width="8.73" height="8.73" transform="translate(-52.68 116.67) rotate(-90)"/><rect class="g" x="27.65" y="89.04" width="8.73" height="8.73" transform="translate(-61.39 125.43) rotate(-90)"/><rect class="g" x="27.63" y="97.78" width="8.73" height="8.73" transform="translate(-70.14 134.14) rotate(-90)"/><rect class="g" x="32" y="106.51" width="8.73" height="8.73" transform="translate(-74.51 147.24) rotate(-90)"/><rect class="g" x="27.63" y="115.24" width="8.73" height="8.73" transform="translate(-87.61 151.61) rotate(-90)"/><rect class="g" x="32" y="123.98" width="8.73" height="8.73" transform="translate(-91.98 164.71) rotate(-90)"/><rect class="g" x="27.63" y="132.71" width="8.73" height="8.73" transform="translate(-105.08 169.08) rotate(-90)"/><rect class="g" x="36.36" y="132.71" width="8.73" height="8.73" transform="translate(-96.35 177.81) rotate(-90)"/><rect class="g" x="45.1" y="132.71" width="8.73" height="8.73" transform="translate(-87.61 186.54) rotate(-90)"/><rect class="g" x="53.83" y="132.71" width="8.73" height="8.73" transform="translate(-78.88 195.28) rotate(-90)"/><rect class="g" x="62.57" y="132.71" width="8.73" height="8.73" transform="translate(-70.14 204.01) rotate(-90)"/><rect class="g" x="71.3" y="132.71" width="8.73" height="8.73" transform="translate(-61.41 212.74) rotate(-90)"/><rect class="g" x="75.67" y="141.44" width="8.73" height="8.73" transform="translate(-65.78 225.84) rotate(-90)"/><rect class="g" x="80.03" y="150.18" width="8.73" height="8.73" transform="translate(-70.14 238.94) rotate(-90)"/><rect class="g" x="75.67" y="158.91" width="8.73" height="8.73" transform="translate(-83.25 243.31) rotate(-90)"/><rect class="g" x="84.4" y="158.91" width="8.73" height="8.73" transform="translate(-74.51 252.04) rotate(-90)"/><rect class="g" x="93.13" y="158.91" width="8.73" height="8.73" transform="translate(-65.78 260.78) rotate(-90)"/><rect class="g" x="101.87" y="158.91" width="8.73" height="8.73" transform="translate(-57.04 269.51) rotate(-90)"/><rect class="g" x="110.6" y="158.91" width="8.73" height="8.73" transform="translate(-48.31 278.25) rotate(-90)"/><rect class="g" x="119.33" y="158.91" width="8.73" height="8.73" transform="translate(-39.58 286.98) rotate(-90)"/><rect class="g" x="128.07" y="158.91" width="8.73" height="8.73" transform="translate(-30.84 295.71) rotate(-90)"/><rect class="g" x="136.8" y="158.91" width="8.73" height="8.73" transform="translate(-22.11 304.45) rotate(-90)"/><rect class="g" x="145.53" y="158.91" width="8.73" height="8.73" transform="translate(-13.38 313.18) rotate(-90)"/><rect class="g" x="156.45" y="156.73" width="8.73" height="13.1" transform="translate(-2.46 324.1) rotate(-90)"/><rect class="g" x="154.27" y="150.18" width="8.73" height="8.73" transform="translate(4.09 313.18) rotate(-90)"/><rect class="g" x="158.64" y="141.44" width="8.73" height="8.73" transform="translate(17.19 308.81) rotate(-90)"/><rect class="g" x="154.27" y="132.71" width="8.73" height="8.73" transform="translate(21.56 295.71) rotate(-90)"/><rect class="g" x="158.64" y="123.98" width="8.73" height="8.73" transform="translate(34.66 291.35) rotate(-90)"/><rect class="g" x="154.27" y="115.24" width="8.73" height="8.73" transform="translate(39.03 278.25) rotate(-90)"/><rect class="g" x="158.64" y="106.51" width="8.73" height="8.73" transform="translate(52.13 273.88) rotate(-90)"/><rect class="g" x="154.27" y="97.78" width="8.73" height="8.73" transform="translate(56.49 260.78) rotate(-90)"/><rect class="g" x="158.64" y="89.04" width="8.73" height="8.73" transform="translate(69.59 256.41) rotate(-90)"/><rect class="g" x="154.27" y="80.31" width="8.73" height="8.73" transform="translate(73.96 243.31) rotate(-90)"/><rect class="g" x="158.64" y="71.58" width="8.73" height="8.73" transform="translate(87.06 238.94) rotate(-90)"/><rect class="g" x="154.27" y="62.84" width="8.73" height="8.73" transform="translate(91.43 225.84) rotate(-90)"/><rect class="g" x="145.53" y="62.84" width="8.73" height="8.73" transform="translate(82.69 217.11) rotate(-90)"/><rect class="g" x="136.8" y="62.84" width="8.73" height="8.73" transform="translate(73.96 208.38) rotate(-90)"/><rect class="g" x="128.07" y="62.84" width="8.73" height="8.73" transform="translate(65.23 199.64) rotate(-90)"/><rect class="g" x="119.33" y="62.84" width="8.73" height="8.73" transform="translate(56.49 190.91) rotate(-90)"/><rect class="g" x="110.6" y="62.84" width="8.73" height="8.73" transform="translate(47.76 182.18) rotate(-90)"/><rect class="g" x="101.87" y="117.86" width="8.73" height="8.73" transform="translate(-15.99 228.46) rotate(-90)"/><rect class="g" x="98.1" y="114.3" width="8.73" height="8.73" transform="translate(-16.2 221.14) rotate(-90)"/><rect class="g" x="89.68" y="109.93" width="8.73" height="8.73" transform="translate(-20.25 208.35) rotate(-90)"/><rect class="g" x="85.93" y="101.2" width="8.73" height="8.73" transform="translate(-15.27 195.86) rotate(-90)"/><rect class="g" x="81.56" y="97.06" width="8.73" height="8.73" transform="translate(-15.5 187.35) rotate(-90)"/><rect class="g" x="80.95" y="60.95" width="8.73" height="8.73" transform="translate(20 150.64) rotate(-90)"/><rect class="g" x="85.32" y="60.95" width="8.73" height="8.73" transform="translate(24.36 155) rotate(-90)"/><rect class="g" x="80.95" y="65.32" width="8.73" height="8.73" transform="translate(15.63 155) rotate(-90)"/><rect class="g" x="80.95" y="56.59" width="8.73" height="8.73" transform="translate(24.36 146.27) rotate(-90)"/><rect class="g" x="76.58" y="60.95" width="8.73" height="8.73" transform="translate(15.63 146.27) rotate(-90)"/><rect class="g" x="77.19" y="101.2" width="8.73" height="8.73" transform="translate(-24.01 187.12) rotate(-90)"/><rect class="g" x="73.33" y="109.93" width="8.73" height="8.73" transform="translate(-36.6 191.99) rotate(-90)"/><rect class="g" x="36.36" y="94.23" width="8.73" height="8.73" transform="translate(-57.86 139.33) rotate(-90)"/><rect class="g" x="33.29" y="98.6" width="8.73" height="8.73" transform="translate(-65.31 140.62) rotate(-90)"/><rect class="g" x="40.73" y="89.04" width="8.73" height="8.73" transform="translate(-48.31 138.51) rotate(-90)"/><rect class="g" x="45.88" y="89.04" width="8.73" height="8.73" transform="translate(-43.16 143.66) rotate(-90)"/><rect class="g" x="49.47" y="94.23" width="8.73" height="8.73" transform="translate(-44.76 152.43) rotate(-90)"/><rect class="g" x="52.41" y="98.6" width="8.73" height="8.73" transform="translate(-46.18 159.74) rotate(-90)"/><rect class="g" x="56.78" y="102.14" width="8.73" height="8.73" transform="translate(-45.36 167.65) rotate(-90)"/><rect class="g" x="60.24" y="106.51" width="8.73" height="8.73" transform="translate(-46.27 175.48) rotate(-90)"/><rect class="g" x="64.6" y="109.93" width="8.73" height="8.73" transform="translate(-45.33 183.27) rotate(-90)"/><rect class="g" x="68.96" y="114.3" width="8.73" height="8.73" transform="translate(-45.34 191.99) rotate(-90)"/><rect class="g" x="80.03" y="132.71" width="8.73" height="8.73" transform="translate(-52.68 221.48) rotate(-90)"/><rect class="g" x="88.77" y="132.71" width="8.73" height="8.73" transform="translate(-43.94 230.21) rotate(-90)"/><rect class="g" x="97.5" y="132.71" width="8.73" height="8.73" transform="translate(-35.21 238.94) rotate(-90)"/><rect class="g" x="107.19" y="129.3" width="8.73" height="15.56" transform="translate(-25.52 248.63) rotate(-90)"/><rect class="g" x="106.23" y="123.98" width="8.73" height="8.73" transform="translate(-17.74 238.94) rotate(-90)"/><rect class="g" x="108.72" y="113.36" width="8.73" height="12.5" transform="translate(-6.52 232.7) rotate(-90)"/><rect class="g" x="106.23" y="106.51" width="8.73" height="8.73" transform="translate(-.28 221.48) rotate(-90)"/><rect class="g" x="110.6" y="97.78" width="8.73" height="8.73" transform="translate(12.82 217.11) rotate(-90)"/><rect class="g" x="106.23" y="89.04" width="8.73" height="8.73" transform="translate(17.19 204.01) rotate(-90)"/><rect class="g" x="110.6" y="80.31" width="8.73" height="8.73" transform="translate(30.29 199.64) rotate(-90)"/><rect class="g" x="106.23" y="71.58" width="8.73" height="8.73" transform="translate(34.66 186.54) rotate(-90)"/><rect class="g" x="110.6" y="62.84" width="8.73" height="8.73" transform="translate(47.76 182.18) rotate(-90)"/><rect class="g" x="106.23" y="54.11" width="8.73" height="8.73" transform="translate(52.13 169.08) rotate(-90)"/><rect class="g" x="110.6" y="45.37" width="8.73" height="8.73" transform="translate(65.23 164.71) rotate(-90)"/><rect class="g" x="106.23" y="36.64" width="8.73" height="8.73" transform="translate(69.59 151.61) rotate(-90)"/><rect class="g" x="97.5" y="36.64" width="8.73" height="8.73" transform="translate(60.86 142.87) rotate(-90)"/><rect class="g" x="88.77" y="36.64" width="8.73" height="8.73" transform="translate(52.13 134.14) rotate(-90)"/><rect class="g" x="80.03" y="36.64" width="8.73" height="8.73" transform="translate(43.39 125.41) rotate(-90)"/><rect class="g" x="71.3" y="36.64" width="8.73" height="8.73" transform="translate(34.66 116.67) rotate(-90)"/><rect class="g" x="62.57" y="36.64" width="8.73" height="8.73" transform="translate(25.92 107.94) rotate(-90)"/><rect class="g" x="53.83" y="36.64" width="8.73" height="8.73" transform="translate(17.19 99.21) rotate(-90)"/><rect class="g" x="45.1" y="36.64" width="8.73" height="8.73" transform="translate(8.46 90.47) rotate(-90)"/><rect class="g" x="36.36" y="36.64" width="8.73" height="8.73" transform="translate(-.28 81.74) rotate(-90)"/><rect class="f" x="40.73" y="62.84" width="8.73" height="8.73" transform="translate(-22.11 112.31) rotate(-90)"/><rect class="f" x="40.73" y="80.31" width="8.73" height="8.73" transform="translate(-39.58 129.77) rotate(-90)"/><rect class="f" x="36.36" y="80.31" width="8.73" height="8.73" transform="translate(-43.94 125.41) rotate(-90)"/><rect class="f" x="49.47" y="71.58" width="8.73" height="8.73" transform="translate(-22.11 129.77) rotate(-90)"/><rect class="f" x="49.47" y="54.11" width="8.73" height="8.73" transform="translate(-4.64 112.31) rotate(-90)"/><rect class="f" x="40.73" y="45.37" width="8.73" height="8.73" transform="translate(-4.64 94.84) rotate(-90)"/></g></g></g></g></svg>