<?xml version="1.0" encoding="UTF-8"?><svg xmlns="http://www.w3.org/2000/svg" viewBox="0 0 195 204.29"><defs><style>.d{fill:#fff;}.e{fill:#f5f5f5;}.f{fill:#e0e0e0;}.g{fill:#9b9b9b;}</style></defs><g id="a"/><g id="b"><g id="c"><g><g><rect class="d" x="1.81" y="6.45" width="191.38" height="191.38"/><rect class="g" x="9.29" y="0" width="9.29" height="9.29" transform="translate(9.29 18.57) rotate(-90)"/><rect class="g" x="18.57" y="0" width="9.29" height="9.29" transform="translate(18.57 27.86) rotate(-90)"/><rect class="g" x="27.86" y="0" width="9.29" height="9.29" transform="translate(27.86 37.14) rotate(-90)"/><rect class="g" x="37.14" y="0" width="9.29" height="9.29" transform="translate(37.14 46.43) rotate(-90)"/><rect class="g" x="46.43" y="0" width="9.29" height="9.29" transform="translate(46.43 55.71) rotate(-90)"/><rect class="g" x="55.71" y="0" width="9.29" height="9.29" transform="translate(55.71 65) rotate(-90)"/><rect class="g" x="65" y="0" width="9.29" height="9.29" transform="translate(65 74.29) rotate(-90)"/><rect class="g" x="74.29" y="0" width="9.29" height="9.29" transform="translate(74.29 83.57) rotate(-90)"/><rect class="g" x="83.57" y="0" width="9.29" height="9.29" transform="translate(83.57 92.86) rotate(-90)"/><rect class="g" x="92.86" y="0" width="9.29" height="9.29" transform="translate(92.86 102.14) rotate(-90)"/><rect class="g" x="102.14" y="0" width="9.29" height="9.29" transform="translate(102.14 111.43) rotate(-90)"/><rect class="g" x="111.43" y="0" width="9.29" height="9.29" transform="translate(111.43 120.71) rotate(-90)"/><rect class="g" x="120.71" y="0" width="9.29" height="9.29" transform="translate(120.71 130) rotate(-90)"/><rect class="g" x="130" y="0" width="9.29" height="9.29" transform="translate(130 139.29) rotate(-90)"/><rect class="g" x="139.29" y="0" width="9.29" height="9.29" transform="translate(139.29 148.57) rotate(-90)"/><rect class="g" x="148.57" y="0" width="9.29" height="9.29" transform="translate(148.57 157.86) rotate(-90)"/><rect class="g" x="157.86" y="0" width="9.29" height="9.29" transform="translate(157.86 167.14) rotate(-90)"/><rect class="g" x="167.14" y="0" width="9.29" height="9.29" transform="translate(167.14 176.43) rotate(-90)"/><rect class="g" x="176.43" y="0" width="9.29" height="9.29" transform="translate(176.43 185.71) rotate(-90)"/><rect class="g" x="185.71" y="9.29" width="9.29" height="9.29" transform="translate(176.43 204.29) rotate(-90)"/><rect class="g" x="185.71" y="18.57" width="9.29" height="9.29" transform="translate(167.14 213.57) rotate(-90)"/><rect class="g" x="185.71" y="27.86" width="9.29" height="9.29" transform="translate(157.86 222.86) rotate(-90)"/><rect class="g" x="185.71" y="37.14" width="9.29" height="9.29" transform="translate(148.57 232.14) rotate(-90)"/><rect class="g" x="185.71" y="46.43" width="9.29" height="9.29" transform="translate(139.29 241.43) rotate(-90)"/><rect class="g" x="185.71" y="55.71" width="9.29" height="9.29" transform="translate(130 250.71) rotate(-90)"/><rect class="g" x="185.71" y="65" width="9.29" height="9.29" transform="translate(120.71 260) rotate(-90)"/><rect class="g" x="185.71" y="74.29" width="9.29" height="9.29" transform="translate(111.43 269.29) rotate(-90)"/><rect class="g" x="185.71" y="83.57" width="9.29" height="9.29" transform="translate(102.14 278.57) rotate(-90)"/><rect class="g" x="185.71" y="92.86" width="9.29" height="9.29" transform="translate(92.86 287.86) rotate(-90)"/><rect class="g" x="185.71" y="102.14" width="9.29" height="9.29" transform="translate(83.57 297.14) rotate(-90)"/><rect class="g" x="185.71" y="111.43" width="9.29" height="9.29" transform="translate(74.29 306.43) rotate(-90)"/><rect class="g" x="185.71" y="120.71" width="9.29" height="9.29" transform="translate(65 315.71) rotate(-90)"/><rect class="g" x="185.71" y="130" width="9.29" height="9.29" transform="translate(55.71 325) rotate(-90)"/><rect class="g" x="185.71" y="139.29" width="9.29" height="9.29" transform="translate(46.43 334.29) rotate(-90)"/><rect class="g" x="185.71" y="148.57" width="9.29" height="9.29" transform="translate(37.14 343.57) rotate(-90)"/><rect class="g" x="185.71" y="157.86" width="9.29" height="9.29" transform="translate(27.86 352.86) rotate(-90)"/><rect class="g" x="185.71" y="167.14" width="9.29" height="9.29" transform="translate(18.57 362.14) rotate(-90)"/><rect class="g" x="185.71" y="176.43" width="9.29" height="9.29" transform="translate(9.29 371.43) rotate(-90)"/><rect class="g" x="185.71" y="185.71" width="9.29" height="9.29" transform="translate(0 380.71) rotate(-90)"/><rect class="g" x="176.43" y="195" width="9.29" height="9.29" transform="translate(-18.57 380.71) rotate(-90)"/><rect class="g" x="167.14" y="195" width="9.29" height="9.29" transform="translate(-27.86 371.43) rotate(-90)"/><rect class="g" x="157.86" y="195" width="9.29" height="9.29" transform="translate(-37.14 362.14) rotate(-90)"/><rect class="g" x="148.57" y="195" width="9.29" height="9.29" transform="translate(-46.43 352.86) rotate(-90)"/><rect class="g" x="139.29" y="195" width="9.29" height="9.29" transform="translate(-55.71 343.57) rotate(-90)"/><rect class="g" x="130" y="195" width="9.29" height="9.29" transform="translate(-65 334.29) rotate(-90)"/><rect class="g" x="120.71" y="195" width="9.29" height="9.29" transform="translate(-74.29 325) rotate(-90)"/><rect class="g" x="111.43" y="195" width="9.29" height="9.29" transform="translate(-83.57 315.71) rotate(-90)"/><rect class="g" x="102.14" y="195" width="9.29" height="9.29" transform="translate(-92.86 306.43) rotate(-90)"/><rect class="g" x="92.86" y="195" width="9.29" height="9.29" transform="translate(-102.14 297.14) rotate(-90)"/><rect class="g" x="83.57" y="195" width="9.29" height="9.29" transform="translate(-111.43 287.86) rotate(-90)"/><rect class="g" x="74.29" y="195" width="9.29" height="9.29" transform="translate(-120.71 278.57) rotate(-90)"/><rect class="g" x="65" y="195" width="9.29" height="9.29" transform="translate(-130 269.29) rotate(-90)"/><rect class="g" x="55.71" y="195" width="9.29" height="9.29" transform="translate(-139.29 260) rotate(-90)"/><rect class="g" x="46.43" y="195" width="9.29" height="9.29" transform="translate(-148.57 250.71) rotate(-90)"/><rect class="g" x="37.14" y="195" width="9.29" height="9.29" transform="translate(-157.86 241.43) rotate(-90)"/><rect class="g" x="27.86" y="195" width="9.29" height="9.29" transform="translate(-167.14 232.14) rotate(-90)"/><rect class="g" x="18.57" y="195" width="9.29" height="9.29" transform="translate(-176.43 222.86) rotate(-90)"/><rect class="g" x="9.29" y="195" width="9.29" height="9.29" transform="translate(-185.71 213.57) rotate(-90)"/><rect class="g" x="0" y="185.71" width="9.29" height="9.29" transform="translate(-185.71 195) rotate(-90)"/><rect class="g" x="0" y="176.43" width="9.29" height="9.29" transform="translate(-176.43 185.71) rotate(-90)"/><rect class="g" x="0" y="167.14" width="9.29" height="9.29" transform="translate(-167.14 176.43) rotate(-90)"/><rect class="g" x="0" y="157.86" width="9.29" height="9.29" transform="translate(-157.86 167.14) rotate(-90)"/><rect class="g" x="0" y="148.57" width="9.29" height="9.29" transform="translate(-148.57 157.86) rotate(-90)"/><rect class="g" x="0" y="139.29" width="9.29" height="9.29" transform="translate(-139.29 148.57) rotate(-90)"/><rect class="g" x="0" y="130" width="9.29" height="9.29" transform="translate(-130 139.29) rotate(-90)"/><rect class="g" x="0" y="120.71" width="9.29" height="9.29" transform="translate(-120.71 130) rotate(-90)"/><rect class="g" x="0" y="111.43" width="9.29" height="9.29" transform="translate(-111.43 120.71) rotate(-90)"/><rect class="g" x="0" y="102.14" width="9.29" height="9.29" transform="translate(-102.14 111.43) rotate(-90)"/><rect class="g" x="0" y="92.86" width="9.29" height="9.29" transform="translate(-92.86 102.14) rotate(-90)"/><rect class="g" x="0" y="83.57" width="9.29" height="9.29" transform="translate(-83.57 92.86) rotate(-90)"/><rect class="g" x="0" y="74.29" width="9.29" height="9.29" transform="translate(-74.29 83.57) rotate(-90)"/><rect class="g" x="0" y="65" width="9.29" height="9.29" transform="translate(-65 74.29) rotate(-90)"/><rect class="g" x="0" y="55.71" width="9.29" height="9.29" transform="translate(-55.71 65) rotate(-90)"/><rect class="g" x="0" y="46.43" width="9.29" height="9.29" transform="translate(-46.43 55.71) rotate(-90)"/><rect class="g" x="0" y="37.14" width="9.29" height="9.29" transform="translate(-37.14 46.43) rotate(-90)"/><rect class="g" x="0" y="27.86" width="9.29" height="9.29" transform="translate(-27.86 37.14) rotate(-90)"/><rect class="g" x="0" y="18.57" width="9.29" height="9.29" transform="translate(-18.57 27.86) rotate(-90)"/><rect class="g" x="0" y="9.29" width="9.29" height="9.29" transform="translate(-9.29 18.57) rotate(-90)"/><rect class="f" x="9.29" y="9.29" width="9.29" height="9.29" transform="translate(0 27.86) rotate(-90)"/><rect class="f" x="9.29" y="27.86" width="9.29" height="9.29" transform="translate(-18.57 46.43) rotate(-90)"/><rect class="f" x="9.29" y="46.43" width="9.29" height="9.29" transform="translate(-37.14 65) rotate(-90)"/><rect class="f" x="9.29" y="65" width="9.29" height="9.29" transform="translate(-55.71 83.57) rotate(-90)"/><rect class="f" x="9.29" y="83.57" width="9.29" height="9.29" transform="translate(-74.29 102.14) rotate(-90)"/><rect class="f" x="9.29" y="102.14" width="9.29" height="9.29" transform="translate(-92.86 120.71) rotate(-90)"/><rect class="f" x="9.29" y="120.71" width="9.29" height="9.29" transform="translate(-111.43 139.29) rotate(-90)"/><rect class="f" x="9.29" y="139.29" width="9.29" height="9.29" transform="translate(-130 157.86) rotate(-90)"/><rect class="f" x="9.29" y="157.86" width="9.29" height="9.29" transform="translate(-148.57 176.43) rotate(-90)"/><rect class="f" x="9.29" y="176.43" width="9.29" height="9.29" transform="translate(-167.14 195) rotate(-90)"/><rect class="f" x="176.43" y="18.57" width="9.29" height="9.29" transform="translate(157.86 204.29) rotate(-90)"/><rect class="f" x="176.43" y="37.14" width="9.29" height="9.29" transform="translate(139.29 222.86) rotate(-90)"/><rect class="f" x="176.43" y="55.71" width="9.29" height="9.29" transform="translate(120.71 241.43) rotate(-90)"/><rect class="f" x="176.43" y="74.29" width="9.29" height="9.29" transform="translate(102.14 260) rotate(-90)"/><rect class="f" x="176.43" y="92.86" width="9.29" height="9.29" transform="translate(83.57 278.57) rotate(-90)"/><rect class="f" x="176.43" y="111.43" width="9.29" height="9.29" transform="translate(65 297.14) rotate(-90)"/><rect class="f" x="176.43" y="130" width="9.29" height="9.29" transform="translate(46.43 315.71) rotate(-90)"/><rect class="f" x="176.43" y="148.57" width="9.29" height="9.29" transform="translate(27.86 334.29) rotate(-90)"/><rect class="f" x="176.43" y="167.14" width="9.29" height="9.29" transform="translate(9.29 352.86) rotate(-90)"/><rect class="f" x="176.43" y="185.71" width="9.29" height="9.29" transform="translate(-9.29 371.43) rotate(-90)"/></g><g><polygon class="e" points="37.36 88.01 36.81 167.64 128.34 167.64 128.34 87.19 37.36 88.01"/><rect class="f" x="43.18" y="154.54" width="8.73" height="8.73" transform="translate(-111.36 206.46) rotate(-90)"/><rect class="f" x="60.65" y="154.54" width="8.73" height="8.73" transform="translate(-93.9 223.93) rotate(-90)"/><rect class="f" x="43.18" y="137.08" width="8.73" height="8.73" transform="translate(-93.9 188.99) rotate(-90)"/><rect class="f" x="43.18" y="119.61" width="8.73" height="8.73" transform="translate(-76.43 171.52) rotate(-90)"/><rect class="f" x="43.18" y="102.14" width="8.73" height="8.73" transform="translate(-58.96 154.06) rotate(-90)"/><rect class="f" x="51.91" y="93.41" width="8.73" height="8.73" transform="translate(-41.5 154.06) rotate(-90)"/><rect class="f" x="113.05" y="102.14" width="8.73" height="8.73" transform="translate(10.91 223.93) rotate(-90)"/><rect class="f" x="121.78" y="93.41" width="8.73" height="8.73" transform="translate(28.37 223.93) rotate(-90)"/><rect class="f" x="104.32" y="93.41" width="8.73" height="8.73" transform="translate(10.91 206.46) rotate(-90)"/><rect class="f" x="104.32" y="110.88" width="8.73" height="8.73" transform="translate(-6.56 223.93) rotate(-90)"/><rect class="f" x="104.32" y="128.34" width="8.73" height="8.73" transform="translate(-24.03 241.39) rotate(-90)"/><rect class="f" x="104.32" y="145.81" width="8.73" height="8.73" transform="translate(-41.5 258.86) rotate(-90)"/><rect class="f" x="95.58" y="154.54" width="8.73" height="8.73" transform="translate(-58.96 258.86) rotate(-90)"/><rect class="f" x="78.21" y="154.54" width="8.73" height="8.73" transform="translate(-76.34 241.49) rotate(-90)"/><rect class="f" x="121.78" y="110.88" width="8.73" height="8.73" transform="translate(10.91 241.39) rotate(-90)"/><rect class="f" x="121.78" y="128.34" width="8.73" height="8.73" transform="translate(-6.56 258.86) rotate(-90)"/><rect class="f" x="121.78" y="145.81" width="8.73" height="8.73" transform="translate(-24.03 276.33) rotate(-90)"/><rect class="f" x="113.05" y="119.61" width="8.73" height="8.73" transform="translate(-6.56 241.39) rotate(-90)"/><rect class="f" x="113.05" y="137.08" width="8.73" height="8.73" transform="translate(-24.03 258.86) rotate(-90)"/><rect class="f" x="113.05" y="154.54" width="8.73" height="8.73" transform="translate(-41.5 276.33) rotate(-90)"/><rect class="f" x="34.45" y="93.41" width="8.73" height="8.73" transform="translate(-58.96 136.59) rotate(-90)"/><rect class="f" x="34.45" y="110.88" width="8.73" height="8.73" transform="translate(-76.43 154.06) rotate(-90)"/><rect class="f" x="34.45" y="128.34" width="8.73" height="8.73" transform="translate(-93.9 171.52) rotate(-90)"/><rect class="f" x="34.45" y="145.81" width="8.73" height="8.73" transform="translate(-111.36 188.99) rotate(-90)"/><rect class="f" x="51.91" y="110.88" width="8.73" height="8.73" transform="translate(-58.96 171.52) rotate(-90)"/><rect class="f" x="51.91" y="128.34" width="8.73" height="8.73" transform="translate(-76.43 188.99) rotate(-90)"/><rect class="f" x="51.91" y="145.81" width="8.73" height="8.73" transform="translate(-93.9 206.46) rotate(-90)"/><rect class="g" x="34.45" y="84.68" width="8.73" height="8.73" transform="translate(-50.23 127.86) rotate(-90)"/><rect class="g" x="38.81" y="84.68" width="8.73" height="8.73" transform="translate(-45.86 132.22) rotate(-90)"/><rect class="g" x="47.55" y="84.68" width="8.73" height="8.73" transform="translate(-37.13 140.96) rotate(-90)"/><rect class="g" x="56.28" y="84.68" width="8.73" height="8.73" transform="translate(-28.4 149.69) rotate(-90)"/><rect class="g" x="65.01" y="84.68" width="8.73" height="8.73" transform="translate(-19.66 158.42) rotate(-90)"/><rect class="g" x="73.75" y="84.68" width="8.73" height="8.73" transform="translate(-10.93 167.16) rotate(-90)"/><rect class="g" x="82.48" y="84.68" width="8.73" height="8.73" transform="translate(-2.19 175.89) rotate(-90)"/><rect class="g" x="91.21" y="84.68" width="8.73" height="8.73" transform="translate(6.54 184.62) rotate(-90)"/><rect class="g" x="87.35" y="75.94" width="8.73" height="8.73" transform="translate(11.41 172.03) rotate(-90)"/><rect class="g" x="87.35" y="67.21" width="8.73" height="8.73" transform="translate(20.14 163.29) rotate(-90)"/><rect class="g" x="87.35" y="58.47" width="8.73" height="8.73" transform="translate(28.88 154.56) rotate(-90)"/><rect class="g" x="91.21" y="49.74" width="8.73" height="8.73" transform="translate(41.47 149.69) rotate(-90)"/><rect class="g" x="151.82" y="49.74" width="8.73" height="8.73" transform="translate(102.08 210.29) rotate(-90)"/><rect class="g" x="156.19" y="58.47" width="8.73" height="8.73" transform="translate(97.71 223.4) rotate(-90)"/><rect class="g" x="156.19" y="67.21" width="8.73" height="8.73" transform="translate(88.98 232.13) rotate(-90)"/><rect class="g" x="95.45" y="41.01" width="8.73" height="8.73" transform="translate(54.44 145.19) rotate(-90)"/><rect class="g" x="147.45" y="41.01" width="8.73" height="8.73" transform="translate(106.45 197.19) rotate(-90)"/><rect class="g" x="103.79" y="36.64" width="8.73" height="8.73" transform="translate(67.14 149.16) rotate(-90)"/><rect class="g" x="138.72" y="36.64" width="8.73" height="8.73" transform="translate(102.08 184.09) rotate(-90)"/><rect class="g" x="112.52" y="32.27" width="8.73" height="8.73" transform="translate(80.24 153.53) rotate(-90)"/><rect class="g" x="121.25" y="32.27" width="8.73" height="8.73" transform="translate(88.98 162.26) rotate(-90)"/><rect class="g" x="129.99" y="32.27" width="8.73" height="8.73" transform="translate(97.71 170.99) rotate(-90)"/><rect class="g" x="99.95" y="84.68" width="8.73" height="8.73" transform="translate(15.27 193.36) rotate(-90)"/><rect class="g" x="108.68" y="84.68" width="8.73" height="8.73" transform="translate(24.01 202.09) rotate(-90)"/><rect class="g" x="117.42" y="84.68" width="8.73" height="8.73" transform="translate(32.74 210.82) rotate(-90)"/><rect class="g" x="121.78" y="84.68" width="8.73" height="8.73" transform="translate(37.11 215.19) rotate(-90)"/><rect class="g" x="126.15" y="93.41" width="8.73" height="8.73" transform="translate(32.74 228.29) rotate(-90)"/><rect class="g" x="121.78" y="102.14" width="8.73" height="8.73" transform="translate(19.64 232.66) rotate(-90)"/><rect class="g" x="126.15" y="110.88" width="8.73" height="8.73" transform="translate(15.27 245.76) rotate(-90)"/><rect class="g" x="121.78" y="119.61" width="8.73" height="8.73" transform="translate(2.17 250.13) rotate(-90)"/><rect class="g" x="126.15" y="128.34" width="8.73" height="8.73" transform="translate(-2.19 263.23) rotate(-90)"/><rect class="g" x="121.78" y="137.08" width="8.73" height="8.73" transform="translate(-15.29 267.59) rotate(-90)"/><rect class="g" x="126.15" y="145.81" width="8.73" height="8.73" transform="translate(-19.66 280.69) rotate(-90)"/><rect class="g" x="121.78" y="154.54" width="8.73" height="8.73" transform="translate(-32.76 285.06) rotate(-90)"/><rect class="g" x="126.15" y="163.28" width="8.73" height="8.73" transform="translate(-37.13 298.16) rotate(-90)"/><rect class="g" x="117.42" y="163.28" width="8.73" height="8.73" transform="translate(-45.86 289.43) rotate(-90)"/><rect class="g" x="108.68" y="163.28" width="8.73" height="8.73" transform="translate(-54.6 280.69) rotate(-90)"/><rect class="g" x="99.95" y="163.28" width="8.73" height="8.73" transform="translate(-63.33 271.96) rotate(-90)"/><rect class="g" x="91.21" y="163.28" width="8.73" height="8.73" transform="translate(-72.06 263.23) rotate(-90)"/><rect class="g" x="82.48" y="163.28" width="8.73" height="8.73" transform="translate(-80.8 254.49) rotate(-90)"/><rect class="g" x="73.75" y="163.28" width="8.73" height="8.73" transform="translate(-89.53 245.76) rotate(-90)"/><rect class="g" x="65.01" y="163.28" width="8.73" height="8.73" transform="translate(-98.26 237.03) rotate(-90)"/><rect class="g" x="56.28" y="163.28" width="8.73" height="8.73" transform="translate(-107 228.29) rotate(-90)"/><rect class="g" x="47.55" y="163.28" width="8.73" height="8.73" transform="translate(-115.73 219.56) rotate(-90)"/><rect class="g" x="38.81" y="163.28" width="8.73" height="8.73" transform="translate(-124.46 210.82) rotate(-90)"/><rect class="g" x="30.08" y="163.28" width="8.73" height="8.73" transform="translate(-133.2 202.09) rotate(-90)"/><rect class="g" x="34.45" y="154.54" width="8.73" height="8.73" transform="translate(-120.1 197.72) rotate(-90)"/><rect class="g" x="30.08" y="145.81" width="8.73" height="8.73" transform="translate(-115.73 184.62) rotate(-90)"/><rect class="g" x="34.45" y="137.08" width="8.73" height="8.73" transform="translate(-102.63 180.26) rotate(-90)"/><rect class="g" x="30.08" y="128.34" width="8.73" height="8.73" transform="translate(-98.26 167.16) rotate(-90)"/><rect class="g" x="34.45" y="119.61" width="8.73" height="8.73" transform="translate(-85.16 162.79) rotate(-90)"/><rect class="g" x="30.08" y="110.88" width="8.73" height="8.73" transform="translate(-80.8 149.69) rotate(-90)"/><rect class="g" x="34.45" y="102.14" width="8.73" height="8.73" transform="translate(-67.7 145.32) rotate(-90)"/><rect class="g" x="30.08" y="93.41" width="8.73" height="8.73" transform="translate(-63.33 132.22) rotate(-90)"/></g></g></g></g></svg>