<?xml version="1.0" encoding="UTF-8"?><svg xmlns="http://www.w3.org/2000/svg" viewBox="0 0 218.34 209.61"><defs><style>.d{fill:#f5f5f5;}.e{fill:#e0e0e0;}.f{fill:#9b9b9b;}</style></defs><g id="a"/><g id="b"><g id="c"><g><rect class="d" x="8.73" y="26.2" width="200.87" height="96.07"/><rect class="f" x="33.16" y="131" width="8.73" height="8.73" transform="translate(-97.85 172.89) rotate(-90)"/><rect class="f" x="33.16" y="139.74" width="8.73" height="8.73" transform="translate(-106.58 181.63) rotate(-90)"/><rect class="f" x="33.16" y="148.47" width="8.73" height="8.73" transform="translate(-115.31 190.36) rotate(-90)"/><rect class="f" x="33.16" y="157.2" width="8.73" height="8.73" transform="translate(-124.05 199.1) rotate(-90)"/><rect class="f" x="33.16" y="165.94" width="8.73" height="8.73" transform="translate(-132.78 207.83) rotate(-90)"/><rect class="f" x="33.16" y="174.67" width="8.73" height="8.73" transform="translate(-141.51 216.56) rotate(-90)"/><rect class="f" x="33.16" y="183.41" width="8.73" height="8.73" transform="translate(-150.25 225.3) rotate(-90)"/><rect class="f" x="33.16" y="192.14" width="8.73" height="8.73" transform="translate(-158.98 234.03) rotate(-90)"/><rect class="f" x="33.16" y="200.87" width="8.73" height="8.73" transform="translate(-167.72 242.76) rotate(-90)"/><rect class="f" x="24.42" y="131" width="8.73" height="8.73" transform="translate(-106.58 164.16) rotate(-90)"/><rect class="f" x="8.73" y="122.27" width="8.73" height="8.73" transform="translate(-113.54 139.74) rotate(-90)"/><rect class="f" x="17.47" y="122.27" width="8.73" height="8.73" transform="translate(-104.8 148.47) rotate(-90)"/><rect class="f" x="26.2" y="122.27" width="8.73" height="8.73" transform="translate(-96.07 157.2) rotate(-90)"/><rect class="f" x="34.93" y="122.27" width="8.73" height="8.73" transform="translate(-87.34 165.94) rotate(-90)"/><rect class="f" x="43.67" y="122.27" width="8.73" height="8.73" transform="translate(-78.6 174.67) rotate(-90)"/><rect class="f" x="52.4" y="122.27" width="8.73" height="8.73" transform="translate(-69.87 183.41) rotate(-90)"/><rect class="f" x="61.14" y="122.27" width="8.73" height="8.73" transform="translate(-61.14 192.14) rotate(-90)"/><rect class="f" x="69.87" y="122.27" width="8.73" height="8.73" transform="translate(-52.4 200.87) rotate(-90)"/><rect class="f" x="78.6" y="122.27" width="8.73" height="8.73" transform="translate(-43.67 209.61) rotate(-90)"/><rect class="f" x="87.34" y="122.27" width="8.73" height="8.73" transform="translate(-34.93 218.34) rotate(-90)"/><rect class="f" x="96.07" y="122.27" width="8.73" height="8.73" transform="translate(-26.2 227.07) rotate(-90)"/><rect class="f" x="104.8" y="122.27" width="8.73" height="8.73" transform="translate(-17.47 235.81) rotate(-90)"/><rect class="f" x="113.54" y="122.27" width="8.73" height="8.73" transform="translate(-8.73 244.54) rotate(-90)"/><rect class="f" x="122.27" y="122.27" width="8.73" height="8.73" transform="translate(0 253.27) rotate(-90)"/><rect class="f" x="131" y="122.27" width="8.73" height="8.73" transform="translate(8.73 262.01) rotate(-90)"/><rect class="f" x="139.74" y="122.27" width="8.73" height="8.73" transform="translate(17.47 270.74) rotate(-90)"/><rect class="f" x="148.47" y="122.27" width="8.73" height="8.73" transform="translate(26.2 279.48) rotate(-90)"/><rect class="f" x="157.2" y="122.27" width="8.73" height="8.73" transform="translate(34.93 288.21) rotate(-90)"/><rect class="f" x="165.94" y="122.27" width="8.73" height="8.73" transform="translate(43.67 296.94) rotate(-90)"/><rect class="f" x="174.67" y="122.27" width="8.73" height="8.73" transform="translate(52.4 305.68) rotate(-90)"/><rect class="f" x="183.41" y="122.27" width="8.73" height="8.73" transform="translate(61.14 314.41) rotate(-90)"/><rect class="f" x="192.14" y="122.27" width="8.73" height="8.73" transform="translate(69.87 323.14) rotate(-90)"/><rect class="f" x="200.87" y="122.27" width="8.73" height="8.73" transform="translate(78.6 331.88) rotate(-90)"/><rect class="f" x="209.61" y="96.07" width="8.73" height="8.73" transform="translate(113.54 314.41) rotate(-90)"/><rect class="f" x="209.61" y="87.34" width="8.73" height="8.73" transform="translate(122.27 305.68) rotate(-90)"/><rect class="f" x="209.61" y="78.6" width="8.73" height="8.73" transform="translate(131 296.94) rotate(-90)"/><rect class="f" x="209.61" y="69.87" width="8.73" height="8.73" transform="translate(139.74 288.21) rotate(-90)"/><rect class="f" x="209.61" y="61.14" width="8.73" height="8.73" transform="translate(148.47 279.48) rotate(-90)"/><rect class="f" x="209.61" y="52.4" width="8.73" height="8.73" transform="translate(157.2 270.74) rotate(-90)"/><rect class="f" x="209.61" y="43.67" width="8.73" height="8.73" transform="translate(165.94 262.01) rotate(-90)"/><rect class="f" x="209.61" y="34.93" width="8.73" height="8.73" transform="translate(174.67 253.27) rotate(-90)"/><rect class="f" x="209.61" y="26.2" width="8.73" height="8.73" transform="translate(183.41 244.54) rotate(-90)"/><rect class="f" x="200.87" y="17.47" width="8.73" height="8.73" transform="translate(183.41 227.07) rotate(-90)"/><rect class="f" x="192.14" y="17.47" width="8.73" height="8.73" transform="translate(174.67 218.34) rotate(-90)"/><rect class="f" x="189.64" y="26.19" width="8.73" height="8.73" transform="translate(163.45 224.56) rotate(-90)"/><rect class="f" x="180.9" y="26.19" width="8.73" height="8.73" transform="translate(154.71 215.83) rotate(-90)"/><rect class="f" x="172.17" y="26.19" width="8.73" height="8.73" transform="translate(145.98 207.09) rotate(-90)"/><rect class="f" x="163.44" y="26.19" width="8.73" height="8.73" transform="translate(137.25 198.36) rotate(-90)"/><rect class="f" x="180.9" y="34.92" width="8.73" height="8.73" transform="translate(145.98 224.56) rotate(-90)"/><rect class="f" x="172.17" y="34.92" width="8.73" height="8.73" transform="translate(137.25 215.83) rotate(-90)"/><rect class="f" x="163.44" y="34.92" width="8.73" height="8.73" transform="translate(128.51 207.09) rotate(-90)"/><rect class="f" x="154.7" y="34.92" width="8.73" height="8.73" transform="translate(119.78 198.36) rotate(-90)"/><rect class="f" x="145.97" y="34.92" width="8.73" height="8.73" transform="translate(111.05 189.63) rotate(-90)"/><rect class="f" x="172.17" y="43.66" width="8.73" height="8.73" transform="translate(128.51 224.56) rotate(-90)"/><rect class="f" x="163.44" y="43.66" width="8.73" height="8.73" transform="translate(119.78 215.83) rotate(-90)"/><rect class="f" x="154.7" y="43.66" width="8.73" height="8.73" transform="translate(111.05 207.09) rotate(-90)"/><rect class="f" x="145.97" y="43.66" width="8.73" height="8.73" transform="translate(102.31 198.36) rotate(-90)"/><rect class="f" x="137.24" y="43.66" width="8.73" height="8.73" transform="translate(93.58 189.63) rotate(-90)"/><rect class="f" x="163.44" y="52.39" width="8.73" height="8.73" transform="translate(111.05 224.56) rotate(-90)"/><rect class="f" x="154.7" y="52.39" width="8.73" height="8.73" transform="translate(102.31 215.83) rotate(-90)"/><rect class="f" x="145.97" y="52.39" width="8.73" height="8.73" transform="translate(93.58 207.09) rotate(-90)"/><rect class="f" x="137.24" y="52.39" width="8.73" height="8.73" transform="translate(84.84 198.36) rotate(-90)"/><rect class="f" x="128.5" y="52.39" width="8.73" height="8.73" transform="translate(76.11 189.63) rotate(-90)"/><rect class="f" x="154.7" y="61.12" width="8.73" height="8.73" transform="translate(93.58 224.56) rotate(-90)"/><rect class="f" x="145.97" y="61.12" width="8.73" height="8.73" transform="translate(84.84 215.83) rotate(-90)"/><rect class="f" x="137.24" y="61.12" width="8.73" height="8.73" transform="translate(76.11 207.09) rotate(-90)"/><rect class="f" x="128.5" y="61.12" width="8.73" height="8.73" transform="translate(67.38 198.36) rotate(-90)"/><rect class="f" x="119.77" y="61.12" width="8.73" height="8.73" transform="translate(58.64 189.63) rotate(-90)"/><rect class="f" x="145.97" y="69.84" width="8.73" height="8.73" transform="translate(76.13 224.54) rotate(-90)"/><rect class="f" x="137.24" y="69.84" width="8.73" height="8.73" transform="translate(67.4 215.8) rotate(-90)"/><rect class="f" x="128.5" y="69.84" width="8.73" height="8.73" transform="translate(58.67 207.07) rotate(-90)"/><rect class="f" x="119.77" y="69.84" width="8.73" height="8.73" transform="translate(49.93 198.34) rotate(-90)"/><rect class="f" x="111.03" y="69.84" width="8.73" height="8.73" transform="translate(41.2 189.6) rotate(-90)"/><rect class="f" x="137.24" y="78.55" width="8.73" height="8.73" transform="translate(58.69 224.52) rotate(-90)"/><rect class="f" x="128.5" y="78.55" width="8.73" height="8.73" transform="translate(49.95 215.78) rotate(-90)"/><rect class="f" x="119.77" y="78.55" width="8.73" height="8.73" transform="translate(41.22 207.05) rotate(-90)"/><rect class="f" x="111.03" y="78.55" width="8.73" height="8.73" transform="translate(32.49 198.31) rotate(-90)"/><rect class="f" x="102.3" y="78.55" width="8.73" height="8.73" transform="translate(23.75 189.58) rotate(-90)"/><rect class="f" x="128.5" y="87.28" width="8.73" height="8.73" transform="translate(41.22 224.52) rotate(-90)"/><rect class="f" x="119.77" y="87.28" width="8.73" height="8.73" transform="translate(32.49 215.78) rotate(-90)"/><rect class="f" x="111.03" y="87.28" width="8.73" height="8.73" transform="translate(23.75 207.05) rotate(-90)"/><rect class="f" x="102.3" y="87.28" width="8.73" height="8.73" transform="translate(15.02 198.31) rotate(-90)"/><rect class="f" x="93.57" y="87.28" width="8.73" height="8.73" transform="translate(6.29 189.58) rotate(-90)"/><rect class="f" x="119.77" y="96.05" width="8.73" height="8.73" transform="translate(23.72 224.55) rotate(-90)"/><rect class="f" x="111.03" y="96.05" width="8.73" height="8.73" transform="translate(14.99 215.82) rotate(-90)"/><rect class="f" x="102.3" y="96.05" width="8.73" height="8.73" transform="translate(6.25 207.08) rotate(-90)"/><rect class="f" x="93.57" y="96.05" width="8.73" height="8.73" transform="translate(-2.48 198.35) rotate(-90)"/><rect class="f" x="84.83" y="96.05" width="8.73" height="8.73" transform="translate(-11.21 189.61) rotate(-90)"/><rect class="f" x="111.03" y="104.81" width="8.73" height="8.73" transform="translate(6.23 224.57) rotate(-90)"/><rect class="f" x="102.3" y="104.81" width="8.73" height="8.73" transform="translate(-2.51 215.84) rotate(-90)"/><rect class="f" x="93.57" y="104.81" width="8.73" height="8.73" transform="translate(-11.24 207.11) rotate(-90)"/><rect class="f" x="84.83" y="104.81" width="8.73" height="8.73" transform="translate(-19.97 198.37) rotate(-90)"/><rect class="f" x="76.1" y="104.81" width="8.73" height="8.73" transform="translate(-28.71 189.64) rotate(-90)"/><rect class="f" x="102.3" y="113.55" width="8.73" height="8.73" transform="translate(-11.25 224.58) rotate(-90)"/><rect class="f" x="93.57" y="113.55" width="8.73" height="8.73" transform="translate(-19.98 215.85) rotate(-90)"/><rect class="f" x="84.83" y="113.55" width="8.73" height="8.73" transform="translate(-28.71 207.12) rotate(-90)"/><rect class="f" x="76.1" y="113.55" width="8.73" height="8.73" transform="translate(-37.45 198.38) rotate(-90)"/><rect class="f" x="67.37" y="113.55" width="8.73" height="8.73" transform="translate(-46.18 189.65) rotate(-90)"/><rect class="f" x="104.22" y="26.3" width="8.96" height="8.73" transform="translate(78.03 139.37) rotate(-90)"/><rect class="f" x="95.48" y="26.3" width="8.96" height="8.73" transform="translate(69.3 130.63) rotate(-90)"/><rect class="f" x="86.75" y="26.3" width="8.96" height="8.73" transform="translate(60.56 121.9) rotate(-90)"/><rect class="f" x="78.02" y="26.3" width="8.96" height="8.73" transform="translate(51.83 113.17) rotate(-90)"/><rect class="f" x="95.6" y="35.15" width="8.73" height="8.73" transform="translate(60.45 139.48) rotate(-90)"/><rect class="f" x="86.86" y="35.15" width="8.73" height="8.73" transform="translate(51.71 130.75) rotate(-90)"/><rect class="f" x="78.13" y="35.15" width="8.73" height="8.73" transform="translate(42.98 122.01) rotate(-90)"/><rect class="f" x="69.4" y="35.15" width="8.73" height="8.73" transform="translate(34.25 113.28) rotate(-90)"/><rect class="f" x="60.66" y="35.15" width="8.73" height="8.73" transform="translate(25.51 104.55) rotate(-90)"/><rect class="f" x="86.86" y="43.88" width="8.73" height="8.73" transform="translate(42.98 139.48) rotate(-90)"/><rect class="f" x="78.13" y="43.88" width="8.73" height="8.73" transform="translate(34.25 130.75) rotate(-90)"/><rect class="f" x="69.4" y="43.88" width="8.73" height="8.73" transform="translate(25.51 122.01) rotate(-90)"/><rect class="f" x="60.66" y="43.88" width="8.73" height="8.73" transform="translate(16.78 113.28) rotate(-90)"/><rect class="f" x="51.93" y="43.88" width="8.73" height="8.73" transform="translate(8.05 104.55) rotate(-90)"/><rect class="f" x="78.13" y="52.62" width="8.73" height="8.73" transform="translate(25.51 139.48) rotate(-90)"/><rect class="f" x="69.4" y="52.62" width="8.73" height="8.73" transform="translate(16.78 130.75) rotate(-90)"/><rect class="f" x="60.66" y="52.62" width="8.73" height="8.73" transform="translate(8.05 122.01) rotate(-90)"/><rect class="f" x="51.93" y="52.62" width="8.73" height="8.73" transform="translate(-.69 113.28) rotate(-90)"/><rect class="f" x="43.2" y="52.62" width="8.73" height="8.73" transform="translate(-9.42 104.55) rotate(-90)"/><rect class="f" x="69.4" y="61.35" width="8.73" height="8.73" transform="translate(8.05 139.48) rotate(-90)"/><rect class="f" x="60.66" y="61.35" width="8.73" height="8.73" transform="translate(-.69 130.75) rotate(-90)"/><rect class="f" x="51.93" y="61.35" width="8.73" height="8.73" transform="translate(-9.42 122.01) rotate(-90)"/><rect class="f" x="43.2" y="61.35" width="8.73" height="8.73" transform="translate(-18.15 113.28) rotate(-90)"/><rect class="f" x="34.46" y="61.35" width="8.73" height="8.73" transform="translate(-26.89 104.55) rotate(-90)"/><rect class="f" x="60.66" y="70.08" width="8.73" height="8.73" transform="translate(-9.42 139.48) rotate(-90)"/><rect class="f" x="51.93" y="70.08" width="8.73" height="8.73" transform="translate(-18.15 130.75) rotate(-90)"/><rect class="f" x="43.2" y="70.08" width="8.73" height="8.73" transform="translate(-26.89 122.01) rotate(-90)"/><rect class="f" x="34.46" y="70.08" width="8.73" height="8.73" transform="translate(-35.62 113.28) rotate(-90)"/><rect class="f" x="25.73" y="70.08" width="8.73" height="8.73" transform="translate(-44.36 104.55) rotate(-90)"/><rect class="f" x="51.93" y="78.82" width="8.73" height="8.73" transform="translate(-26.89 139.48) rotate(-90)"/><rect class="f" x="43.2" y="78.82" width="8.73" height="8.73" transform="translate(-35.62 130.75) rotate(-90)"/><rect class="f" x="34.46" y="78.82" width="8.73" height="8.73" transform="translate(-44.36 122.01) rotate(-90)"/><rect class="f" x="25.73" y="78.82" width="8.73" height="8.73" transform="translate(-53.09 113.28) rotate(-90)"/><rect class="f" x="17" y="78.82" width="8.73" height="8.73" transform="translate(-61.82 104.55) rotate(-90)"/><rect class="f" x="43.28" y="87.47" width="8.73" height="8.73" transform="translate(-44.19 139.48) rotate(-90)"/><rect class="f" x="34.55" y="87.47" width="8.73" height="8.73" transform="translate(-52.92 130.75) rotate(-90)"/><rect class="f" x="25.81" y="87.47" width="8.73" height="8.73" transform="translate(-61.65 122.01) rotate(-90)"/><rect class="f" x="17.08" y="87.47" width="8.73" height="8.73" transform="translate(-70.39 113.28) rotate(-90)"/><rect class="f" x="8.35" y="87.47" width="8.73" height="8.73" transform="translate(-79.12 104.55) rotate(-90)"/><rect class="f" x="34.46" y="96.07" width="8.73" height="8.73" transform="translate(-61.61 139.27) rotate(-90)"/><rect class="f" x="25.73" y="96.07" width="8.73" height="8.73" transform="translate(-70.34 130.53) rotate(-90)"/><rect class="f" x="17" y="96.07" width="8.73" height="8.73" transform="translate(-79.07 121.8) rotate(-90)"/><rect class="f" x="8.26" y="96.07" width="8.73" height="8.73" transform="translate(-87.81 113.07) rotate(-90)"/><rect class="f" x=".53" y="96.05" width="8.73" height="8.73" transform="translate(-95.52 105.31) rotate(-90)"/><rect class="f" x="25.73" y="104.81" width="8.73" height="8.73" transform="translate(-79.08 139.27) rotate(-90)"/><rect class="f" x="17" y="104.81" width="8.73" height="8.73" transform="translate(-87.81 130.53) rotate(-90)"/><rect class="f" x="8.26" y="104.81" width="8.73" height="8.73" transform="translate(-96.54 121.8) rotate(-90)"/><rect class="f" x=".53" y="104.81" width="8.73" height="8.73" transform="translate(-104.28 114.07) rotate(-90)"/><rect class="f" x="17" y="113.55" width="8.73" height="8.73" transform="translate(-96.55 139.28) rotate(-90)"/><rect class="f" x="8.26" y="113.55" width="8.73" height="8.73" transform="translate(-105.29 130.54) rotate(-90)"/><rect class="f" x=".53" y="113.55" width="8.73" height="8.73" transform="translate(-113.02 122.81) rotate(-90)"/><rect class="f" x="21.83" y="26.19" width="8.73" height="8.73" transform="translate(-4.36 56.76) rotate(-90)"/><rect class="f" x="13.1" y="26.19" width="8.73" height="8.73" transform="translate(-13.09 48.02) rotate(-90)"/><rect class="f" x="4.37" y="26.19" width="8.73" height="8.73" transform="translate(-21.82 39.29) rotate(-90)"/><rect class="f" x="13.1" y="34.92" width="8.73" height="8.73" transform="translate(-21.82 56.76) rotate(-90)"/><rect class="f" x="4.37" y="34.92" width="8.73" height="8.73" transform="translate(-30.56 48.02) rotate(-90)"/><rect class="f" x="4.37" y="43.66" width="8.73" height="8.73" transform="translate(-39.29 56.76) rotate(-90)"/><rect class="f" x="204.15" y="61.12" width="8.73" height="8.73" transform="translate(143.03 274.01) rotate(-90)"/><rect class="f" x="204.15" y="69.84" width="8.73" height="8.73" transform="translate(134.31 282.72) rotate(-90)"/><rect class="f" x="195.42" y="69.84" width="8.73" height="8.73" transform="translate(125.58 273.99) rotate(-90)"/><rect class="f" x="204.15" y="78.55" width="8.73" height="8.73" transform="translate(125.6 291.43) rotate(-90)"/><rect class="f" x="195.42" y="78.55" width="8.73" height="8.73" transform="translate(116.87 282.7) rotate(-90)"/><rect class="f" x="186.68" y="78.55" width="8.73" height="8.73" transform="translate(108.14 273.96) rotate(-90)"/><rect class="f" x="204.15" y="87.28" width="8.73" height="8.73" transform="translate(116.87 300.16) rotate(-90)"/><rect class="f" x="195.42" y="87.28" width="8.73" height="8.73" transform="translate(108.14 291.43) rotate(-90)"/><rect class="f" x="186.68" y="87.28" width="8.73" height="8.73" transform="translate(99.4 282.7) rotate(-90)"/><rect class="f" x="177.95" y="87.28" width="8.73" height="8.73" transform="translate(90.67 273.96) rotate(-90)"/><rect class="f" x="204.15" y="96.05" width="8.73" height="8.73" transform="translate(108.1 308.93) rotate(-90)"/><rect class="f" x="195.42" y="96.05" width="8.73" height="8.73" transform="translate(99.37 300.2) rotate(-90)"/><rect class="f" x="186.68" y="96.05" width="8.73" height="8.73" transform="translate(90.64 291.46) rotate(-90)"/><rect class="f" x="177.95" y="96.05" width="8.73" height="8.73" transform="translate(81.9 282.73) rotate(-90)"/><rect class="f" x="169.22" y="96.05" width="8.73" height="8.73" transform="translate(73.17 274) rotate(-90)"/><rect class="f" x="195.42" y="104.81" width="8.73" height="8.73" transform="translate(90.61 308.96) rotate(-90)"/><rect class="f" x="186.68" y="104.81" width="8.73" height="8.73" transform="translate(81.88 300.22) rotate(-90)"/><rect class="f" x="177.95" y="104.81" width="8.73" height="8.73" transform="translate(73.14 291.49) rotate(-90)"/><rect class="f" x="169.22" y="104.81" width="8.73" height="8.73" transform="translate(64.41 282.75) rotate(-90)"/><rect class="f" x="160.48" y="104.81" width="8.73" height="8.73" transform="translate(55.68 274.02) rotate(-90)"/><rect class="f" x="186.68" y="113.55" width="8.73" height="8.73" transform="translate(73.13 308.96) rotate(-90)"/><rect class="f" x="177.95" y="113.55" width="8.73" height="8.73" transform="translate(64.4 300.23) rotate(-90)"/><rect class="f" x="169.22" y="113.55" width="8.73" height="8.73" transform="translate(55.67 291.5) rotate(-90)"/><rect class="f" x="160.48" y="113.55" width="8.73" height="8.73" transform="translate(46.93 282.76) rotate(-90)"/><rect class="f" x="151.75" y="113.55" width="8.73" height="8.73" transform="translate(38.2 274.03) rotate(-90)"/><rect class="f" x="183.41" y="17.47" width="8.73" height="8.73" transform="translate(165.94 209.61) rotate(-90)"/><rect class="f" x="174.67" y="17.47" width="8.73" height="8.73" transform="translate(157.2 200.87) rotate(-90)"/><rect class="f" x="165.94" y="17.47" width="8.73" height="8.73" transform="translate(148.47 192.14) rotate(-90)"/><rect class="f" x="157.2" y="17.47" width="8.73" height="8.73" transform="translate(139.74 183.41) rotate(-90)"/><rect class="f" x="148.47" y="17.47" width="8.73" height="8.73" transform="translate(131 174.67) rotate(-90)"/><rect class="f" x="139.74" y="17.47" width="8.73" height="8.73" transform="translate(122.27 165.94) rotate(-90)"/><rect class="f" x="131" y="17.47" width="8.73" height="8.73" transform="translate(113.54 157.2) rotate(-90)"/><rect class="f" x="122.27" y="17.47" width="8.73" height="8.73" transform="translate(104.8 148.47) rotate(-90)"/><rect class="f" x="113.54" y="17.47" width="8.73" height="8.73" transform="translate(96.07 139.74) rotate(-90)"/><rect class="f" x="104.8" y="17.47" width="8.73" height="8.73" transform="translate(87.34 131) rotate(-90)"/><rect class="f" x="96.07" y="17.47" width="8.73" height="8.73" transform="translate(78.6 122.27) rotate(-90)"/><rect class="f" x="87.34" y="17.47" width="8.73" height="8.73" transform="translate(69.87 113.54) rotate(-90)"/><rect class="f" x="78.6" y="17.47" width="8.73" height="8.73" transform="translate(61.14 104.8) rotate(-90)"/><rect class="f" x="69.87" y="17.47" width="8.73" height="8.73" transform="translate(52.4 96.07) rotate(-90)"/><rect class="f" x="61.14" y="17.47" width="8.73" height="8.73" transform="translate(43.67 87.34) rotate(-90)"/><rect class="f" x="52.4" y="17.47" width="8.73" height="8.73" transform="translate(34.93 78.6) rotate(-90)"/><rect class="f" x="43.67" y="17.47" width="8.73" height="8.73" transform="translate(26.2 69.87) rotate(-90)"/><rect class="f" x="34.93" y="17.47" width="8.73" height="8.73" transform="translate(17.47 61.14) rotate(-90)"/><rect class="f" x="26.2" y="17.47" width="8.73" height="8.73" transform="translate(8.73 52.4) rotate(-90)"/><rect class="f" x="17.47" y="17.47" width="8.73" height="8.73" transform="translate(0 43.67) rotate(-90)"/><rect class="f" x="8.73" y="17.47" width="8.73" height="8.73" transform="translate(-8.73 34.93) rotate(-90)"/><rect class="f" x="0" y="26.2" width="8.73" height="8.73" transform="translate(-26.2 34.93) rotate(-90)"/><rect class="f" x="0" y="34.93" width="8.73" height="8.73" transform="translate(-34.93 43.67) rotate(-90)"/><rect class="f" x="0" y="43.67" width="8.73" height="8.73" transform="translate(-43.67 52.4) rotate(-90)"/><rect class="f" x="0" y="52.4" width="8.73" height="8.73" transform="translate(-52.4 61.14) rotate(-90)"/><rect class="f" x="0" y="61.14" width="8.73" height="8.73" transform="translate(-61.14 69.87) rotate(-90)"/><rect class="f" x="0" y="69.87" width="8.73" height="8.73" transform="translate(-69.87 78.6) rotate(-90)"/><rect class="f" x="0" y="78.6" width="8.73" height="8.73" transform="translate(-78.6 87.34) rotate(-90)"/><rect class="f" x="0" y="87.34" width="8.73" height="8.73" transform="translate(-87.34 96.07) rotate(-90)"/><rect class="f" x="0" y="96.07" width="8.73" height="8.73" transform="translate(-96.07 104.8) rotate(-90)"/><rect class="f" x="0" y="104.8" width="8.73" height="8.73" transform="translate(-104.8 113.54) rotate(-90)"/><rect class="f" x="0" y="113.54" width="8.73" height="8.73" transform="translate(-113.54 122.27) rotate(-90)"/><rect class="f" x="24.42" y="139.74" width="8.73" height="8.73" transform="translate(-115.31 172.89) rotate(-90)"/><rect class="f" x="24.42" y="148.47" width="8.73" height="8.73" transform="translate(-124.05 181.63) rotate(-90)"/><rect class="f" x="24.42" y="157.2" width="8.73" height="8.73" transform="translate(-132.78 190.36) rotate(-90)"/><rect class="f" x="24.42" y="165.94" width="8.73" height="8.73" transform="translate(-141.51 199.1) rotate(-90)"/><rect class="f" x="24.42" y="174.67" width="8.73" height="8.73" transform="translate(-150.25 207.83) rotate(-90)"/><rect class="f" x="24.42" y="183.41" width="8.73" height="8.73" transform="translate(-158.98 216.56) rotate(-90)"/><rect class="f" x="24.42" y="192.14" width="8.73" height="8.73" transform="translate(-167.72 225.3) rotate(-90)"/><rect class="f" x="24.42" y="200.87" width="8.73" height="8.73" transform="translate(-176.45 234.03) rotate(-90)"/><rect class="f" x="185.46" y="131" width="8.73" height="8.73" transform="translate(54.45 325.19) rotate(-90)"/><rect class="f" x="185.46" y="139.74" width="8.73" height="8.73" transform="translate(45.72 333.93) rotate(-90)"/><rect class="f" x="185.46" y="148.47" width="8.73" height="8.73" transform="translate(36.99 342.66) rotate(-90)"/><rect class="f" x="185.46" y="157.2" width="8.73" height="8.73" transform="translate(28.25 351.39) rotate(-90)"/><rect class="f" x="185.46" y="165.94" width="8.73" height="8.73" transform="translate(19.52 360.13) rotate(-90)"/><rect class="f" x="185.46" y="174.67" width="8.73" height="8.73" transform="translate(10.78 368.86) rotate(-90)"/><rect class="f" x="185.46" y="183.41" width="8.73" height="8.73" transform="translate(2.05 377.6) rotate(-90)"/><rect class="f" x="185.46" y="192.14" width="8.73" height="8.73" transform="translate(-6.68 386.33) rotate(-90)"/><rect class="f" x="185.46" y="200.87" width="8.73" height="8.73" transform="translate(-15.42 395.06) rotate(-90)"/><rect class="f" x="176.72" y="131" width="8.73" height="8.73" transform="translate(45.72 316.46) rotate(-90)"/><rect class="f" x="176.72" y="139.74" width="8.73" height="8.73" transform="translate(36.99 325.19) rotate(-90)"/><rect class="f" x="176.72" y="148.47" width="8.73" height="8.73" transform="translate(28.25 333.93) rotate(-90)"/><rect class="f" x="176.72" y="157.2" width="8.73" height="8.73" transform="translate(19.52 342.66) rotate(-90)"/><rect class="f" x="176.72" y="165.94" width="8.73" height="8.73" transform="translate(10.78 351.39) rotate(-90)"/><rect class="f" x="176.72" y="174.67" width="8.73" height="8.73" transform="translate(2.05 360.13) rotate(-90)"/><rect class="f" x="176.72" y="183.41" width="8.73" height="8.73" transform="translate(-6.68 368.86) rotate(-90)"/><rect class="f" x="176.72" y="192.14" width="8.73" height="8.73" transform="translate(-15.42 377.6) rotate(-90)"/><rect class="f" x="176.72" y="200.87" width="8.73" height="8.73" transform="translate(-24.15 386.33) rotate(-90)"/><rect class="f" x="33.28" y="8.73" width="8.73" height="8.73" transform="translate(24.54 50.74) rotate(-90)"/><rect class="f" x="42.01" y="8.73" width="8.73" height="8.73" transform="translate(33.28 59.48) rotate(-90)"/><rect class="f" x="37.64" y="0" width="8.73" height="8.73" transform="translate(37.64 46.38) rotate(-90)"/><rect class="f" x="28.91" y="0" width="8.73" height="8.73" transform="translate(28.91 37.64) rotate(-90)"/><rect class="f" x="24.54" y="8.73" width="8.73" height="8.73" transform="translate(15.81 42.01) rotate(-90)"/><rect class="f" x="176.73" y="8.73" width="8.73" height="8.73" transform="translate(168 194.2) rotate(-90)"/><rect class="f" x="185.47" y="8.73" width="8.73" height="8.73" transform="translate(176.73 202.93) rotate(-90)"/><rect class="f" x="181.1" y="0" width="8.73" height="8.73" transform="translate(181.1 189.83) rotate(-90)"/><rect class="f" x="172.37" y="0" width="8.73" height="8.73" transform="translate(172.37 181.1) rotate(-90)"/><rect class="f" x="168" y="8.73" width="8.73" height="8.73" transform="translate(159.27 185.47) rotate(-90)"/><rect class="e" x="25.73" y="113.55" width="8.73" height="8.73" transform="translate(-87.83 148.02) rotate(-90)"/><rect class="e" x="34.46" y="104.94" width="8.73" height="8.73" transform="translate(-70.48 148.14) rotate(-90)"/><rect class="e" x="43.2" y="96.2" width="8.73" height="8.73" transform="translate(-53 148.13) rotate(-90)"/><rect class="e" x="51.93" y="87.46" width="8.73" height="8.73" transform="translate(-35.53 148.12) rotate(-90)"/><rect class="e" x="60.66" y="78.72" width="8.73" height="8.73" transform="translate(-18.06 148.12) rotate(-90)"/><rect class="e" x="69.4" y="69.98" width="8.73" height="8.73" transform="translate(-.58 148.11) rotate(-90)"/><rect class="e" x="78.13" y="61.24" width="8.73" height="8.73" transform="translate(16.89 148.1) rotate(-90)"/><rect class="e" x="86.86" y="52.5" width="8.73" height="8.73" transform="translate(34.37 148.1) rotate(-90)"/><rect class="e" x="95.6" y="43.76" width="8.73" height="8.73" transform="translate(51.84 148.09) rotate(-90)"/><rect class="e" x="104.33" y="35.02" width="8.73" height="8.73" transform="translate(69.32 148.08) rotate(-90)"/><rect class="e" x="113.07" y="26.28" width="8.73" height="8.73" transform="translate(86.79 148.07) rotate(-90)"/><rect class="e" x="30.57" y="26.28" width="8.73" height="8.73" transform="translate(4.29 65.58) rotate(-90)"/><rect class="e" x="21.83" y="34.92" width="8.73" height="8.73" transform="translate(-13.09 65.49) rotate(-90)"/><rect class="e" x="13.1" y="43.66" width="8.73" height="8.73" transform="translate(-30.56 65.49) rotate(-90)"/><rect class="e" x="8.73" y="52.4" width="8.73" height="8.73" transform="translate(-43.67 69.87) rotate(-90)"/><rect class="e" x="111.03" y="113.55" width="8.73" height="8.73" transform="translate(-2.52 233.32) rotate(-90)"/><rect class="e" x="119.77" y="104.94" width="8.73" height="8.73" transform="translate(14.83 233.44) rotate(-90)"/><rect class="e" x="128.5" y="96.2" width="8.73" height="8.73" transform="translate(32.3 233.44) rotate(-90)"/><rect class="e" x="137.24" y="87.46" width="8.73" height="8.73" transform="translate(49.77 233.43) rotate(-90)"/><rect class="e" x="145.97" y="78.72" width="8.73" height="8.73" transform="translate(67.25 233.42) rotate(-90)"/><rect class="e" x="154.7" y="69.98" width="8.73" height="8.73" transform="translate(84.72 233.41) rotate(-90)"/><rect class="e" x="163.44" y="61.24" width="8.73" height="8.73" transform="translate(102.2 233.41) rotate(-90)"/><rect class="e" x="172.17" y="52.5" width="8.73" height="8.73" transform="translate(119.67 233.4) rotate(-90)"/><rect class="e" x="180.9" y="43.76" width="8.73" height="8.73" transform="translate(137.15 233.39) rotate(-90)"/><rect class="e" x="189.64" y="35.02" width="8.73" height="8.73" transform="translate(154.62 233.39) rotate(-90)"/><rect class="e" x="198.37" y="26.28" width="8.73" height="8.73" transform="translate(172.1 233.38) rotate(-90)"/><rect class="e" x="195.42" y="113.55" width="8.73" height="8.73" transform="translate(81.86 317.7) rotate(-90)"/><rect class="e" x="204.15" y="113.55" width="8.73" height="8.73" transform="translate(90.6 326.44) rotate(-90)"/><rect class="e" x="204.15" y="104.76" width="8.73" height="8.73" transform="translate(99.39 317.65) rotate(-90)"/><rect class="f" x="209.61" y="113.54" width="8.73" height="8.73" transform="translate(96.07 331.88) rotate(-90)"/><rect class="f" x="209.61" y="104.8" width="8.73" height="8.73" transform="translate(104.8 323.14) rotate(-90)"/><rect class="f" x="154.7" y="26.19" width="8.73" height="8.73" transform="translate(128.51 189.63) rotate(-90)"/><rect class="f" x="69.28" y="26.3" width="8.96" height="8.73" transform="translate(43.09 104.43) rotate(-90)"/></g></g></g></svg>